<?xml version="1.0" encoding="utf-8"?>
<!-- Generator: Adobe Illustrator 27.5.0, SVG Export Plug-In . SVG Version: 6.00 Build 0)  -->
<svg version="1.1" id="Ñëîé_1" xmlns="http://www.w3.org/2000/svg" xmlns:xlink="http://www.w3.org/1999/xlink" x="0px" y="0px"
	 viewBox="0 0 500 310" style="enable-background:new 0 0 500 310;" xml:space="preserve">
<g>
	<path style="fill:#F4F9F4;" d="M481.09,265.463c31.145-46.227,8.32-111.46-51.793-123.397
		c-176.954-35.137-172.261-75.93-233.445-91.798c-92.767-24.058-151.63,24.357-171.97,74.765
		c-13.784,34.16-27.318,101.357,4.082,140.429H481.09z"/>
	<ellipse style="fill:#81AEC6;" cx="270.211" cy="265.463" rx="210.879" ry="23.447"/>
	<path style="opacity:0.6;fill:#4D7491;" d="M270.21,285.442c-46.492,0-90.205-2.013-123.086-5.669
		c-16.009-1.78-28.584-3.854-37.377-6.166c-9.523-2.503-14.152-5.167-14.152-8.144c0-2.976,4.629-5.64,14.152-8.144
		c8.793-2.311,21.369-4.386,37.377-6.166c32.882-3.656,76.594-5.67,123.086-5.67c46.492,0,90.205,2.013,123.086,5.67
		c16.009,1.78,28.584,3.854,37.377,6.166c9.523,2.503,14.152,5.167,14.152,8.144c0,2.976-4.629,5.64-14.152,8.144
		c-8.793,2.311-21.369,4.386-37.377,6.166C360.415,283.428,316.702,285.442,270.21,285.442z M270.21,246.756
		c-46.445,0-90.105,2.011-122.94,5.661c-15.945,1.773-28.457,3.836-37.188,6.131c-11.477,3.017-13.19,5.627-13.19,6.915
		c0,1.287,1.714,3.898,13.19,6.915c8.731,2.295,21.243,4.358,37.188,6.131c32.835,3.651,76.495,5.661,122.94,5.661
		c46.445,0,90.105-2.011,122.94-5.661c15.945-1.773,28.457-3.836,37.188-6.131c11.477-3.017,13.19-5.627,13.19-6.915
		c0-1.287-1.714-3.898-13.19-6.915c-8.731-2.295-21.243-4.358-37.188-6.131C360.316,248.767,316.655,246.756,270.21,246.756z"/>
	<g>
		<g>
			<g>
				<path style="fill:#F2AC66;" d="M106.091,205.361c0.003,0.437-0.032,1.103-0.098,1.963c-0.713,9.247-5.092,40.742-5.974,47.054
					c-0.103,0.731-0.63,1.232-1.212,1.148c-0.277-0.041-0.805-0.33-0.943-0.732c-0.714-2.076,2.313-36.809,3.264-47.47
					c0.173-1.944,0.277-3.087,0.277-3.087S106.054,199.686,106.091,205.361z"/>
				<path style="fill:#F2AC66;" d="M76.664,205.971c-0.018,0.285-0.059,0.666-0.119,1.133c-1.037,7.959-7.973,40.927-9.334,47.366
					c-0.151,0.722-0.713,1.186-1.288,1.064c-0.274-0.059-0.78-0.383-0.891-0.793c-0.602-2.253,5.556-40.982,6.813-48.825
					c0.143-0.887,0.222-1.379,0.222-1.379S77.019,200.307,76.664,205.971z"/>
				<path style="fill:#F2AC66;" d="M168.48,254.916c-0.104,0.411-0.607,0.742-0.879,0.803c-0.573,0.13-1.14-0.327-1.303-1.047
					c-1.449-6.448-8.867-39.588-9.956-47.349c-0.059-0.421-0.099-0.765-0.119-1.029c-0.429-5.659,4.577-1.491,4.577-1.491
					s0.161,0.923,0.437,2.52C162.943,217.187,169.032,252.751,168.48,254.916z"/>
			</g>
			<path style="fill:#DB904D;" d="M76.664,205.971c-0.018,0.285-0.059,0.666-0.119,1.133c-1.626-0.227-3.199-0.63-4.7-1.189
				c0.143-0.887,0.764-3.405,0.764-3.405S77.019,200.307,76.664,205.971z"/>
			<path style="fill:#DB904D;" d="M106.091,205.361c0.003,0.437-0.032,1.103-0.098,1.963h-4.865
				c0.173-1.944,0.277-3.087,0.277-3.087S106.054,199.686,106.091,205.361z"/>
			<path style="fill:#DB904D;" d="M161.237,207.323h-4.895c-0.059-0.421-0.099-0.765-0.119-1.029
				c-0.429-5.659,4.577-1.491,4.577-1.491S160.962,205.727,161.237,207.323z"/>
			<path style="fill:#4D7491;" d="M172.76,194.357c-0.044,0.394-0.074,0.668-0.081,0.703c-0.012,0.068-0.025,0.132-0.037,0.195
				c-0.118,0.589-0.247,1.16-0.397,1.71c-0.059,0.219-0.121,0.435-0.187,0.65c-0.069,0.213-0.138,0.422-0.214,0.628
				c-0.335,0.927-0.76,1.783-1.326,2.551c-0.25,0.341-0.531,0.666-0.844,0.973c-0.627,0.614-1.385,1.154-2.311,1.613
				c-0.234,0.115-0.476,0.226-0.729,0.33c-1.234,0.51-2.735,1.057-4.571,1.305H79.68c-12.926,0-23.404-10.984-23.404-24.532v-48.281
				c0-6.079,3.871-11.208,9.168-12.833c0.002,0,0.003-0.002,0.005-0.002c0.289-0.089,0.592-0.13,0.893-0.132l55.498-0.226
				c4.216-0.018,7.964,2.804,9.301,6.996l8.601,27.003c0.081,0.249,0.166,0.495,0.259,0.737c0.03,0.081,0.064,0.16,0.098,0.241
				c0.022,0.056,0.045,0.112,0.071,0.17c0.027,0.066,0.054,0.132,0.084,0.196c0.377,0.844,0.837,1.636,1.368,2.363
				c0.032,0.046,0.067,0.091,0.101,0.137c0.084,0.111,0.17,0.221,0.255,0.33c0.049,0.061,0.098,0.12,0.148,0.18
				c0.393,0.475,0.82,0.917,1.273,1.326c0.032,0.03,0.065,0.059,0.097,0.088c0.074,0.066,0.148,0.13,0.224,0.193
				c0.286,0.242,0.582,0.47,0.884,0.684c0.05,0.036,0.099,0.071,0.15,0.104c0.067,0.048,0.134,0.092,0.203,0.137
				c0.136,0.091,0.276,0.178,0.417,0.262c0.069,0.043,0.14,0.084,0.21,0.125c0.067,0.038,0.133,0.076,0.198,0.112
				c0.361,0.201,0.735,0.384,1.118,0.549c0.076,0.033,0.151,0.064,0.227,0.094c0.074,0.031,0.151,0.063,0.227,0.091
				c0.077,0.03,0.153,0.059,0.23,0.086c0.124,0.046,0.25,0.089,0.378,0.132c0.061,0.02,0.123,0.04,0.185,0.058
				c0.087,0.028,0.176,0.054,0.264,0.079c0.062,0.018,0.124,0.035,0.187,0.051c0.074,0.021,0.15,0.04,0.223,0.058
				c0.094,0.023,0.19,0.046,0.288,0.068c0.118,0.026,0.237,0.051,0.356,0.074c0.027,0.005,0.055,0.01,0.084,0.016
				c0.101,0.018,0.202,0.036,0.304,0.051c0.037,0.007,0.074,0.013,0.114,0.018c0.109,0.016,0.22,0.031,0.329,0.044
				c0.055,0.007,0.109,0.013,0.163,0.018c0.059,0.007,0.119,0.013,0.18,0.018h0.008c0.069,0.007,0.139,0.013,0.208,0.018
				c0.281,0.021,0.565,0.031,0.849,0.033l1.207,0.002h0.015c7.211,0.411,11.175,0.104,14.026,1.84
				c1.548,0.943,2.77,2.489,4.006,5.081c1.046,2.189,1.341,11.635,1.906,19.08C173.024,190.087,172.994,192.231,172.76,194.357z"/>
			<path style="fill:#D6E6ED;" d="M75.164,162.085c-2.637,0-4.933-0.992-6.824-2.947c-1.57-1.624-2.871-3.921-3.865-6.828
				c-2.043-5.974-2.146-12.535-2.146-13.79c0-0.822-0.034-1.742-0.07-2.715c-0.203-5.473-0.482-12.967,4.867-16.642l0.236,0.331
				c-5.165,3.549-4.892,10.917-4.692,16.297c0.036,0.977,0.071,1.901,0.071,2.73c0,0.946,0.141,23.161,12.423,23.161V162.085z"/>
			<path style="fill:#D6E6ED;" d="M172.76,194.357c-0.044,0.394-0.074,0.668-0.081,0.703c-0.012,0.068-0.025,0.132-0.037,0.195
				c-0.118,0.589-0.247,1.16-0.397,1.71c-0.059,0.219-0.121,0.435-0.187,0.65c-0.069,0.213-0.138,0.422-0.214,0.628
				c-0.335,0.927-0.76,1.783-1.326,2.551c-0.25,0.341-0.531,0.666-0.844,0.973c-0.627,0.614-1.385,1.154-2.311,1.613
				c-0.234,0.115-0.476,0.226-0.729,0.33c-1.234,0.51-2.735,1.057-4.571,1.305h-12.783c7.863-1.051,9.59-4.842,10.577-9.76
				c0.077-0.381,0.144-0.834,0.208-1.347c0.24-1.969,0.294-3.956,0.187-5.939c-0.377-6.952-0.661-16.12-2.079-19.095
				c-2.084-4.37-3.885-6.265-7.534-6.975h0.008c0.069,0.007,0.139,0.013,0.208,0.018c0.281,0.021,0.565,0.031,0.849,0.033
				l1.207,0.002h0.015c7.211,0.411,11.175,0.104,14.026,1.84c1.548,0.943,2.77,2.489,4.006,5.081
				c1.046,2.189,1.341,11.635,1.906,19.08C173.024,190.087,172.994,192.231,172.76,194.357z"/>
			<g>
				<path style="fill:#F7D0BE;" d="M136.686,130.863c0.577,3.279,2.273,10.877,4.327,14.795c0.381,0.726,0.741,1.304,1.473,0.935
					c2.019-1.017,6.368-3.181,12.335-6.004c8.398-3.974,9.642-4.054,10.963-6.072c1.321-2.018,4.248-5.473,4.861-5.603
					c0.613-0.13,6.471-0.547,7.025,0.342c0.554,0.889,0.863,4.94,0.21,6.176c0,0,0.206,2.701-0.383,3.375
					c-0.589,0.674-0.931-0.077-0.931-0.077s-1.041,1.135-1.132-2.322c0,0-5.576,5.297-8.222,4.851c0,0-16.678,14.509-24.616,17.196
					c-7.939,2.687-14.907-12.395-14.907-12.395s-0.911-6.645,0.455-10.277C130.064,130.673,136.305,128.697,136.686,130.863z"/>
				<g>
					<g>
						<path style="fill:#D84B18;" d="M188.101,246.909l-0.001,0.002c0.58,1.204,0.503,3.104-2.594,5.154
							c-4.526,2.991-10.705,0.047-12.77-0.653c-2.065-0.699-5.18-2.035-8.237-2.936c-3.055-0.902-4.633-0.678-6.127-2.316
							c-0.172-0.185-0.313-0.404-0.427-0.644c-0.272-0.565-0.394-1.253-0.43-1.945c-0.081-1.571,0.287-3.168,0.423-3.465
							c0.079-0.179,0.142-0.335,0.188-0.461c0.077-0.213,0.11-0.339,0.11-0.339s0.596-1.194,1.024-2.553
							c0.214-0.678,0.385-1.397,0.421-2.028c0.058-1.054,2.748,2.302,3.747,1.826c2.323-1.112,4.564-0.887,4.564-0.887
							c0.197,0.23,0.726,0.595,1.491,1.055c0.191,0.115,0.397,0.236,0.616,0.362c0.9,0.518,2.023,1.123,3.26,1.767
							c0.117,0.061,0.237,0.124,0.359,0.187c0.955,0.496,1.972,1.013,3,1.531c0.122,0.061,0.243,0.121,0.365,0.181
							c1.173,0.589,2.355,1.174,3.475,1.726c0.122,0.061,0.245,0.121,0.367,0.182c1.691,0.832,3.224,1.581,4.346,2.137
							c0.562,0.279,1.024,0.511,1.35,0.68c0.252,0.13,0.423,0.226,0.5,0.274C187.433,245.953,187.837,246.357,188.101,246.909z"/>
						<path style="fill:#033030;" d="M173.718,239.035c-0.579,1.55-2.298,3.636-2.387,3.744l-0.312-0.261
							c0.58-0.699,1.902-2.463,2.34-3.67C173.477,238.91,173.596,238.972,173.718,239.035z"/>
						<path style="fill:#033030;" d="M177.084,240.747c-0.47,1.534-2.188,3.434-2.275,3.529l-0.3-0.273
							c0.021-0.023,1.812-2.003,2.211-3.437C176.841,240.626,176.961,240.687,177.084,240.747z"/>
						<path style="fill:#033030;" d="M180.926,242.655c-0.366,1.26-1.533,2.833-1.702,3.058l-0.325-0.244
							c0.441-0.584,1.39-1.999,1.66-2.995C180.681,242.534,180.803,242.595,180.926,242.655z"/>
						<path style="fill:#FFD585;" d="M157.841,245.271c-0.021-0.055-0.041-0.11-0.06-0.166c-0.007-0.021-0.014-0.042-0.021-0.063
							c-0.019-0.059-0.036-0.119-0.053-0.18c-0.003-0.012-0.007-0.024-0.01-0.036c-0.017-0.067-0.033-0.135-0.048-0.203
							c-0.006-0.026-0.011-0.053-0.016-0.079c-0.01-0.05-0.019-0.1-0.028-0.15c-0.004-0.025-0.009-0.051-0.013-0.076
							c-0.011-0.069-0.021-0.139-0.029-0.209c-0.003-0.027-0.006-0.053-0.009-0.08c-0.006-0.05-0.011-0.099-0.015-0.149
							c-0.003-0.03-0.005-0.06-0.008-0.09c-0.005-0.06-0.009-0.121-0.012-0.181c-0.001-0.013-0.002-0.026-0.003-0.039
							c-0.081-1.57,0.288-3.168,0.422-3.464c0.08-0.179,0.143-0.334,0.189-0.461c1.858,0.836,3.492,4.124,3.158,5.714
							c1.493,0.425,3.093,0.78,4.131,1.021c2.309,0.535,6.419,2.321,8.636,3.21c3.01,1.207,5.857,1.497,7.751,1.172
							c0.001-0.005,0.686-3.868,3.468-5.97c0.563,0.279,1.023,0.509,1.349,0.679c0.252,0.131,0.424,0.226,0.501,0.275
							c0.005,0.003,0.011,0.008,0.016,0.012c0.03,0.02,0.061,0.042,0.092,0.066c0.008,0.006,0.016,0.012,0.023,0.018
							c0.036,0.028,0.072,0.058,0.109,0.09c0.004,0.004,0.009,0.008,0.013,0.012c0.038,0.034,0.076,0.069,0.115,0.108
							c0.005,0.005,0.01,0.01,0.015,0.014c0.041,0.041,0.081,0.084,0.122,0.13c0.001,0.001,0.003,0.003,0.004,0.005
							c0.041,0.046,0.081,0.095,0.121,0.146c0.003,0.004,0.005,0.007,0.008,0.011c0.858,1.111,1.375,3.306-2.255,5.706
							c-4.525,2.991-10.703,0.048-12.769-0.653c-2.065-0.699-5.181-2.035-8.237-2.936c-3.055-0.902-4.633-0.678-6.128-2.314
							c-0.171-0.187-0.311-0.406-0.426-0.645c0,0-0.001,0-0.001,0c-0.002-0.003-0.003-0.008-0.005-0.011
							c-0.031-0.064-0.059-0.13-0.086-0.197C157.85,245.296,157.845,245.284,157.841,245.271z"/>
						<path style="fill:#F1CEBB;" d="M159.261,236.753c3.662,2.715,7.857,1.567,10.222-0.034c-0.764-0.46-1.295-0.826-1.491-1.055
							c0,0-2.241-0.225-4.564,0.886c-1,0.477-3.688-2.879-3.747-1.825C159.647,235.357,159.475,236.077,159.261,236.753z"/>
					</g>
					<g>
						<path style="fill:#D84B18;" d="M125.332,237.557c1.552,3.076,2.806,6.521,3.783,8.666c0.976,2.147,3.23,9.195,8.937,10.548
							c3.108,0.737,4.728,0.036,5.523-0.958c0.665-0.831,0.753-1.869,0.653-2.444c-0.017-0.097-0.07-0.303-0.154-0.599
							c-0.176-0.623-0.486-1.649-0.877-2.927c-1.377-4.505-3.752-12.144-4.737-16.307c-0.315-1.33-0.488-2.306-0.443-2.71
							c0,0-1.482-1.932-4.077-2.941c-1.115-0.435-2.383-0.874-3.467-1.234c-1.436-0.479-2.548-0.817-2.548-0.817
							s-0.313,0.172-0.853,0.356c-0.122,0.042-0.406,0.188-0.777,0.419c-0.635,0.396-1.522,1.039-2.266,1.812
							c-0.491,0.511-0.921,1.08-1.175,1.676c-0.129,0.3-0.21,0.608-0.235,0.917C122.436,233.403,123.781,234.481,125.332,237.557z"
							/>
						<path style="fill:#033030;" d="M137.642,238.464c0.85-0.213,1.616-0.505,1.989-0.9l-0.296-0.278
							c-0.797,0.847-4.105,1.226-5.312,1.301l0.025,0.405C134.167,238.985,136.05,238.863,137.642,238.464z"/>
						<path style="fill:#033030;" d="M138.715,242.439c0.785-0.197,1.511-0.489,1.908-0.924l-0.3-0.274
							c-1.024,1.124-4.848,1.194-4.887,1.195l0.006,0.406C135.549,242.84,137.238,242.809,138.715,242.439z"/>
						<path style="fill:#033030;" d="M139.686,247.011c1.018-0.255,2.081-0.658,2.406-1.263l-0.358-0.192
							c-0.455,0.848-3.189,1.317-4.203,1.426l0.043,0.404C137.769,247.365,138.706,247.257,139.686,247.011z"/>
						<path style="fill:#F1CEBB;" d="M138.459,233.537c-0.315-1.33-0.488-2.306-0.443-2.71c0,0-1.482-1.932-4.077-2.941
							c-1.115-0.435-2.383-0.874-3.467-1.234l-1.878,0.292C129.325,230.31,132.23,235.635,138.459,233.537z"/>
						<path style="fill:#FFD585;" d="M122.619,231.015c0.024-0.309,0.108-0.616,0.236-0.916l-0.001-0.001
							c0.005-0.012,0.012-0.025,0.017-0.037c0.022-0.05,0.045-0.1,0.069-0.15c0.009-0.018,0.017-0.036,0.027-0.054
							c0.034-0.067,0.07-0.134,0.108-0.2c0-0.001,0.001-0.001,0.001-0.001c0.038-0.066,0.078-0.13,0.119-0.195
							c0.011-0.017,0.023-0.035,0.034-0.052c0.033-0.05,0.066-0.099,0.101-0.148c0.012-0.017,0.024-0.034,0.036-0.051
							c0.046-0.064,0.093-0.127,0.142-0.189c0.001-0.001,0.002-0.002,0.003-0.003c0.048-0.061,0.097-0.121,0.146-0.181
							c0.015-0.019,0.031-0.036,0.047-0.055c0.038-0.044,0.076-0.088,0.115-0.132c0.016-0.018,0.032-0.036,0.048-0.054
							c0.053-0.059,0.107-0.117,0.162-0.174c0.744-0.774,1.631-1.416,2.266-1.812c0.788,2.317-1.133,5.621-1.133,5.621l0,0
							c0.816,1.639,1.859,3.394,2.501,4.499c1.288,2.215,2.922,6.777,3.862,9.184c1.52,3.888,3.892,6.632,5.732,7.558
							c0.293-1.79,3.508-3.678,5.7-3.652l0.239,0.025c0.391,1.278,0.701,2.304,0.877,2.927c0.084,0.296,0.137,0.501,0.154,0.599
							c0.006,0.034,0.011,0.07,0.015,0.106c0.001,0.003,0.001,0.007,0.001,0.01c0.004,0.035,0.008,0.072,0.01,0.11
							c0,0.006,0.001,0.011,0.001,0.017c0.002,0.037,0.004,0.076,0.005,0.115c0,0.007,0,0.014,0,0.021
							c0.001,0.039,0.001,0.079,0,0.12c0,0.008-0.001,0.015-0.001,0.022c-0.001,0.042-0.003,0.084-0.006,0.127
							c0,0.006-0.001,0.013-0.001,0.019c-0.003,0.04-0.007,0.081-0.011,0.123c-0.001,0.007-0.001,0.014-0.002,0.022
							c-0.005,0.042-0.011,0.085-0.018,0.129c-0.002,0.012-0.004,0.024-0.006,0.036c-0.007,0.041-0.015,0.083-0.023,0.125
							c-0.003,0.014-0.006,0.029-0.009,0.043c-0.009,0.041-0.019,0.083-0.03,0.124c-0.004,0.015-0.008,0.03-0.012,0.046
							c-0.011,0.042-0.023,0.084-0.037,0.126c-0.005,0.015-0.01,0.029-0.014,0.044c-0.013,0.039-0.026,0.077-0.041,0.116
							c-0.006,0.016-0.013,0.033-0.019,0.049c-0.015,0.038-0.031,0.076-0.047,0.114c-0.006,0.013-0.011,0.026-0.017,0.04
							c-0.02,0.044-0.041,0.087-0.063,0.13c-0.007,0.014-0.014,0.027-0.021,0.041c-0.023,0.044-0.048,0.087-0.073,0.13
							c-0.007,0.012-0.015,0.025-0.022,0.037c-0.027,0.044-0.056,0.089-0.086,0.132c-0.007,0.009-0.013,0.019-0.02,0.028
							c-0.033,0.047-0.067,0.093-0.103,0.138c-0.001,0.001-0.002,0.003-0.003,0.004h0c-0.795,0.994-2.414,1.695-5.523,0.958
							c-5.707-1.353-7.961-8.401-8.937-10.548c-0.977-2.145-2.231-5.59-3.783-8.666
							C123.781,234.481,122.436,233.403,122.619,231.015z"/>
					</g>
					<g>
						<path style="fill:#19303F;" d="M119.173,171.945c2.33,3.507,3.945,3.63,10.992,3.844c7.047,0.214,28.627,0.654,31.455,7.203
							c2.829,6.549-5.613,19.047-9.149,25.475c-3.536,6.428-14.455,22.359-14.455,22.359s-6.177,2.207-10.092-4.993
							c0,0,8.276-25.429,10.169-27.355c0,0-27.658,3.894-36.321,0.919c-8.663-2.976-9.07-9.868-9.444-12.413
							c-0.374-2.546,1.797-16.411,1.797-16.411s9.619-0.7,14.803-0.547C114.112,170.178,119.173,171.945,119.173,171.945z"/>
						<path style="fill:#19303F;" d="M130.676,170.981c9.136,2.288,19.406,1.723,29.201,4.454
							c11.413,3.182,18.37,8.249,11.413,18.069c-5.219,7.366-29.005-1.558-36.135-1.407c-10.926,0.231-30.429-13.049-19.683-18.604
							C126.219,167.937,130.676,170.981,130.676,170.981z"/>
						<path style="fill:#19303F;" d="M158.988,234.729c6.457,5.049,11.542-0.436,11.542-0.436s0.014-0.539,0.073-1.568
							c0.199-3.522,1.577-12.622,2.839-25.851c0.791-8.29,1.828-20.749-0.389-23.608c-0.85-1.095-1.794-2.107-3.118-2.518
							c-2.337-0.722-6.506-1.215-8.932,3.216c-2.559,4.673-3.572,21.622-3.572,21.622c-0.866,2.249,1.053,23.686,1.476,28.278
							C158.958,234.42,158.988,234.729,158.988,234.729z"/>
						<path style="fill:#4D7491;" d="M138.266,198.585c0.039-0.064,3.949-6.398,5.925-8.315l-0.283-0.291
							c-2.012,1.952-5.827,8.131-5.988,8.393L138.266,198.585z"/>
					</g>
					<g>
						<path style="fill:#ED6769;" d="M121.923,115.308c0,0,5.045-0.208,9.704,5.75c4.66,5.958,6.152,10.335,6.152,10.335
							s-5.215,1.307-7.139,2.58c0,0,1.54,4.387,1.2,7.771c-0.34,3.384-5.537,12.745-4.207,19.955
							c1.33,7.209,3.043,9.283,3.043,9.283s-24.985,9.001-37.467,5.003c0,0,3.568-16.368,0.991-31.563
							c-2.171-12.801-4.847-20.011,5.885-27.074C107.566,112.424,121.923,115.308,121.923,115.308z"/>
						
							<rect x="127.316" y="124.184" transform="matrix(0.8155 -0.5788 0.5788 0.8155 -51.467 97.7161)" style="fill:#4D7491;" width="0.406" height="10.784"/>
					</g>
					<g>
						<path style="fill:#F7D0BE;" d="M114.566,141.223c3.08,7.646,8.133,17.507,10.946,19.459
							c2.812,1.951,17.695,4.855,25.012,3.545c7.317-1.31,10.728,0.576,16.568-1.515c4.341-1.555,1.992,2.01,0.161,2.727
							c-1.83,0.718-3.519,0.658-3.519,0.658s2.817,2.298,6.482,1.555c0,0,2.187-1.263,2.319-1.676
							c0.133-0.413,1.881,0.196-1.211,3.141c0,0-0.139,2.406-3.616,3.002c0,0,0.104,1.324-4.47,1.825
							c-0.561,0.062-1.129,0.028-1.68-0.095c-1.768-0.397-6.118-1.325-8.468-1.392c-1.286-0.036-29.094,1.07-33.624-0.702
							c-4.53-1.772-16.774-23.489-16.774-23.489s1.387-3.572,4.686-5.272C110.679,141.293,114.566,141.223,114.566,141.223z"/>
						<path style="fill:#D89877;" d="M169.551,167.96c0.231-0.025,0.466-0.061,0.705-0.109l-0.081-0.398
							c-2.647,0.535-4.864-0.575-5.815-1.17c0.667-0.045,1.783-0.19,2.967-0.655l-0.148-0.378c-1.767,0.693-3.422,0.644-3.438,0.644
							l-0.603-0.021l0.467,0.381C163.716,166.344,166.189,168.322,169.551,167.96z"/>
						<path style="fill:#D89877;" d="M167.979,170.951c0.325-0.035,0.615-0.078,0.836-0.117c0.982-0.176,2.415-1.428,2.476-1.481
							l-0.268-0.305c-0.014,0.012-1.409,1.231-2.279,1.387c-0.885,0.159-2.572,0.305-3.336,0.025l-0.14,0.381
							C165.935,171.085,167.086,171.047,167.979,170.951z"/>
						<path style="fill:#D89877;" d="M165.938,172.591c0.422-0.046,0.928-0.121,1.515-0.226c0.049-0.009,0.081-0.015,0.093-0.016
							l-0.047-0.403c-0.01,0.001-0.051,0.008-0.117,0.02c-1.183,0.212-2.018,0.301-2.48,0.264l-0.032,0.405
							C165.126,172.654,165.484,172.64,165.938,172.591z"/>
					</g>
					<path style="fill:#ED6769;" d="M96.956,141.926c0.74,1.673,3.394,6.484,3.394,6.484c2.98-0.148,14.612-6.583,14.612-6.583
						c-2.202-11.015-6.643-19.433-13.046-19.708c0,0-4.207-0.701-6.348,7.747C94.692,133.323,95.873,139.477,96.956,141.926z"/>
					<path style="fill:#4D7491;" d="M114.763,141.867l0.398-0.079c-2.474-12.374-7.298-19.616-13.237-19.871l-0.018,0.406
						C107.643,122.568,112.329,129.692,114.763,141.867z"/>
					<g>
						<path style="fill:#4D7491;" d="M103.71,144.897c0.073-0.027,7.308-2.768,10.813-6.008l-0.276-0.298
							c-3.446,3.186-10.609,5.899-10.681,5.926L103.71,144.897z"/>
						<path style="fill:#4D7491;" d="M99.403,144.599c0.082-0.027,8.223-2.726,12.609-5.895l-0.238-0.329
							c-4.335,3.132-12.417,5.811-12.498,5.838L99.403,144.599z"/>
						<path style="fill:#4D7491;" d="M130.905,132.167c0.039-0.016,3.895-1.61,6.236-2.217l-0.102-0.393
							c-2.368,0.614-6.25,2.219-6.289,2.235L130.905,132.167z"/>
						<path style="fill:#4D7491;" d="M132.459,130.111c0.02-0.011,2.02-1.05,3.939-1.531c0.018-0.004,0.036-0.009,0.054-0.013
							l-0.097-0.394c-1.986,0.488-4,1.535-4.085,1.579L132.459,130.111z"/>
						<path style="fill:#4D7491;" d="M115.595,120.154c0.852-0.32,1.418-0.858,1.685-1.606l-0.382-0.137
							c-0.268,0.748-0.905,1.253-1.893,1.501c-2.585,0.649-6.732-0.677-8.068-1.886l-0.272,0.301c1.563,1.413,5.85,2.628,8.44,1.978
							C115.277,120.263,115.441,120.212,115.595,120.154z"/>
					</g>
					<path style="fill:#4D7491;" d="M141.713,225.802l-0.398-0.282c0.195-0.275,19.533-27.643,21.584-38.187
						c0.226-1.164-0.057-2.182-0.867-3.114c-5.871-6.751-36.606-5.203-36.916-5.186l-0.026-0.487
						c0.078-0.004,7.884-0.408,16.326,0.04c11.383,0.604,18.443,2.392,20.984,5.313c0.902,1.038,1.232,2.224,0.978,3.527
						C161.307,198.073,141.908,225.526,141.713,225.802z"/>
				</g>
				<g>
					<g>
						<path style="fill:#983F21;" d="M98.124,89.098c-1.821,2.536-3.235,7.053-2.68,9.426c0.555,2.373-6.094,7.592-4.278,12.264
							c1.794,4.616,9.883-14.693,9.716-14.912C100.715,95.657,98.124,89.098,98.124,89.098z"/>
						<path style="fill:#983F21;" d="M120.008,86.924c1.415-1.289,5.922-0.057,7.317,2.444c2.366,4.242,1.37,7.503-0.065,10.723
							c0,0,0.761,3.113,1.311,4.948c0.55,1.835-1.253,4.454-3.681,6.237c-2.428,1.783-0.659,4.405-0.659,4.405
							s-1.355-0.388-4.408-0.592c-3.239-0.216-4.805-0.328-4.805-0.328L120.008,86.924z"/>
					</g>
					<g>
						<path style="fill:#F7D0BE;" d="M106.059,115.392c4.695,3.655,10.148,1.937,10.148,1.937c-0.086-0.795,0.348-5.559,0.348-5.559
							s2.313,0.664,3.273,0.063c0.96-0.602,2.526-1.41,4.181-7.508c0.615-2.261,0.959-4.648,1.054-6.822
							c0.019-0.415,0.029-0.822,0.028-1.219c0.003-3.136-0.551-5.649-1.59-6.394c0,0-4.207-4.72-11.203-1.366
							C108.716,90.239,101.363,111.737,106.059,115.392z"/>
						<path style="fill:#033030;" d="M121.6,107.155c0.012-0.006,0.023-0.011,0.033-0.016l0.013-0.006l-0.185-0.365l-0.018,0.009
							c-0.012,0.006-0.024,0.012-0.037,0.018c-0.683,0.32-2.866,1.06-4.779-1.346l-0.335,0.246
							C118.448,108.409,121.021,107.426,121.6,107.155z"/>
						<path style="fill:#F2AFA5;" d="M112.85,102.975c0.344,0.679,1.195,0.962,1.902,0.631c0.706-0.331,1-1.15,0.656-1.83
							c-0.344-0.679-1.196-0.962-1.902-0.631C112.8,101.476,112.506,102.295,112.85,102.975z"/>
						<path style="fill:#033030;" d="M122.215,105.164c0.024-0.011,0.047-0.023,0.07-0.036c0.273-0.154,0.404-0.399,0.381-0.706
							c-0.026-0.341-0.115-0.796-0.229-1.371c-0.268-1.36-0.636-3.223-0.484-5.238l-0.421-0.029
							c-0.156,2.068,0.218,3.961,0.49,5.343c0.107,0.54,0.198,1.006,0.222,1.325c0.011,0.151-0.042,0.252-0.174,0.327
							c-0.575,0.326-2.139-0.019-2.437-0.205l-0.23,0.34C119.755,105.134,121.418,105.537,122.215,105.164z"/>
						<path style="fill:#033030;" d="M117.061,99.667c0.037,0.613,0.418,1.09,0.851,1.066c0.433-0.024,0.755-0.54,0.718-1.153
							c-0.037-0.612-0.418-1.09-0.851-1.066C117.346,98.539,117.024,99.055,117.061,99.667z"/>
						<path style="fill:#033030;" d="M123.027,99.522c0.031,0.51,0.348,0.908,0.709,0.888c0.361-0.02,0.629-0.45,0.598-0.96
							c-0.03-0.51-0.348-0.908-0.709-0.888C123.265,98.582,122.997,99.012,123.027,99.522z"/>
						<path style="fill:#A9552F;" d="M118.938,96.576c-1.363-0.876-3.869,0.386-3.683,0.943c0.186,0.557,0.831,0.531,1.609,0.167
							c0.778-0.364,1.763-0.175,2.064-0.185C119.346,97.487,119.468,96.917,118.938,96.576z"/>
						<path style="fill:#A9552F;" d="M123.291,97.568c0.263-0.012,1.039-0.22,1.771-0.066c0.019-0.415,0.029-0.822,0.028-1.219
							c-0.669-0.093-1.383-0.024-1.889,0.364C122.701,97.028,122.873,97.588,123.291,97.568z"/>
					</g>
					<path style="fill:#A9552F;" d="M120.06,87.56c-0.536,1.702-5.638,3.406-6.688,3.917c-1.05,0.511-2.11,2.529-1.507,4.878
						c0.603,2.349,1.845,7.07-2.712,9.85c-4.557,2.78-0.432,9.118,0.227,10.011c0.857,1.161-3.774,3.146-6.017,1.644
						c-2.919-1.953-6.559,2.341-8.32,2.177c-1.761-0.163-6.15-4.945-3.721-8.142c0.813-1.07,1.361-1.276,4.068-6.078
						c2.708-4.802-0.074-3.928,1.285-11.918c0.61-3.586,2.898-10.12,8.564-12.158c5.667-2.038,8.36-0.947,8.36-0.947
						s4.817-0.964,7.692,1.24c2.875,2.204,0.964,2.474,3.851,3.591c2.887,1.118,7.568,7.772,4.31,12.677
						c-0.514,0.773-2.193,1.789-2.193,1.789s-0.224-0.584,0.741-4.401c0.964-3.817-1.897-7.35-3.652-8.117
						C122.594,86.807,120.06,87.56,120.06,87.56z"/>
					<g>
						<path style="fill:#983F21;" d="M119.823,85.96c-0.764-2.201-3.065-4.745-5.826-5.126l-0.056,0.402
							c2.601,0.359,4.774,2.77,5.498,4.857L119.823,85.96z"/>
						<path style="fill:#983F21;" d="M110.518,94.163c0.269-0.253,0.119-3.138-1.049-5.416c-0.979-1.91-0.485-3.51,1.511-4.893
							l-0.231-0.334c-2.163,1.498-2.715,3.318-1.641,5.411c1.11,2.164,1.192,4.695,1.095,4.987c0,0,0.009-0.026,0.037-0.053
							L110.518,94.163z"/>
						<path style="fill:#983F21;" d="M101.917,112.041l0.152-0.377c-0.965-0.389-1.682-1.181-1.967-2.173
							c-0.305-1.058-0.081-2.181,0.63-3.161c1.636-2.257,2.537-3.898,1.254-7.66l-0.384,0.131c1.245,3.649,0.356,5.147-1.198,7.29
							c-0.786,1.084-1.031,2.331-0.691,3.512C100.032,110.717,100.836,111.605,101.917,112.041z"/>
					</g>
				</g>
				<g>
					<path style="fill:#F7D0BE;" d="M170.833,133.078c2.062-0.87,4.796-2.473,5.454-1.785c0.658,0.688,0.092,2.108-1.706,2.923
						c-1.798,0.814-2.613,2.918-3.82,3.922c-1.085,0.903-3.127,1.608-3.127,1.608L170.833,133.078z"/>
					<path style="fill:#D89877;" d="M167.704,139.948c0.085-0.029,2.092-0.728,3.195-1.646c0.482-0.402,0.893-0.956,1.328-1.543
						c0.681-0.919,1.385-1.87,2.443-2.349c1.135-0.514,1.909-1.314,2.069-2.142c0.085-0.437-0.02-0.836-0.296-1.124
						c-0.606-0.634-2.24,0.135-4.132,1.025c-0.525,0.247-1.068,0.503-1.561,0.711l0.167,0.395c0.501-0.211,1.047-0.469,1.576-0.718
						c1.446-0.681,3.247-1.528,3.639-1.117c0.227,0.237,0.226,0.537,0.185,0.747c-0.103,0.533-0.637,1.295-1.825,1.833
						c-1.159,0.525-1.93,1.566-2.611,2.484c-0.419,0.566-0.815,1.1-1.258,1.468c-1.042,0.867-3.04,1.563-3.06,1.57L167.704,139.948z
						"/>
				</g>
				<path style="fill:#D89877;" d="M115.997,111.988l0.2-0.437c-3.862-1.767-4.684-4.055-4.692-4.077l-0.455,0.153
					C111.084,107.729,111.927,110.126,115.997,111.988z"/>
			</g>
			<path style="fill:#D6E6ED;" d="M98.781,204.974h12.785c-7.923-1.037-9.657-4.672-10.648-9.605
				c-0.99-4.931-0.688-21.949-2.723-26.218c-3.859-8.094-7.881-5.992-21.9-7.167c4.534,0.516,6.8,2.315,9.114,7.167
				c2.036,4.268,1.734,21.287,2.725,26.218C89.123,200.301,90.856,203.936,98.781,204.974L98.781,204.974z"/>
		</g>
		<g>
			<path style="opacity:0.1;fill:#4D7491;" d="M260.286,110.345c-23.624,0-42.774,10.035-42.774,22.414
				c0,4.827,2.913,9.298,7.867,12.957h0l10.104,22.292l6.852-14.141c0,0,10.06,1.307,17.952,1.307
				c23.624,0,42.774-10.035,42.774-22.414C303.06,120.381,283.91,110.345,260.286,110.345z"/>
			<path style="fill:#4D7491;" d="M235.811,152.804l-0.658-0.408c1.514-2.346,2.267-4.137,2.333-6.126
				c-1.569-0.553-2.965-1.319-4.126-2.287c-2.522-2.102-3.763-5.024-3.589-8.45c0.092-1.796,0.771-3.167,2.018-4.073
				c0.313-0.227,0.656-0.422,1.026-0.587c-0.6-1.017-1.009-2.128-1.208-3.3c-0.341-2.012,0.303-3.672,1.864-4.8
				c1.141-0.825,2.698-1.305,4.477-1.449c0.977-1.249,2.484-2.161,4.488-2.684c5.676-1.483,10.634-0.459,13.96,2.883
				c0.558,0.561,1.057,1.176,1.493,1.832c0.429-0.31,0.893-0.655,1.405-1.036c1.319-0.981,2.96-2.203,5.096-3.626
				c3.209-2.139,6.04-2.871,8.652-2.236c3.257,0.791,5.772,3.639,8.147,7.424c4.43-0.24,7.918,2.319,9.151,6.919
				c1.858,6.935-2.119,15.745-11.992,18.484c-9.092,2.522-16.099,2.393-20.824-0.385c-1.675-0.985-2.973-2.242-3.993-3.631
				c-1.191,0.672-2.439,1.176-3.772,1.457c-4.178,0.884-8.186,0.786-11.506-0.206C238.136,148.556,237.344,150.428,235.811,152.804z
				 M254.187,144.878c0.96,1.288,2.174,2.447,3.737,3.366c4.535,2.665,11.336,2.768,20.213,0.305
				c9.413-2.611,13.214-10.976,11.451-17.555c-0.892-3.329-3.43-6.469-7.946-6.378c0.79,1.306,1.57,2.709,2.36,4.167
				c2.128,3.925,2.224,7.655,0.272,10.502c-1.745,2.544-4.956,4.05-8.868,4.244c-0.305,0.884-0.73,1.712-1.293,2.442
				c-1.186,1.539-3.487,3.226-7.702,2.521c-4.117-0.689-7.199-3.169-9.372-5.76C256.116,143.537,255.169,144.263,254.187,144.878z
				 M257.612,142.222c2.077,2.486,5.018,4.863,8.93,5.518c3.033,0.507,5.436-0.263,6.95-2.229c0.449-0.583,0.804-1.246,1.072-1.96
				c-0.01,0-0.02,0-0.03,0c-0.63,0-1.275-0.033-1.934-0.099c-6.236-0.631-10.214-1.872-12.33-3.868
				C259.391,140.512,258.51,141.402,257.612,142.222z M238.264,145.725c3.231,1.016,7.188,1.13,11.331,0.254
				c1.226-0.259,2.384-0.724,3.495-1.345c-1.085-1.647-1.822-3.441-2.365-5.169c-0.794,0.754-1.684,1.251-2.838,1.356
				c-1.643,0.151-4.185-1.719-6.44-4.423c-1.696-0.255-3.327-0.833-4.795-1.72c-0.436,1.383-0.479,3.226,0.386,5.637
				C237.804,142.447,238.221,144.157,238.264,145.725z M233.237,131.528c-0.36,0.152-0.689,0.333-0.983,0.547
				c-1.066,0.775-1.624,1.919-1.704,3.498c-0.162,3.179,0.984,5.887,3.315,7.83c1.023,0.853,2.243,1.54,3.611,2.053
				c-0.081-1.408-0.479-2.957-1.172-4.887c-0.843-2.35-0.941-4.514-0.317-6.323C234.882,133.476,233.956,132.558,233.237,131.528z
				 M251.334,138.819c0.54,1.832,1.276,3.721,2.41,5.428c0.965-0.602,1.897-1.317,2.811-2.115c-1.866-2.385-2.973-4.753-3.415-5.805
				c-0.009,0.013-0.018,0.027-0.027,0.04C252.497,137.281,251.932,138.12,251.334,138.819z M260.796,139.022
				c1.968,1.877,5.799,3.054,11.884,3.669c0.73,0.074,1.443,0.105,2.134,0.093c0.352-1.257,0.469-2.632,0.392-3.988
				c-3.192,0.425-7.766-0.785-12.234-2.154c-0.111,0.122-0.222,0.244-0.332,0.366C262.021,137.69,261.408,138.364,260.796,139.022z
				 M275.989,138.652c0.091,1.378-0.008,2.785-0.349,4.099c3.541-0.234,6.422-1.608,7.988-3.892
				c1.785-2.602,1.674-6.053-0.313-9.718c-0.854-1.575-1.693-3.083-2.544-4.469c-0.48,0.052-0.981,0.138-1.503,0.263
				c-1.079,0.258-2.103,0.594-3.08,0.997c1.917,1.528,2.989,4.11,3.19,7.695c0.107,1.917-0.422,3.331-1.572,4.204
				C277.298,138.215,276.685,138.483,275.989,138.652z M253.664,135.553c0.136,0.364,1.235,3.202,3.462,6.067
				c0.881-0.807,1.748-1.683,2.613-2.599c-0.121-0.145-0.233-0.293-0.337-0.445c-0.666-0.971-0.98-2.09-0.943-3.34
				c-1.378-0.425-2.672-0.804-3.804-1.076C254.302,134.633,253.975,135.1,253.664,135.553z M242.533,136.516
				c1.975,2.212,4.051,3.651,5.282,3.545c1.075-0.098,1.893-0.62,2.658-1.436c-0.335-1.177-0.589-2.304-0.814-3.311
				c-0.119,0.035-0.237,0.07-0.353,0.104c-0.735,0.217-1.41,0.417-2.007,0.588C245.728,136.458,244.112,136.625,242.533,136.516z
				 M259.23,135.474c0.005,1.001,0.277,1.886,0.818,2.676c0.07,0.102,0.145,0.203,0.224,0.303c0.594-0.638,1.188-1.292,1.786-1.951
				c0.033-0.036,0.066-0.073,0.099-0.109c-0.568-0.176-1.133-0.354-1.691-0.53C260.05,135.731,259.637,135.601,259.23,135.474z
				 M263.543,136.017c4.202,1.275,8.645,2.423,11.599,2.017c-0.17-1.532-0.581-3.006-1.172-4.222
				c-0.827-1.7-3.128-2.289-6.091-2.265C266.364,132.964,264.94,134.488,263.543,136.017z M250.407,135.094
				c0.198,0.885,0.411,1.837,0.672,2.817c0.447-0.572,0.893-1.236,1.384-1.964c0.387-0.575,0.794-1.179,1.241-1.798
				C252.523,134.476,251.411,134.799,250.407,135.094z M268.695,130.802c2.863,0.096,5.084,0.846,5.977,2.681
				c0.614,1.262,1.056,2.794,1.246,4.398c0.545-0.144,1.021-0.358,1.413-0.655c0.949-0.719,1.365-1.883,1.271-3.558
				c-0.199-3.556-1.283-6.036-3.225-7.382C272.889,127.434,270.707,129.013,268.695,130.802z M241.82,135.679
				c1.729,0.224,3.522,0.095,5.261-0.405c0.595-0.171,1.267-0.369,2.001-0.587c0.135-0.04,0.271-0.08,0.409-0.121
				c-0.065-0.288-0.13-0.566-0.194-0.83c-0.08-0.329-0.198-0.641-0.351-0.935c-2.899-0.708-6.173-1.463-9.142-1.773
				c-0.254,0.132-0.499,0.278-0.731,0.436C239.839,132.978,240.8,134.421,241.82,135.679z M259.277,134.688
				c0.468,0.146,0.945,0.296,1.427,0.447c0.659,0.207,1.336,0.42,2.022,0.632c1.268-1.391,2.589-2.816,4.003-4.178
				c-2.152,0.128-4.569,0.53-6.981,1.051c-0.052,0.236-0.113,0.469-0.182,0.701C259.427,133.811,259.33,134.259,259.277,134.688z
				 M236.934,133.949c0.015,0.009,0.029,0.018,0.044,0.027c1.156,0.712,2.423,1.217,3.745,1.51
				c-0.837-1.104-1.612-2.312-2.258-3.557c-0.165,0.142-0.322,0.292-0.469,0.449C237.611,132.791,237.232,133.31,236.934,133.949z
				 M255.654,133.623c0.892,0.236,1.859,0.522,2.872,0.833c0.059-0.429,0.157-0.872,0.293-1.329c0.029-0.1,0.058-0.2,0.084-0.3
				C257.804,133.076,256.712,133.347,255.654,133.623z M249.896,133.035c0.062,0.17,0.115,0.345,0.159,0.524
				c0.061,0.251,0.122,0.514,0.184,0.787c0.728-0.214,1.5-0.439,2.302-0.667c-0.756-0.179-1.555-0.375-2.381-0.579
				C250.073,133.078,249.985,133.057,249.896,133.035z M233.999,131.263c0.616,0.843,1.385,1.602,2.289,2.253
				c0.29-0.601,0.669-1.154,1.137-1.653c0.213-0.228,0.444-0.442,0.69-0.641c-0.052-0.109-0.102-0.218-0.151-0.327
				C236.484,130.842,235.131,130.941,233.999,131.263z M249.464,132.141c0.298,0.073,0.593,0.146,0.886,0.218
				c1.343,0.331,2.614,0.644,3.738,0.888c0.122-0.033,0.245-0.067,0.368-0.1c1.176-1.501,2.638-3.048,4.66-4.46
				c-0.208-1.468-0.702-2.918-1.452-4.231c-3.175,2.188-4.737,2.282-9.986-0.305c-3.077-1.517-6.491-2.226-9.32-2.079
				c-1.06,1.569-1.09,3.462-0.795,5.083c0.18,0.991,0.493,1.996,0.904,2.987c0.399,0.022,0.805,0.054,1.217,0.094
				c1.837-0.88,4.07-1.145,6.085-0.632C247.429,130.029,248.714,130.924,249.464,132.141z M259.206,129.57
				c-1.412,1.035-2.533,2.139-3.473,3.238c1.098-0.285,2.221-0.561,3.349-0.812C259.217,131.202,259.256,130.387,259.206,129.57z
				 M241.301,130.435c2.283,0.329,4.679,0.864,6.967,1.415c-0.661-0.7-1.58-1.221-2.695-1.505
				C244.18,129.99,242.674,130.041,241.301,130.435z M259.941,129.056c0.095,0.926,0.082,1.857-0.045,2.763
				c2.678-0.566,5.343-0.974,7.675-1.023c2.093-1.924,4.394-3.679,7.017-4.971c-2.899-1.409-7.353-0.698-12.598,2.024
				C261.248,128.233,260.568,128.637,259.941,129.056z M237.402,122.159c-1.381,0.178-2.578,0.586-3.468,1.229
				c-1.328,0.96-1.852,2.326-1.558,4.06c0.19,1.12,0.59,2.18,1.177,3.147c1.176-0.375,2.565-0.51,4.077-0.484
				c-0.378-0.947-0.666-1.897-0.834-2.821C236.431,125.285,236.645,123.557,237.402,122.159z M258.297,124.009
				c0.756,1.306,1.275,2.741,1.528,4.204c0.559-0.358,1.157-0.706,1.801-1.04c5.743-2.981,10.457-3.626,13.629-1.866
				c0.066,0.037,0.132,0.075,0.197,0.113c1.147-0.506,2.355-0.923,3.633-1.228c0.42-0.1,0.835-0.177,1.242-0.231
				c-2.218-3.472-4.551-6.055-7.471-6.764c-2.386-0.58-5.012,0.116-8.028,2.127c-2.119,1.412-3.751,2.627-5.063,3.602
				C259.233,123.323,258.748,123.684,258.297,124.009z M239.125,121.278c2.778,0,5.957,0.741,8.901,2.192
				c4.887,2.409,6.195,2.429,9.233,0.332c-0.413-0.625-0.887-1.211-1.419-1.745c-3.121-3.136-7.81-4.087-13.203-2.679
				c-1.649,0.431-2.815,1.099-3.621,1.901C239.052,121.278,239.089,121.278,239.125,121.278z"/>
		</g>
		<g>
			<g>
				<path style="fill:#EC904F;" d="M264.953,242.374l1.24,2.218c0,0,2.536-0.591,5.076-0.975c0.821-0.124,1.642-0.228,2.377-0.282
					c1.208-0.09,2.188-0.048,2.563,0.241c0.335,0.26,0.695,0.538,1.084,0.803c0.546,0.374,1.149,0.722,1.818,0.958
					c0.721,0.255,1.516,0.38,2.401,0.263c0.682-0.09,1.34-0.023,1.977,0.171c1.035,0.317,2.014,0.977,2.943,1.868
					c0.422,0.402,0.833,0.853,1.235,1.34c1.833,2.225,4.386,2.88,3.47-0.59c-0.342-1.29-1.188-2.317-2.242-3.113
					c-0.37-0.278-0.767-0.529-1.174-0.752c-1.536-0.843-3.253-1.295-4.458-1.431c-0.017-0.003-0.032-0.005-0.049-0.007
					c-1.25-0.136-2.726-0.776-4.555-1.4c-1.462-0.499-3.149-0.99-5.128-1.199c-0.342-0.038-0.692-0.067-1.052-0.085
					c-0.682-0.035-1.315-0.025-1.903,0.018C266.813,240.704,264.953,242.374,264.953,242.374z"/>
				<path style="fill:#D84B18;" d="M277.293,244.379c0.546,0.374,1.149,0.722,1.818,0.958c0.062-1.757,1.603-1.483,2.483-1.205
					c0.695,0.219,1.273,0.064,1.669-1.039c-0.017-0.003-0.032-0.005-0.049-0.007c-1.25-0.136-2.726-0.776-4.555-1.4
					C278.732,243.915,277.293,244.379,277.293,244.379z"/>
				<path style="fill:#D84B18;" d="M271.269,243.617c0.821-0.124,1.642-0.228,2.377-0.282c0.211-0.771,0.303-1.849-0.116-2.848
					c-0.342-0.038-0.692-0.067-1.052-0.085c-0.682-0.035-1.315-0.025-1.903,0.018C273.147,242.567,271.269,243.617,271.269,243.617z
					"/>
				<path style="fill:#D84B18;" d="M283.488,245.771c1.035,0.317,2.014,0.977,2.943,1.868c0.221-0.402,0.538-0.789,0.995-1.04
					c1.064-0.585,1.315-0.449,1.467-1.322c-0.37-0.278-0.767-0.529-1.174-0.752c-1,1.689-2.238,0.535-3.811,1.076
					C283.751,245.654,283.612,245.713,283.488,245.771z"/>
			</g>
			<path style="fill:#EC904F;" d="M230.102,247.003c0.365,1.98,1.556,3.778,4.227,4.862c2.925,1.189,6.564,1.111,10.119,0.474
				c0.71-0.126,1.416-0.275,2.113-0.441c2.397-0.57,4.681-1.333,6.591-2.064c0.002,0,0.002,0,0.002,0
				c0.985-0.377,1.871-0.744,2.622-1.07c1.638-0.712,2.639-1.23,2.639-1.23s6.348,14.057,8.113,15.937
				c0.271,0.29,0.501,0.549,0.699,0.782c0.347,0.409,0.603,0.736,0.843,0.995h0.002c0.516,0.56,0.965,0.818,2.096,0.935
				c1.908,0.198,12.669-6.085,14.151-9.74c0.04-0.096,0.074-0.189,0.099-0.282c1.013-3.607-5.336-4.836-8.983-7.808
				c-3.647-2.972-5.336-3.378-7.497-3.85c-0.117-0.025-0.233-0.062-0.352-0.109c-2.072-0.813-4.444-4.709-9.306-6.988
				c-1.062-0.498-1.98-0.893-2.768-1.225c-0.332-0.139-0.642-0.268-0.928-0.389h-0.002c-0.957-0.4-1.672-0.705-2.191-1.024
				c-0.28-0.171-0.503-0.345-0.674-0.54c-0.288-0.325-0.437-0.705-0.476-1.22l-11.796-6.001l-6.653,9.929
				C232.791,236.939,229.26,242.451,230.102,247.003z"/>
			<g>
				<path style="fill:#D84B18;" d="M252.663,238.92c0,0,0.025,0.258,0.181,0.64c0.156,0.382,2.039-0.662,1.761-1.158
					c-0.277-0.496-0.054-1.876,0.905-2.22c-0.332-0.139-0.642-0.268-0.928-0.389h-0.002
					C252.543,236.693,252.663,238.92,252.663,238.92z"/>
				<path style="fill:#D84B18;" d="M240.65,237.407c0.97,2.642,4.49,1.873,4.49,1.873s1.657-1.709,3.545-1.607
					c1.888,0.102,3.392-1.198,3.704-2.903c-0.28-0.171-0.503-0.345-0.674-0.54c-0.023,0.024-0.048,0.049-0.074,0.075
					c-1.481,1.556-2.116,2.015-3.975,2.133c-1.86,0.117-5.944-1.213-6.054-1.139C241.503,235.375,239.682,234.766,240.65,237.407z"
					/>
			</g>
			<g>
				<path style="fill:#D84B18;" d="M253.151,249.834c0.002,0,0.002,0,0.002,0c0.985-0.377,1.871-0.744,2.622-1.07
					c-1.851-1.457-0.729-1.885-0.137-2.714c0.593-0.829,1.439-3.146-1.181-4.507c0,0-0.173-0.248-1.027-0.586
					c-0.854-0.338-0.226,0.761-0.226,0.761s2.096,2.751-0.05,4.672C251.043,248.278,253.077,249.779,253.151,249.834z"/>
				<path style="fill:#D84B18;" d="M244.448,252.339c0.71-0.126,1.416-0.275,2.113-0.441c0,0-0.357-0.492-0.266-1.276
					c0.09-0.784,2.448-3.149,0.774-5.528c0,0-2.88-0.111-1.71,0.956c1.169,1.067,0.042,2.396-0.883,4.13
					C244.079,250.919,244.136,251.692,244.448,252.339z"/>
				<path style="fill:#D84B18;" d="M230.102,247.003c0.365,1.98,1.556,3.778,4.227,4.862c0,0,3.753-1.092,4.388-2.344
					c0.633-1.252,0.169-2.429,0.727-3.689c0,0-0.558-1.491-0.707-0.445c-0.149,1.045-1.501,2.127-3.617,1.705
					C233.006,246.668,230.679,246.16,230.102,247.003z"/>
				<path style="fill:#D84B18;" d="M235.939,241.999c-2.383,1.369-5.396-0.585-5.396-0.585s-2.275-1.895-2.148-2.953
					c0.127-1.058,5.125-1.828,5.125-1.828s2.518,2.504,2.419,2.631C235.84,239.392,235.939,241.999,235.939,241.999z"/>
			</g>
			<g>
				<path style="fill:#D84B18;" d="M267.225,264.253c0.347,0.409,0.603,0.736,0.843,0.995h0.002c1.566-0.687,1.35-3.848,1.863-5.838
					c0.513-1.992,1.756-2.778,5.48-3.605c0,0,2.525-1.488-1.968-1.39c-4.493,0.095-5.644,4.347-5.368,7.185
					C268.354,264.435,267.225,264.253,267.225,264.253z"/>
				<path style="fill:#D84B18;" d="M271.19,252.223c-2.188-0.637-4.26-0.398-4.271,0.382c-0.011,0.78-3.981,0.966-3.518-0.374
					c0.463-1.339,2.294-1.877,2.294-1.877s1.221-0.896,3.761-0.334C271.995,250.581,271.19,252.223,271.19,252.223z"/>
			</g>
			<g>
				<path style="fill:#F7D0BE;" d="M266.527,255.894c-1.136,3.679-2.678,4.407-4.95,6.138c-2.272,1.731-5.797,1.961-7.47,0.358
					c-1.673-1.603-0.05-6.472,2.709-7.825C259.575,253.212,266.527,255.894,266.527,255.894z"/>
				<path style="fill:#F7D0BE;" d="M243.614,251.589c2.597-1.19,11.2-3.337,13.743-3.914c2.543-0.576,7.845,0.56,9.198,4.13
					c1.353,3.571-1.19,7.088-4.436,8.548c-3.246,1.461-18.017,3.896-22.021,4.383c-4.004,0.487-7.286-2.522-6.303-5.843
					C234.777,255.572,243.614,251.589,243.614,251.589z"/>
				<path style="fill:#D89877;" d="M240.116,264.894c3.608-0.439,18.752-2.904,22.067-4.395c1.966-0.885,3.605-2.483,4.382-4.275
					l-0.291-0.127c-0.747,1.721-2.325,3.259-4.221,4.112c-3.138,1.412-17.654,3.844-21.975,4.37L240.116,264.894z"/>
				<path style="fill:#4D7491;" d="M233.701,248.082c0.607,1.452,0.607,2.047,1.905,2.371c1.298,0.325,2.373,2.273,3.837,2.273
					c1.465,0,4.17-1.136,4.17-1.136s-1.731,2.491-1.461,5.249c0.271,2.758,1.839,5.355,1.136,7.736
					c-0.703,2.381-0.974,2.381-0.974,3.192c0,0-2.056-0.379-2.056,0c0,0.379-0.866,0.974-3.679,0.325c0,0-2.668,1.569-5.148,1.082
					c-2.48-0.487-3.021-0.703-5.456-1.515c-2.435-0.812-2.705-2.705-3.3-4.437c-0.595-1.731-3.354-6.979-3.354-6.979
					s1.59-4.328,5.61-6.98C228.952,246.612,233.701,248.082,233.701,248.082z"/>
				<path style="fill:#BADAC1;" d="M218.032,215.31c-3.042,3.417-6.83,7.807-7.518,16.502c-0.689,8.695,2.548,16.614,3.857,18.852
					c1.308,2.238,2.6,2.841,2.772,4.218c0.172,1.377,0.603,2.841,4.304,1.291c3.701-1.549,6.801-3.529,8.694-5.768
					c1.894-2.238,3.561-2.324,3.561-2.324s-2.822-7.748-0.91-10.416c1.912-2.668,6.346-9.297,6.346-9.297s0.903-5.682-0.388-8.78
					c-1.291-3.099-3.219-5.682-3.374-8.006c-0.155-2.324-8.764-4.477-11.863-2.497C220.413,211.066,218.032,215.31,218.032,215.31z"
					/>
				<g>
					<path style="fill:#F7D0BE;" d="M248.589,197.137c0.875,1.481-0.808,3.904-1.952,5.99c-1.144,2.086-2.154,5.452-2.154,5.721
						c0,0.269-1.346,0.539-2.087-0.269c0,0-1.413,2.827-4.106,3.298c-2.692,0.471-3.433-0.875-3.904-0.673
						c-0.471,0.202-1.817,1.077-2.221,2.087c-0.404,1.01-4.24-1.548-4.846-3.365c-0.606-1.817,1.952-11.308,7.74-16.221
						S248.589,197.137,248.589,197.137z"/>
					<path style="fill:#5B3D38;" d="M247.472,201.654c1.857-0.141,3.338-0.385,3.473-3.023c0,0,1.615-3.58-0.606-5.734
						c0,0,0.202-4.241-4.577-8.346c-4.779-4.106-10.029-3.971-11.644-3.634c0,0-3.298-0.942-5.25,2.423c0,0-3.365-0.135-5.25,4.375
						c-1.885,4.51-2.221,4.577-3.971,6.058c-1.75,1.481-3.837,3.702-3.163,7.471c0,0-3.163,1.413-1.75,5.452
						c1.413,4.038,3.971,5.317,3.298,8.615c0,0,4.066-4.442,9.201-2.558c5.135,1.885,2.856,3.837,7.226,4.308
						c0,0-3.305-5.954,0.87-11.779c0,0,2.516-3.682,4.644-4.038c1.638-0.275,2.072-2.073,4.038-1.952
						c2.385,0.146,3.637-0.286,4.814-1.355c0,0,0.122,0.399-0.418,1.881C248,200.937,247.472,201.654,247.472,201.654z"/>
					<path style="fill:#F7D0BE;" d="M239.974,201.243c0.202-2.221-1.885-3.163-3.5-2.288s-2.962,5.587-1.144,6.327
						c0,0,2.019-2.221,3.096-2.962C239.503,201.58,239.974,201.243,239.974,201.243z"/>
					<g>
						<path style="fill:#472A26;" d="M219.277,207.645c0.036-0.057,0.86-1.418,0.001-2.85c-0.327-0.546-0.732-0.917-1.124-1.275
							c-0.622-0.569-1.209-1.107-1.517-2.316l-0.307,0.078c0.332,1.301,0.982,1.896,1.61,2.472c0.392,0.359,0.763,0.699,1.066,1.205
							c0.76,1.267,0.009,2.506,0.001,2.519L219.277,207.645z"/>
						<path style="fill:#472A26;" d="M225.521,191.059c0.972-0.358,2.149-2.122,2.332-3.495c0.028-0.209,0.052-0.415,0.075-0.621
							c0.131-1.143,0.254-2.223,1.074-3.518l-0.268-0.17c-0.859,1.358-0.992,2.524-1.121,3.652
							c-0.023,0.204-0.047,0.408-0.074,0.615c-0.177,1.33-1.349,2.952-2.127,3.239L225.521,191.059z"/>
						<path style="fill:#472A26;" d="M229.648,190.543c0.024-0.035,0.574-0.881,0.481-2.463c-0.1-1.707,0.532-2.974,1.878-3.767
							c0.667-0.393,1.281-0.457,1.93-0.525c0.795-0.083,1.617-0.169,2.503-0.9l-0.202-0.245c-0.813,0.669-1.552,0.747-2.335,0.829
							c-0.655,0.069-1.331,0.139-2.058,0.567c-1.437,0.846-2.141,2.249-2.034,4.059c0.087,1.467-0.424,2.261-0.429,2.269
							L229.648,190.543z"/>
						<path style="fill:#472A26;" d="M235.312,185.699c1.658-0.195,2.821-0.964,4.292-2.835l-0.25-0.196
							c-1.411,1.796-2.517,2.532-4.079,2.716L235.312,185.699z"/>
						<path style="fill:#472A26;" d="M240.13,197.576c0.008-0.016,0.788-1.602,1.954-1.685c0.102-0.007,0.21-0.014,0.323-0.021
							c1.309-0.081,3.287-0.204,3.996-1.755l-0.289-0.132c-0.63,1.378-2.494,1.493-3.727,1.57c-0.114,0.007-0.223,0.014-0.326,0.021
							c-1.35,0.096-2.182,1.791-2.217,1.863L240.13,197.576z"/>
						<path style="fill:#472A26;" d="M245.747,196.297c0.971-0.216,2.898-1.177,3.242-3.268l-0.313-0.052
							c-0.317,1.924-2.099,2.811-2.998,3.01L245.747,196.297z"/>
						<path style="fill:#472A26;" d="M248.96,198.022c0.048-0.076,1.185-1.894,1.459-3.952l-0.315-0.042
							c-0.265,1.987-1.402,3.806-1.413,3.824L248.96,198.022z"/>
						<path style="fill:#472A26;" d="M232.027,209.581c0.025-0.057,0.606-1.425,0.376-3.133l-0.006-0.047
							c-0.228-1.687-0.464-3.431,1.408-5.037l-0.207-0.241c-2.003,1.718-1.745,3.632-1.516,5.321l0.006,0.047
							c0.218,1.616-0.347,2.951-0.352,2.964L232.027,209.581z"/>
						<path style="fill:#472A26;" d="M230.867,212.526l0.301-0.102c-0.009-0.027-0.921-2.774-0.012-4.375l-0.276-0.157
							C229.9,209.618,230.827,212.408,230.867,212.526z"/>
					</g>
					<path style="fill:#033030;" d="M243.18,203.645c-0.258,0.446-0.232,0.943,0.056,1.11c0.289,0.167,0.732-0.06,0.989-0.506
						c0.258-0.446,0.233-0.943-0.056-1.109C243.88,202.973,243.437,203.199,243.18,203.645z"/>
					<g>
						<path style="fill:#033030;" d="M242.485,202.032c0.407-0.753,2.686-0.71,3.531-0.631l0.03-0.316
							c-0.332-0.032-3.261-0.276-3.84,0.796L242.485,202.032z"/>
						<path style="fill:#033030;" d="M243.423,203.298c0.74,0,1.385-0.2,1.641-0.28c0.039-0.012,0.066-0.021,0.08-0.024
							l-0.029-0.127l0.032-0.186c-0.046-0.008-0.071,0-0.178,0.033c-0.325,0.101-1.314,0.408-2.27,0.188l-0.071,0.309
							C242.896,203.274,243.165,203.298,243.423,203.298z"/>
						<path style="fill:#033030;" d="M240.511,208.616l0.072-0.309c-0.068-0.016-1.689-0.388-2.906,0.004l0.097,0.302
							C238.907,208.248,240.495,208.612,240.511,208.616z"/>
					</g>
				</g>
				<path style="fill:#F7D0BE;" d="M237.727,228.541c2.593,4.301,8.057,13.601,6.462,16.442c-1.596,2.841-5.267,1.205-7.591-2.066
					c-2.324-3.271-6.542-8.78-8.35-12.654c-1.808-3.874-0.313-8.006,2.77-8.092C234.1,222.085,236.54,226.573,237.727,228.541z"/>
				<path style="fill:#BADAC1;" d="M239.137,228.368c0,0-3.752-9.132-7.256-12.136c-3.504-3.004-6.671-2.275-9.144,0.828
					c-2.152,2.7,0.603,10.189,2.194,12.299c1.462,1.939,5.661,8.048,5.661,8.048s1.299-2.324,3.867-3.185
					C237.027,233.361,239.137,228.368,239.137,228.368z"/>
				<path style="fill:#FFFFFF;" d="M230.606,237.708l0.125-0.223c0.013-0.023,1.302-2.282,3.779-3.112
					c2.606-0.874,4.686-5.736,4.774-5.942l0.026-0.061l-0.025-0.061c-0.154-0.374-3.806-9.202-7.299-12.196l-0.207,0.241
					c3.285,2.817,6.849,11.209,7.186,12.014c-0.249,0.567-2.235,4.927-4.556,5.705c-2.165,0.726-3.431,2.439-3.824,3.045
					c-0.739-1.073-4.229-6.132-5.527-7.852l-0.254,0.191c1.443,1.914,5.615,7.981,5.657,8.042L230.606,237.708z"/>
				<g>
					<path style="fill:#FFFFFF;" d="M231.565,233.792c0.725-1.128,1.881-2.082,2.944-2.432c1.196-0.393,2.936-1.863,2.873-3.772
						l-0.317,0.011c0.063,1.915-1.797,3.177-2.655,3.459c-1.128,0.371-2.349,1.376-3.111,2.562L231.565,233.792z"/>
					<path style="fill:#FFFFFF;" d="M230.212,234.238c0.002-0.017,0.189-1.754,1.763-2.9c1.651-1.202,2.512-1.892,2.512-3.227
						h-0.317c0,1.184-0.773,1.799-2.382,2.971c-1.693,1.233-1.884,3.049-1.891,3.126L230.212,234.238z"/>
				</g>
				<path style="fill:#F7D0BE;" d="M263.627,241.798c0.307-0.154,0.442-0.515,0.32-0.836c-0.885-2.32-2.729-4.177-3.763-4.415
					c-1.119-0.258-2.583-0.086-3.529,0.861c-0.947,0.947-4.649,1.722-6.542,1.98c-1.894,0.258-4.308-0.452-7.448-0.398
					c-3.14,0.054-6.037,3.196-4.632,5.585c1.405,2.389,5.725,2.045,7.998,1.098c2.274-0.947,2.446-2.841,5.975-3.702
					c3.529-0.861,4.821-0.172,6.37-1.291c1.549-1.119,1.868-1.636,2.728-0.995C261.885,240.265,263.111,242.056,263.627,241.798
					L263.627,241.798z"/>
				<g>
					<path style="fill:#033030;" d="M239,262.383l0.273-0.161c-0.015-0.025-1.473-2.617,0.016-7.939l0.11-0.393l-0.347,0.215
						c-0.091,0.057-2.238,1.412-2.842,3.665l0.307,0.082c0.429-1.599,1.722-2.747,2.352-3.228
						C237.532,259.801,238.938,262.277,239,262.383z"/>
					<path style="fill:#033030;" d="M231.11,261.623c0.684-4.417,5.553-7.217,5.602-7.244l-0.156-0.276
						c-0.05,0.028-5.053,2.904-5.76,7.472L231.11,261.623z"/>
				</g>
				<path style="fill:#D89877;" d="M236.113,201.282c0.626-1.077,1.463-1.124,1.906-1.056c0.709,0.109,0.998,1.014,1.001,1.023
					l0.303-0.093c-0.014-0.045-0.349-1.104-1.256-1.243c-0.422-0.064-1.481-0.077-2.229,1.21L236.113,201.282z"/>
				<path style="fill:#FFFFFF;" d="M217.095,252.671c0.955,0,2-0.308,2.976-0.596c1.1-0.325,2.14-0.632,2.789-0.401l0.106-0.299
					c-0.747-0.265-1.834,0.055-2.986,0.395c-1.782,0.526-3.801,1.122-4.933-0.343l-0.251,0.194
					C215.404,252.407,216.212,252.671,217.095,252.671z"/>
				<path style="fill:#FFFFFF;" d="M219.19,254.238c0.357,0,0.906-0.218,1.674-0.523c1.114-0.443,2.635-1.047,4.004-1.047
					c0.02,0,0.041,0,0.061,0l0.004-0.318c-0.022,0-0.043,0-0.065,0c-1.43,0-2.983,0.617-4.121,1.07
					c-0.716,0.285-1.527,0.607-1.678,0.474c-0.024-0.021-0.037-0.102,0.003-0.261l-0.308-0.078c-0.025,0.1-0.102,0.404,0.096,0.577
					C218.942,254.206,219.052,254.238,219.19,254.238z"/>
			</g>
			<g>
				<g>
					<path style="fill:#D84B18;" d="M259.173,219.088c0,0-0.586-0.873-1.794-1.312c-1.29-0.469-3.247-0.458-4.595,1.145l0.453,1.722
						L259.173,219.088z"/>
					<path style="fill:#EC904F;" d="M253.45,219.495c0,0,3.291-2.311,5.723-0.407c0,0-0.184,3.438-4.513,4.691L253.45,219.495z"/>
					<path style="fill:#D84B18;" d="M254.855,220.704c0-0.211,0.069-0.375,0.211-0.501c0.363-0.324,1.126-0.317,1.39-0.287
						l0.036-0.315c-0.044-0.005-1.095-0.118-1.637,0.366c-0.21,0.188-0.317,0.436-0.317,0.738H254.855z"/>
					<path style="fill:#D84B18;" d="M255.173,221.945c1.2-0.6,1.241-1.146,1.242-1.206l-0.317-0.01c0,0.004-0.05,0.424-1.067,0.932
						L255.173,221.945z"/>
				</g>
				<g>
					<path style="fill:#D84B18;" d="M238.121,216.114c0,0,0.928-0.57,2.254-0.464c1.417,0.113,3.255,0.964,3.835,3.054l-1.168,1.427
						L238.121,216.114z"/>
					<path style="fill:#EC904F;" d="M243.335,218.957c0,0-2.106-3.591-5.214-2.844c0,0-1.305,3.316,2.234,6.358L243.335,218.957z"/>
					<path style="fill:#D84B18;" d="M241.787,219.626c0.129-0.283,0.135-0.562,0.019-0.827c-0.301-0.686-1.337-1.031-1.381-1.045
						l-0.099,0.302c0.009,0.003,0.946,0.316,1.189,0.872c0.079,0.182,0.074,0.367-0.017,0.567L241.787,219.626z"/>
					<path style="fill:#D84B18;" d="M240.664,220.52l0.247-0.199c-0.741-0.917-0.609-1.333-0.607-1.336l-0.29-0.128
						C239.989,218.913,239.794,219.442,240.664,220.52z"/>
				</g>
				<path style="fill:#EC904F;" d="M244.475,234.971c3.762,1.25,7.39-1.221,8.954-4.652c1.563-3.431,1.866-8.909,0-11.209
					c-0.154-0.191-0.317-0.367-0.487-0.529c-0.263-0.253-0.544-0.474-0.839-0.67c-0.007-0.004-0.012-0.008-0.018-0.012
					c-0.285-0.186-0.581-0.348-0.888-0.481v-0.002h-0.002c-0.303-0.139-0.617-0.253-0.935-0.347
					c-0.297-0.087-0.596-0.156-0.898-0.206c-0.424-0.075-0.851-0.117-1.272-0.132c-0.266-0.01-0.529-0.008-0.787,0.002
					c-0.275,0.012-0.543,0.033-0.806,0.065c-0.211,0.023-0.417,0.053-0.618,0.09c-0.256,0.045-0.504,0.099-0.737,0.159
					c-0.236,0.062-0.459,0.129-0.667,0.203v0.002c-0.29,0.102-0.549,0.215-0.772,0.334c-2.025,1.077-4.096,2.93-5.069,7.43
					C237.66,229.513,240.713,233.719,244.475,234.971z"/>
				<path style="fill:#D84B18;" d="M246.484,235.458c1.715,0,3.414-0.687,4.863-2.005l-0.214-0.235
					c-1.944,1.768-4.353,2.352-6.609,1.602c-2.783-0.925-4.638-2.993-5.088-5.674l-0.313,0.053c0.471,2.8,2.403,4.959,5.301,5.923
					C245.103,235.346,245.795,235.458,246.484,235.458z"/>
				<g>
					<path style="fill:#FFFFFF;" d="M250.568,226.501c-0.181,0.618,0.007,1.217,0.419,1.338c0.412,0.12,0.893-0.283,1.073-0.901
						c0.181-0.618-0.007-1.217-0.419-1.337C251.23,225.48,250.749,225.883,250.568,226.501z"/>
					<path style="fill:#033030;" d="M250.699,226.108c-0.113,0.386,0.038,0.771,0.337,0.858c0.299,0.087,0.633-0.155,0.746-0.542
						c0.113-0.387-0.038-0.771-0.337-0.858C251.146,225.479,250.812,225.721,250.699,226.108z"/>
					<path style="fill:#033030;" d="M252.707,226.799l0.275-0.158c-0.026-0.045-0.643-1.104-1.668-1.104v0.317
						C252.153,225.854,252.701,226.789,252.707,226.799z"/>
				</g>
				<g>
					<path style="fill:#FFFFFF;" d="M247.541,225.669c0.027,0.643-0.299,1.18-0.728,1.198c-0.429,0.018-0.799-0.489-0.826-1.133
						s0.299-1.18,0.728-1.197C247.144,224.519,247.514,225.026,247.541,225.669z"/>
					<path style="fill:#033030;" d="M247.509,225.256c0.017,0.402-0.222,0.739-0.533,0.752c-0.311,0.013-0.577-0.303-0.594-0.705
						c-0.017-0.402,0.222-0.739,0.533-0.752C247.226,224.538,247.492,224.853,247.509,225.256z"/>
					<path style="fill:#033030;" d="M245.402,225.435c0.023-0.028,0.582-0.687,1.523-0.567l0.041-0.315
						c-1.122-0.145-1.782,0.647-1.81,0.68L245.402,225.435z"/>
				</g>
				<path style="fill:#D84B18;" d="M242.954,230.65c-0.287,1.72,2.999,3.988,5.359,3.572c2.563-0.451,4.004-2.299,4.066-3.572
					c0.057-1.169-1.205-2.613-3.798-2.833C245.598,227.564,243.335,228.365,242.954,230.65z"/>
				<g>
					<path style="fill:#033030;" d="M249.569,233.149l0.051-0.099l0.124-0.165c-0.019-0.014-0.037-0.023-0.085-0.044
						c-0.676-0.298-1.128-0.702-1.343-1.199l-0.14-0.322l-0.15,0.318c-0.016,0.034-0.414,0.842-1.485,0.979l0.04,0.315
						c0.861-0.111,1.35-0.601,1.576-0.907c0.277,0.455,0.738,0.826,1.374,1.107C249.548,233.139,249.561,233.145,249.569,233.149z"
						/>
					
						<rect x="251.596" y="229.477" transform="matrix(0.9804 -0.1972 0.1972 0.9804 -40.2914 54.5778)" style="fill:#033030;" width="4.705" height="0.318"/>
					<rect x="251.864" y="230.765" style="fill:#033030;" width="3.376" height="0.318"/>
					<path style="fill:#033030;" d="M255.998,233.036l0.082-0.307c-0.036-0.009-3.573-0.95-4.811-1.181l-0.058,0.312
						C252.438,232.089,255.963,233.027,255.998,233.036z"/>
					
						<rect x="241.771" y="224.94" transform="matrix(0.4948 -0.869 0.869 0.4948 -75.5337 325.1981)" style="fill:#033030;" width="0.317" height="5.249"/>
					
						<rect x="242.351" y="228.353" transform="matrix(0.1121 -0.9937 0.9937 0.1121 -12.8591 444.8549)" style="fill:#033030;" width="0.318" height="2.541"/>
					
						<rect x="241.964" y="229.16" transform="matrix(0.0646 -0.9979 0.9979 0.0646 -4.0752 457.7431)" style="fill:#033030;" width="0.317" height="3.77"/>
				</g>
				<path style="fill:#033030;" d="M250.111,228.898c-0.607-0.291-1.779-0.707-3.027-0.364c-0.151,0.042-0.211,0.227-0.114,0.35
					c0.274,0.347,0.723,0.997,0.723,1.525c0,0.788,0.815,1.007,1.193,0.251c0.378-0.756,0.694-0.998,1.01-1.234
					c0.066-0.049,0.142-0.093,0.218-0.13C250.281,229.215,250.279,228.978,250.111,228.898z"/>
				<path style="fill:#033030;" d="M252.228,224.404c0.381,0.22,0.762,0.274,0.851,0.121c0.089-0.154-0.149-0.456-0.53-0.676
					c-0.381-0.22-0.762-0.274-0.851-0.121C251.61,223.88,251.847,224.183,252.228,224.404z"/>
				<path style="fill:#033030;" d="M246.968,223.56c-0.436,0.063-0.81-0.029-0.835-0.204c-0.025-0.175,0.308-0.368,0.744-0.431
					c0.436-0.063,0.81,0.029,0.835,0.204C247.737,223.305,247.404,223.498,246.968,223.56z"/>
				<g>
					<path style="fill:#D84B18;" d="M248.086,218.994c0.459,1.112,0.397,2.518,0.839,2.438c0.442-0.081,0.466-0.555,0.466-0.555
						c-0.251-0.38-0.008-2.53-0.03-4.014c-0.424-0.075-0.851-0.117-1.272-0.132C247.9,217.506,247.859,218.443,248.086,218.994z"/>
					<path style="fill:#D84B18;" d="M246.446,219.798c0.333,1.789,1.354,2.129,1.035,1.466c-0.318-0.665-0.35-1.131-0.35-1.131
						c-0.142-0.915,0.146-2.427,0.171-3.401c-0.275,0.012-0.543,0.033-0.806,0.065C246.322,217.624,246.264,218.82,246.446,219.798z
						"/>
					<path style="fill:#D84B18;" d="M244.723,218.868c0.028,1.161,1.268,2.146,1.162,1.732c-0.104-0.415-0.417-0.957-0.417-0.957
						c-0.283-1.261,0.489-2.355,0.41-2.756c-0.256,0.045-0.504,0.099-0.737,0.159C244.871,217.439,244.706,218.143,244.723,218.868z
						"/>
					<path style="fill:#D84B18;" d="M251.194,217.416h0.002c0.119,0.674,0.173,1.439,0.107,2.114
						c-0.174,1.811-1.161,2.24-0.903,1.55c0.26-0.69,0.25-1.156,0.25-1.156c0.05-0.771-0.233-1.93-0.39-2.855L251.194,217.416z"/>
					<path style="fill:#D84B18;" d="M251.933,220.279c-0.065,0.407,0.999-0.59,1.009-1.699c-0.263-0.253-0.544-0.474-0.839-0.67
						c0.136,0.404,0.231,0.871,0.162,1.38C252.264,219.29,252,219.857,251.933,220.279z"/>
				</g>
			</g>
			<g>
				<path style="fill:#D84B18;" d="M276.274,259.469c0.512-0.53,1.169-0.906,1.898-1.012c2.098-0.307,4.538,0.3,3.859,2.575
					c-0.843,2.825-0.337,2.261,1.265,5.157c1.602,2.895,3.162,4.708-0.379,7.322c-3.541,2.614-7.377,0.548-8.895-1.223
					c-1.518-1.771-4.047-5.2-4.089-6.099c0,0,0.675-0.194,1.349-2.717c0.674-2.523,2.824-2.945,3.878-3.282
					C275.635,260.036,276.008,259.743,276.274,259.469z"/>
				<path style="fill:#D84B18;" d="M277.509,259.214c-0.026-0.264-0.013-0.531,0.025-0.794c0.165-1.126-0.395-1.378,0.281-2.49
					c0.717-1.18,2.421-1.832,4.511-0.801c2.089,1.031,3.457,2.805,6.45,3.341c2.993,0.537,6.155,3.878,4.426,6.318
					c-1.728,2.44-11.454-1.836-12.942-2.282C278.066,261.85,277.599,260.122,277.509,259.214z"/>
				<path style="fill:#EC904F;" d="M281.736,263.111l0.023-0.317c-3.657-0.272-4.059-3.256-4.092-3.595
					c-0.011-0.107-0.048-0.272-0.091-0.464c-0.062-0.276-0.147-0.655-0.127-0.792l-0.314-0.046c-0.026,0.181,0.037,0.49,0.131,0.907
					c0.039,0.174,0.076,0.339,0.084,0.426C277.388,259.596,277.82,262.82,281.736,263.111z"/>
				<path style="fill:#033030;" d="M280.069,270.826l0.297-0.112c-0.349-0.926-0.487-1.802-0.609-2.574
					c-0.099-0.627-0.185-1.168-0.361-1.63c-0.916-2.409-2.167-3.146-2.22-3.176l-0.158,0.275c0.012,0.007,1.21,0.722,2.081,3.014
					c0.164,0.432,0.247,0.958,0.344,1.567C279.568,268.977,279.709,269.869,280.069,270.826z"/>
				<path style="fill:#033030;" d="M278.206,272.101l0.23-0.218c-0.731-0.771-2.857-5.708-2.878-5.757l-0.292,0.125
					C275.354,266.456,277.436,271.289,278.206,272.101z"/>
				<g>
					<path style="fill:#EC904F;" d="M267.181,246.599c0.99,1.464,2.221,3.595,4.009,5.624c0,0,0,0,0,0.002
						c0.228,0.258,0.464,0.514,0.711,0.767c1.288,1.325,2.841,2.561,4.751,3.481c0.266,0.127,0.539,0.25,0.821,0.365
						c3.186,1.31,5.46,0.538,6.843-0.395c0.04-0.096,0.074-0.189,0.099-0.282c0.712-2.531-2.203-3.891-5.266-5.505
						c-0.548-0.288-1.101-0.585-1.638-0.9c-0.739-0.429-1.449-0.891-2.079-1.404c-0.479-0.39-0.923-0.737-1.34-1.044
						c-0.705-0.521-1.329-0.931-1.898-1.26c-1.66-0.963-2.861-1.241-4.259-1.546c-0.117-0.025-0.233-0.062-0.352-0.109
						c-0.238,0.206-0.621,0.627-0.658,1.206C266.873,246.448,267.181,246.599,267.181,246.599z"/>
					<path style="fill:#D84B18;" d="M280.723,257.693c1.595,0,2.823-0.539,3.682-1.118l-0.178-0.263
						c-1.316,0.888-3.546,1.675-6.694,0.38c-0.266-0.109-0.539-0.231-0.813-0.362c-1.712-0.824-3.251-1.952-4.706-3.448
						c-0.235-0.241-0.465-0.49-0.705-0.762l-0.238,0.21c0.243,0.275,0.477,0.528,0.716,0.773c1.481,1.523,3.05,2.673,4.796,3.514
						c0.279,0.134,0.558,0.258,0.829,0.369C278.65,257.494,279.754,257.693,280.723,257.693z"/>
					<path style="fill:#D84B18;" d="M271.071,252.328l0.118-0.104l0.16,0.001v-0.06l-0.04-0.047
						c-1.362-1.546-2.413-3.173-3.257-4.48c-0.261-0.404-0.507-0.785-0.739-1.128l-0.263,0.178c0.23,0.341,0.476,0.721,0.736,1.123
						C268.635,249.126,269.693,250.764,271.071,252.328z"/>
					<path style="fill:#D84B18;" d="M276.606,253.345c0.245,2.777,0.045,3.128,0.045,3.128c0.266,0.127,0.539,0.25,0.821,0.365
						c1.109-1.489,2.391-3.377,1.677-6.182c-0.548-0.288-1.101-0.585-1.638-0.9C277.053,250.383,276.451,251.571,276.606,253.345z"
						/>
					<path style="fill:#D84B18;" d="M271.19,252.223c0,0,0,0,0,0.002c0.228,0.258,0.464,0.514,0.711,0.767
						c1.643-0.665,3.02-2.315,2.191-5.683c-0.705-0.521-1.329-0.931-1.898-1.26c-0.838,0.481-0.553,2.573-0.23,3.741
						C272.289,250.956,271.19,252.223,271.19,252.223z"/>
				</g>
				<path style="fill:#D84B18;" d="M256.424,241.375c0.277,0.795,2.044,1.057,4.335,1.122c2.291,0.065,1.305,3.376-2.347,5.035
					c0,0,2.241,1.197,5.142,1.158c2.901-0.039,5.323-3.378,3.686-5.473c-1.637-2.095-3.253-1.307-4.081-1.537
					c-0.828-0.23-1.643-2.976-2.938-3.207C258.926,238.242,256.424,241.375,256.424,241.375z"/>
				<path style="fill:#033030;" d="M264.233,246.643c0.317,0,0.667-0.028,1.047-0.097l-0.056-0.313
					c-1.764,0.32-2.842-0.314-2.852-0.32l-0.165,0.271C262.245,246.208,262.978,246.643,264.233,246.643z"/>
				<path style="fill:#033030;" d="M264.336,244.628c0.713,0,1.442-0.071,1.488-0.076l-0.031-0.316
					c-0.017,0.002-1.678,0.165-2.394,0.003l-0.07,0.31C263.592,244.609,263.962,244.628,264.336,244.628z"/>
			</g>
		</g>
	</g>
	<g>
		<g>
			<path style="fill:#F2AC66;" d="M419.053,211.449c-0.011,1.345,0.436,4.977,1.11,9.677c1.782,12.402,5.165,32.233,5.982,36.996
				c0.119,0.696,0.737,1.172,1.415,1.092c0.323-0.04,0.941-0.315,1.1-0.698c0.678-1.606-1.525-23.699-2.971-37.391
				c-0.66-6.25-1.163-10.747-1.163-10.747S419.097,206.047,419.053,211.449z"/>
			<path style="fill:#F2AC66;" d="M452.372,211.215c-0.011,1.307,0.41,4.775,1.053,9.284c1.767,12.373,5.212,32.576,6.039,37.389
				c0.119,0.696,0.737,1.172,1.415,1.092c0.323-0.038,0.941-0.314,1.102-0.696c0.713-1.693-1.773-26.149-3.199-39.534
				c-0.546-5.111-0.937-8.606-0.937-8.606S452.417,205.813,452.372,211.215z"/>
			<path style="fill:#F2AC66;" d="M280.151,257.743c0.162,0.382,0.779,0.658,1.102,0.696c0.678,0.079,1.295-0.397,1.415-1.092
				c0.827-4.826,4.288-25.115,6.05-37.479c0.636-4.463,1.051-7.896,1.04-9.194c-0.044-5.402-5.471-1.071-5.471-1.071
				s-0.474,4.242-1.106,10.208C281.735,233.454,279.466,256.116,280.151,257.743z"/>
			<path style="fill:#DB904D;" d="M452.372,211.215c-0.011,1.307,0.41,4.775,1.053,9.284c1.865-0.404,3.656-0.993,5.358-1.749
				c-0.546-5.111-0.937-8.606-0.937-8.606S452.417,205.813,452.372,211.215z"/>
			<path style="fill:#DB904D;" d="M419.053,211.449c-0.011,1.345,0.436,4.977,1.11,9.677h5.527
				c-0.66-6.25-1.163-10.747-1.163-10.747S419.097,206.047,419.053,211.449z"/>
			<path style="fill:#DB904D;" d="M283.181,219.812c0.592,0.036,1.189,0.056,1.791,0.056h3.746c0.636-4.463,1.051-7.896,1.04-9.194
				c-0.044-5.402-5.471-1.071-5.471-1.071S283.813,213.845,283.181,219.812z"/>
		</g>
		<path style="fill:#4D7491;" d="M303.484,172.567v42.885h142.414c13.743,0,24.885-10.932,24.885-24.415v-48.051
			c0-6.05-4.115-11.155-9.748-12.771c-1.21-0.348-2.489-0.533-3.813-0.533l-125.114,0.133l-6.891,0.026
			c-4.284,0.016-8.099,3.012-9.537,6.971L303.484,172.567z"/>
		<path style="fill:#4D7491;" d="M266.3,172.665v18.372c0,13.484,11.141,24.415,24.885,24.415h142.414v-42.885l-12.195-35.755
			c-1.439-3.959-5.253-6.608-9.537-6.625l-86.326-0.331c-4.483-0.017-8.471,2.79-9.891,6.962l-9.146,26.875
			c-1.805,5.303-6.857,8.883-12.554,8.899L266.3,172.665z"/>
		<path style="fill:#D6E6ED;" d="M452.613,172.813c5.196,0,9.029-3.282,11.394-9.755c2.175-5.954,2.285-12.493,2.285-13.743
			c0-0.819,0.036-1.732,0.075-2.698c0.215-5.391,0.51-12.775-5.195-16.444l-0.275,0.412c5.468,3.516,5.18,10.739,4.969,16.013
			c-0.039,0.971-0.075,1.888-0.075,2.717c0,0.939-0.15,23.005-13.178,23.005V172.813z"/>
		<path style="fill:#D6E6ED;" d="M427.501,215.452h-13.594c8.425-1.033,10.268-4.65,11.322-9.559
			c1.052-4.908,0.731-21.845,2.896-26.093c4.104-8.056,8.38-5.963,23.287-7.133c-4.821,0.514-7.23,2.304-9.691,7.133
			c-2.165,4.248-1.844,21.185-2.897,26.093C437.771,210.802,435.927,214.42,427.501,215.452L427.501,215.452z"/>
		<path style="fill:#D6E6ED;" d="M289.89,215.452c-8.426-1.033-10.27-4.65-11.322-9.559c-1.054-4.908-0.733-21.845-2.897-26.093
			c-2.461-4.829-4.548-6.621-9.37-7.135c14.907,1.17,18.862-0.921,22.966,7.135c2.165,4.248,1.844,21.185,2.896,26.093
			c1.054,4.909,2.897,8.527,11.322,9.559H289.89L289.89,215.452z"/>
		<rect x="294.474" y="199.1" style="fill:#D6E6ED;" width="130.226" height="0.492"/>
		<rect x="323.049" y="186.548" style="fill:#D6E6ED;" width="98.056" height="0.499"/>
	</g>
	<g>
		<path style="fill:#CC975E;" d="M383.524,152.385c0,0,1.168,3.692,0.714,10.185c-0.454,6.493-1.394,20.437-5.725,23.458
			c-4.331,3.021,1.184-23.649,1.184-23.649s0.932-7.829,1.731-8.593C382.226,153.021,383.524,152.385,383.524,152.385z"/>
		<path style="fill:#E2BA6E;" d="M383.524,152.385c-2.4,2.934-1.179,10.44-3.479,18.604c-2.299,8.164-0.766,13.75-1.533,15.039
			c-0.766,1.289-7.336,0.752-14.671,1.826c-7.336,1.074-20.256-1.182-20.256-1.182s0,0,0-7.842c0-7.842,3.066-22.237,5.462-26.212
			c0,0,6.514-1.125,17.803-1.38C378.139,150.985,383.524,152.385,383.524,152.385z"/>
		<path style="fill:#CC975E;" d="M378.029,186.546c-6.177-1.72-13.544-10.145-18.635-16.911
			c-5.808-7.717-10.177-15.332-10.518-16.982l0.343-0.068c0.339,1.639,4.879,9.436,10.457,16.847
			c4.142,5.503,12.046,15.002,18.449,16.784L378.029,186.546z"/>
		<path style="fill:#CC975E;" d="M380.04,171.676l-0.339-0.084c-0.011,0.043,0.001,0.073,0.001,0.074
			c-0.078-0.195-1.201-1.455-2.5-2.915c-4.331-4.864-12.393-13.919-12.733-17.433l0.348-0.032c0.33,3.404,8.343,12.404,12.649,17.24
			C379.945,171.311,380.086,171.498,380.04,171.676z"/>
		<path style="fill:#CC975E;" d="M343.704,181.537l-0.237-0.253c4.725-4.258,24.98-24.288,27.308-30.139l0.326,0.125
			C368.753,157.172,348.441,177.269,343.704,181.537z"/>
		<path style="fill:#CC975E;" d="M357.104,188.385l-0.115-0.127c-0.097-0.106-9.718-10.698-12.993-16.542l0.306-0.165
			c3.062,5.462,11.725,15.125,12.832,16.35c5.193-4.644,24.896-32.701,25.096-32.986l0.288,0.195
			c-0.202,0.288-20.264,28.856-25.283,33.163L357.104,188.385z"/>
		<polygon style="fill:#CC975E;" points="346.274,161.165 346.035,160.914 356.095,151.666 356.334,151.917 		"/>
		<g>
			<path style="fill:#FEF2E7;" d="M351.77,156.633c0,0.436-0.361,0.79-0.805,0.79c-0.445,0-0.805-0.354-0.805-0.79
				s0.361-0.79,0.805-0.79C351.41,155.843,351.77,156.196,351.77,156.633z"/>
			<path style="fill:#FEF2E7;" d="M368.207,156.633c0,0.436-0.361,0.79-0.805,0.79c-0.445,0-0.805-0.354-0.805-0.79
				s0.361-0.79,0.805-0.79C367.847,155.843,368.207,156.196,368.207,156.633z"/>
			<path style="fill:#FEF2E7;" d="M375.592,165.753c0,0.436-0.361,0.79-0.805,0.79c-0.445,0-0.805-0.354-0.805-0.79
				c0-0.436,0.361-0.79,0.805-0.79C375.231,164.962,375.592,165.316,375.592,165.753z"/>
			<path style="fill:#FEF2E7;" d="M358.65,167.333c0,0.436-0.361,0.79-0.805,0.79c-0.445,0-0.805-0.354-0.805-0.79
				c0-0.436,0.361-0.79,0.805-0.79C358.289,166.543,358.65,166.896,358.65,167.333z"/>
			<path style="fill:#FEF2E7;" d="M348.777,177.242c0,0.436-0.361,0.79-0.805,0.79c-0.445,0-0.805-0.354-0.805-0.79
				c0-0.437,0.36-0.79,0.805-0.79C348.417,176.452,348.777,176.806,348.777,177.242z"/>
			<path style="fill:#FEF2E7;" d="M366.947,177.5c0,0.436-0.361,0.79-0.805,0.79c-0.445,0-0.805-0.354-0.805-0.79
				c0-0.436,0.361-0.79,0.805-0.79C366.586,176.71,366.947,177.064,366.947,177.5z"/>
			<path style="fill:#FEF2E7;" d="M358.067,187.908c0,0.436-0.361,0.79-0.805,0.79s-0.805-0.354-0.805-0.79
				c0-0.436,0.361-0.79,0.805-0.79S358.067,187.471,358.067,187.908z"/>
		</g>
	</g>
	<g>
		<path style="fill:#5B8E64;" d="M363.587,165.62c0.787,0.622,1.265,1.667,0.303,5.872c-0.962,4.206-1.973,8.331-2.73,12.477
			c-1.506,8.249-3.275,8.177-3.275,8.177s-3.306-0.76-3.115-4.375c0.191-3.615,1.114-8.664,2.339-11.176
			c1.225-2.512,3.54-6.955,3.932-8.293C361.434,166.964,363.587,165.62,363.587,165.62z"/>
		<g>
			<defs>
				<path id="SVGID_1_" d="M329.234,164.218c-0.517,3.571-3.589,9.102-6.68,15.082c-3.091,5.98-1.45,12.602-1.45,12.602
					s0.225,1.176,15.897,0.649c15.673-0.527,20.884-0.404,20.884-0.404s-3.655-4.459-0.324-11.776
					c3.331-7.317,6.025-14.75,6.025-14.75s-5.114-2.421-13.297-1.531C342.106,164.98,329.234,164.218,329.234,164.218z"/>
			</defs>
			<use xlink:href="#SVGID_1_"  style="overflow:visible;fill:#6DA077;"/>
			<clipPath id="SVGID_00000015354591781815051460000013381985765845026958_">
				<use xlink:href="#SVGID_1_"  style="overflow:visible;"/>
			</clipPath>
			<g style="clip-path:url(#SVGID_00000015354591781815051460000013381985765845026958_);">
				<polygon style="fill:#FEF2E7;" points="320.642,192.737 320.498,192.425 326.636,189.693 322.402,184.272 328.741,181.452 
					324.508,176.031 330.847,173.21 326.613,167.79 332.952,164.969 328.852,159.719 329.13,159.511 333.497,165.103 
					327.158,167.924 331.392,173.344 325.053,176.165 329.287,181.586 322.948,184.406 327.182,189.827 				"/>
				<polygon style="fill:#FEF2E7;" points="326.064,193.228 325.919,192.916 332.058,190.184 327.824,184.764 334.163,181.943 
					329.929,176.522 336.268,173.701 332.034,168.28 338.373,165.46 334.274,160.21 334.551,160.002 338.919,165.594 
					332.58,168.415 336.813,173.835 330.474,176.656 334.708,182.077 328.369,184.898 332.603,190.318 				"/>
				<polygon style="fill:#FEF2E7;" points="331.857,194.106 331.712,193.794 337.851,191.062 333.617,185.642 339.956,182.821 
					335.722,177.4 342.061,174.579 337.828,169.158 344.167,166.338 340.067,161.089 340.344,160.88 344.712,166.472 
					338.373,169.293 342.607,174.713 336.268,177.534 340.501,182.955 334.162,185.776 338.396,191.196 				"/>
				<polygon style="fill:#FEF2E7;" points="337.278,194.597 337.134,194.285 343.272,191.553 339.038,186.133 345.377,183.312 
					341.144,177.891 347.483,175.07 343.249,169.65 349.588,166.829 345.488,161.58 345.766,161.371 350.133,166.963 
					343.794,169.784 348.028,175.204 341.689,178.025 345.923,183.446 339.584,186.267 343.817,191.687 				"/>
				<polygon style="fill:#FEF2E7;" points="343.074,195.509 342.93,195.196 349.068,192.465 344.834,187.044 351.173,184.223 
					346.94,178.803 353.279,175.982 349.045,170.561 355.384,167.74 351.284,162.491 351.562,162.282 355.929,167.874 
					349.59,170.695 353.824,176.116 347.485,178.937 351.719,184.357 345.38,187.178 349.613,192.599 				"/>
				<polygon style="fill:#FEF2E7;" points="348.495,196 348.351,195.687 354.49,192.956 350.256,187.535 356.595,184.714 
					352.361,179.294 358.7,176.473 354.466,171.052 360.805,168.231 356.706,162.982 356.983,162.773 361.35,168.365 
					355.012,171.186 359.245,176.607 352.906,179.428 357.14,184.848 350.801,187.669 355.035,193.09 				"/>
			</g>
		</g>
	</g>
	<g>
		<rect x="314.979" y="267.858" style="fill:#BADAC1;" width="7.672" height="8.962"/>
		<rect x="316.542" y="258.896" style="fill:#4D7491;" width="7.672" height="8.962"/>
		<rect x="315.484" y="249.934" style="fill:#ED6769;" width="7.672" height="8.962"/>
		<rect x="333.784" y="267.858" style="fill:#4D7491;" width="7.672" height="8.962"/>
		<rect x="334.709" y="258.799" style="fill:#ED6769;" width="7.672" height="8.962"/>
		<rect x="336.384" y="249.837" style="fill:#E2BA6E;" width="7.672" height="8.962"/>
		<rect x="301.552" y="269.019" style="fill:#81AEC6;" width="7.672" height="8.962"/>
		<path style="fill:#4D7491;" d="M317.619,240.324v9.514h6.232v-2.536c0-1.882,1.555-3.407,3.473-3.407h1.684
			c1.918,0,3.473,1.525,3.473,3.407v2.536h6.232v-9.514H317.619z"/>
		<polygon style="fill:#ED6769;" points="299.796,269.023 305.068,258.979 310.979,269.023 		"/>
		<polygon style="fill:#86BF8E;" points="322.342,240.311 327.613,230.267 333.525,240.311 		"/>
		<polygon style="fill:#E2BA6E;" points="336.789,279.369 342.06,269.325 347.972,279.369 		"/>
		<g>
			<path style="fill:#ED9D56;" d="M361.936,247.642c0,0-3.656-0.063-4.243,0.464c-0.587,0.527-1.727,2.764-2.633,5.759
				c-0.906,2.995-0.922,3.752-1.308,4.278s-1.04,1.283-1.04,1.283l1.845,0.79c0,0-0.656-1.55-0.017-3.044
				c0.76-1.777,1.361-4.389,2.542-5.683C358.264,250.195,361.936,247.642,361.936,247.642z"/>
			<path style="fill:#FCC97E;" d="M358.596,270.956c-0.013-0.385-0.02-0.774-0.02-1.169c0-1.056,0.048-2.081,0.139-3.063
				c0.157-1.706,0.443-3.279,0.829-4.643c0.89-3.153,2.315-5.194,3.919-5.194c0.559,0,1.095,0.247,1.594,0.702
				c0.83,0.755,1.558,2.083,2.117,3.804c0.733,2.256,1.176,5.189,1.176,8.395c0,0.394-0.007,0.783-0.02,1.169
				c-0.027,0.802-0.082,1.583-0.163,2.337h3.458l-0.182-2.337c0,0-0.094-1.065-0.241-2.758c-0.093-1.068-0.206-2.386-0.329-3.845
				v-0.001c-0.328-3.878-0.726-8.745-0.991-12.526h-0.001c-0.116-1.667-0.208-3.123-0.255-4.19
				c-0.023-0.498-0.036-0.987-0.038-1.501c-0.004-1.691,0.137-3.646,0.617-7.038c0.056-0.391,0.112-0.766,0.169-1.125
				c0.504-3.175,1.052-5.121,1.419-6.185c0.255-0.742,0.422-1.054,0.422-1.054l-5.022-0.373V242.7c0,0.842-0.215,1.634-0.594,2.328
				c-0.235,0.43-0.532,0.821-0.88,1.163c-0.91,0.894-2.168,1.446-3.558,1.446c-0.423,0-0.835,0.049-1.231,0.143
				c-1.87,0.442-3.361,1.867-3.848,3.709c-0.077,0.292-0.129,0.593-0.153,0.904l-0.214,2.739l-0.348,4.465l-0.886,11.36
				l-0.182,2.337h3.458C358.678,272.539,358.623,271.758,358.596,270.956z"/>
			<path style="fill:#ED9D56;" d="M368.33,270.956c-0.027,0.802-0.082,1.583-0.163,2.337h3.458l-0.182-2.337H368.33z"/>
			<path style="fill:#ED9D56;" d="M355.301,273.293h3.458c-0.081-0.754-0.135-1.535-0.163-2.337h-3.113L355.301,273.293z"/>
			<polygon style="fill:#ED9D56;" points="370.409,225.428 370.956,225.256 370.185,222.898 369.638,223.07 			"/>
			<ellipse style="fill:#ED9D56;" cx="369.802" cy="222.649" rx="0.602" ry="0.591"/>
			<path style="fill:#FCC97E;" d="M366.384,228.07c0.904,0.56,1.496-0.002,1.872-0.777c0.445-0.918,0.587-2.136,0.587-2.136
				s-1.249-1.006-2.554-1.29c-0.402-0.088-0.81-0.106-1.187-0.006C365.103,223.862,364.408,226.845,366.384,228.07z"/>
			<path style="fill:#ED9D56;" d="M366.914,226.894c0.362,0.244,0.848,0.358,1.342,0.399c0.445-0.918,0.587-2.136,0.587-2.136
				s-1.249-1.006-2.554-1.29C366.29,223.868,365.78,226.128,366.914,226.894z"/>
			<path style="fill:#FCC97E;" d="M366.302,228.96c0.199,1.783,2.541,2.62,5.452,2.306c2.911-0.313,4.752-3.444,4.434-4.531
				c-0.346-1.185-2.079-0.919-4.814-1.768C368.496,224.075,366.102,227.177,366.302,228.96z"/>
			<ellipse style="fill:#ED9D56;" cx="373.383" cy="226.778" rx="0.299" ry="0.386"/>
			<path style="fill:#ED9D56;" d="M373.801,229.363c0.252,0,0.465-0.059,0.596-0.095c0.042-0.012,0.079-0.022,0.103-0.027
				l-0.065-0.318c-0.037,0.007-0.079,0.019-0.128,0.033c-0.363,0.1-1.037,0.287-1.598-0.623l-0.283,0.168
				C372.858,229.2,373.383,229.363,373.801,229.363z"/>
			<path style="fill:#ED9D56;" d="M370.375,237.973c0.504-3.175,1.052-5.121,1.419-6.185c-1.108,1.076-2.248,0.383-2.356,2.674
				C369.329,236.753,368.653,237.647,370.375,237.973z"/>
			<path style="fill:#ED9D56;" d="M366.599,245.028c0.413,0.263,0.776,0.353,0.937,0.036c0.488-0.959,0.108-1.119,1.032-2.504
				c0.923-1.385-0.272-2.557-0.401-2.983c-0.116-0.385-0.183-1.988-0.975-2.451v5.574
				C367.193,243.542,366.978,244.334,366.599,245.028z"/>
			<path style="fill:#ED9D56;" d="M366.559,248.687c0,0.905,0.72,1.492,1.609,1.385c0.889-0.106,0.368,2.072,1.714,1.756
				c-0.116-1.667-0.208-3.123-0.255-4.19c-0.023-0.498-0.036-0.987-0.038-1.501c-0.55-0.385-1.131-0.413-1.421,0.632
				C367.754,248.26,366.559,247.781,366.559,248.687z"/>
			<path style="fill:#ED9D56;" d="M364.061,249.539c0.948,0.284,1.585,0.589,1.553,1.786c-0.032,1.197,0.035,1.966-1.856,1.517
				c-1.229-0.292-1.401,1.511-2.357,0.162c-0.688-0.97,0.108-1.867,0.869-2.293C363.03,250.285,363.285,249.306,364.061,249.539z"/>
			<path style="fill:#ED9D56;" d="M357.083,251.488c0,0,2.052,0.648,2.052-0.281c0-0.929,0.553-0.904,1.579-1.136
				c0.863-0.195,0.888-1.358,0.217-2.291C359.06,248.221,357.569,249.647,357.083,251.488z"/>
			<path style="fill:#ED9D56;" d="M356.368,259.596c0.865-0.08,0.661-1.186,1.372-1.16c0.711,0.026,1.079-1.136,0.684-1.73
				c-0.395-0.594,0.526-0.646,0.816-1.575c0.289-0.929-1.658-1.213-2.524,0L356.368,259.596z"/>
			<path style="fill:#ED9D56;" d="M365.057,257.589c0.83,0.755,1.558,2.083,2.117,3.804c0.376-0.147,0.729-0.4,0.881-0.839
				c0.395-1.136-1.263-2.349-0.5-2.965c0.763-0.615,1.395-1.399,0.158-2.328C366.476,254.331,365.16,255.648,365.057,257.589z"/>
			<path style="fill:#ED9D56;" d="M358.715,266.724c0.157-1.706,0.443-3.279,0.829-4.643c-1.146-0.727-2.172-0.107-1.646,0.822
				c0.526,0.929,0.188,1.265-0.235,2.014C357.24,265.666,357.9,266.879,358.715,266.724z"/>
			<path style="fill:#ED9D56;" d="M368.765,266.738c0.316,0.735,1.421,0.012,1.448,0.813s0.989,0.648,0.989,0.648l0.001-0.001
				c-0.093-1.068-0.206-2.386-0.329-3.845v-0.001h-0.001c-1.265-1.192-2.291-0.702-1.712,0.46
				C369.739,265.975,368.45,266.002,368.765,266.738z"/>
		</g>
	</g>
	<g>
		<g>
			<g>
				<path style="fill:#6DA077;" d="M44.151,237.869c1.848-7.138,7.438-14.008,15.336-18.846c7.314-4.48,15.025-6.225,20.126-4.553
					l0.1-0.483c-5.187-1.7-13.004,0.057-20.399,4.587c-7.995,4.898-13.659,11.874-15.54,19.14L44.151,237.869z"/>
				<path style="fill:#6DA077;" d="M40.767,237.448c3.198-26.422,26.483-47.241,38.069-50.992l-0.099-0.483
					c-11.674,3.779-35.138,24.764-38.362,51.4L40.767,237.448z"/>
				<path style="fill:#6DA077;" d="M38.53,238.838c0.421-7.655,3.962-23.65,9.021-40.749c5.215-17.628,10.715-31.961,14.353-37.404
					l-0.304-0.321c-3.665,5.484-9.191,19.873-14.421,37.551c-5.071,17.14-8.621,33.189-9.044,40.888L38.53,238.838z"/>
				<path style="fill:#6DA077;" d="M40.769,237.426c0.005-0.091,0.454-9.365,0.793-36.604c0.34-27.291-3.445-37.576-3.483-37.676
					l-0.358,0.215c0.038,0.1,3.782,10.306,3.444,37.454c-0.339,27.223-0.788,36.49-0.793,36.581L40.769,237.426z"/>
				<path style="fill:#6DA077;" d="M38.099,230.71c0.243-12.308-1.688-29.06-5.04-43.718c-3.589-15.697-8.136-26.461-12.476-29.532
					l-0.195,0.435c4.25,3.007,8.729,13.663,12.29,29.235c3.341,14.613,5.266,31.308,5.024,43.568L38.099,230.71z"/>
				<path style="fill:#6DA077;" d="M41.11,233.361c0.002-0.059,0.242-5.943,1.746-13.572c1.386-7.03,4.16-17.023,9.506-24.703
					l-0.299-0.328c-5.4,7.758-8.198,17.835-9.595,24.922c-1.512,7.674-1.753,13.598-1.755,13.657L41.11,233.361z"/>
			</g>
			<g>
				<path style="fill:#5F8E67;" d="M38.342,166.947c2.385-14.114,15.535-18.636,20.812-10.03c0,0-6.562-2.113-11.361,0.54
					c-4.798,2.654-7.24,4.92-9.378,9.53L38.342,166.947z"/>
				<path style="fill:#5F8E67;" d="M18.387,142.066c7.771,0.003,10.611,13.67,6.063,21.095c0,0,0.968-7.634-0.616-12.434
					c-1.584-4.8-2.89-7.072-5.467-8.573L18.387,142.066z"/>
				<g>
					<path style="fill:#5F8E67;" d="M41.042,199.923c2.475-12.711,14.498-16.35,19.091-8.363c0,0-5.902-2.146-10.311,0.092
						c-4.409,2.238-6.673,4.207-8.714,8.311L41.042,199.923z"/>
					<path style="fill:#5F8E67;" d="M42.036,194.026c-0.856-11.42,11.741-19.006,19.295-11.029c0,0-7.655-1.083-12.023,1.727
						c-4.368,2.81-6.05,5.384-7.186,9.322L42.036,194.026z"/>
					<path style="fill:#5F8E67;" d="M56.503,176.284c-2.192-2.618-7.484-2.354-10.122,0.494c-2.639,2.849-2.474,6.39-1.529,8.016
						c0,0,0.323-3.342,2.378-5.467c2.552-2.639,4.314-2.551,5.66-2.841C54.237,176.197,56.503,176.284,56.503,176.284z"/>
					<path style="fill:#5F8E67;" d="M41.489,197.686c-3.871-1.1-6.572-5.763-4.163-12.436c2.409-6.673,7.718-4.438,7.718-4.438
						s-4.48,1.216-5.057,5.82c-0.577,4.604,0.131,6.529,0.78,8.416C41.418,196.935,41.489,197.686,41.489,197.686z"/>
					<path style="fill:#5F8E67;" d="M43.324,188.813c-2.951-3.76-4.554-19.36,9.42-22.392c0,0-6.116,2.852-8.062,9.672
						c-1.946,6.82-0.983,11.526-0.983,11.526L43.324,188.813z"/>
				</g>
			</g>
			<g>
				<path style="fill:#6DA077;" d="M68.386,214.685c7.603-2.02,12.634,10.612,9.408,19.06c0,0-0.311-7.721-2.651-12.004
					c-2.341-4.284-3.993-6.167-6.761-6.964L68.386,214.685z"/>
				<path style="fill:#6DA077;" d="M69.828,214.787c7.931-5.807,18.776,4.753,16.181,16.427c0,0-2.456-8.845-6.346-12.43
					c-3.89-3.585-6.473-4.33-9.813-3.895L69.828,214.787z"/>
				<path style="fill:#6DA077;" d="M77.684,214.469c2.452-2.838,8.283-2.431,11.151,0.768c2.869,3.198,2.638,7.099,1.573,8.87
					c0,0-0.309-3.691-2.545-6.079c-2.776-2.966-4.72-2.907-6.2-3.257C80.183,214.423,77.684,214.469,77.684,214.469z"/>
				<path style="fill:#6DA077;" d="M69.828,214.331c0.684-5.432,4.571-9.503,10.586-6.653c6.015,2.849,4.442,10.351,4.442,10.351
					s-1.388-6.106-5.46-6.571c-4.072-0.465-5.706,0.652-7.311,1.687C70.481,214.178,69.828,214.331,69.828,214.331z"/>
				<path style="fill:#6DA077;" d="M66.327,193.72c10.046-6.984,21.381,2.538,19.666,13.187c0,0-3.029-7.615-7.768-10.432
					c-4.739-2.816-7.702-3.65-11.874-2.659L66.327,193.72z"/>
				<path style="fill:#6DA077;" d="M70.872,190.322c6.723-9.41,21.033-2.254,21.537,11.402c0,0-5.026-8.605-10.103-10.951
					c-5.077-2.347-7.995-2.135-11.383-0.348L70.872,190.322z"/>
				<path style="fill:#6DA077;" d="M93.127,191.789c0.05-4.189-4.077-9.381-7.886-9.938c-3.809-0.557-5.969,2.259-6.311,4.437
					c0,0,2.396-2.17,5.303-1.666c3.61,0.625,4.87,2.485,6.064,3.64C91.49,189.417,93.127,191.789,93.127,191.789z"/>
				<path style="fill:#6DA077;" d="M68.103,192.502c-2.185-4.765-1.198-11.001,4.905-13.537c6.104-2.536,8.632,4.541,8.632,4.541
					s-4.134-3.652-7.533-0.797c-3.399,2.855-4.112,5.014-4.842,7.087C68.534,191.868,68.103,192.502,68.103,192.502z"/>
				<path style="fill:#6DA077;" d="M75.196,187.737c0.218-5.817,9.077-19.112,21.48-7.149c0,0-6.411-4.096-12.263-0.979
					c-5.852,3.117-8.167,7.616-8.167,7.616L75.196,187.737z"/>
			</g>
			<g>
				<path style="fill:#6DA077;" d="M57.004,170.493c2.458-9.86,14.777-8.489,19.544-0.014c0,0-6.073-4.007-10.585-3.744
					c-4.511,0.263-6.823,1.093-8.891,3.817L57.004,170.493z"/>
				<path style="fill:#6DA077;" d="M59.574,166.825c3.068-14.568,20.115-18.301,25.9-4.984c0,0-8.343-4.801-14.317-3.283
					c-5.974,1.518-8.804,3.955-11.492,8.331L59.574,166.825z"/>
				<path style="fill:#6DA077;" d="M41.072,220.05c1.928-3.418,7.698-4.547,11.034-2.17c3.336,2.377,3.757,6.252,3.01,8.263
					c0,0-0.915-3.529-3.497-5.279c-3.207-2.174-5.098-1.607-6.604-1.561C43.508,219.35,41.072,220.05,41.072,220.05z"/>
				<path style="fill:#6DA077;" d="M29.093,219.364c0.559-3.728,3.737-6.522,8.655-4.566s3.632,7.104,3.632,7.104
					s-1.135-4.191-4.464-4.51c-3.329-0.319-4.665,0.447-5.977,1.158C29.626,219.259,29.093,219.364,29.093,219.364z"/>
				<path style="fill:#6DA077;" d="M60.67,162.503c-5.704-12.521,1.705-26.905,10.202-24.906c0,0-6.014,3.919-8.185,9.916
					c-2.171,5.996-2.79,9.732-1.941,14.96L60.67,162.503z"/>
				<path style="fill:#6DA077;" d="M61.749,161.195c-0.161-16.164,15.665-26.791,24.196-15.442c0,0-9.181-1.595-14.683,2.344
					c-5.501,3.939-7.735,7.567-9.41,13.128L61.749,161.195z"/>
				<path style="fill:#6DA077;" d="M47.566,155.7c-1.846,3.489-0.611,10.661,2.353,13.72c2.964,3.059,5.992,2.16,7.218,0.561
					c0,0-2.949,0.195-5.176-2.205c-2.766-2.981-3.025-5.402-3.532-7.185C47.922,158.809,47.566,155.7,47.566,155.7z"/>
				<path style="fill:#6DA077;" d="M41.358,220.812c-2.185-4.765-0.544-11.001,5.56-13.537c6.104-2.536,8.632,4.541,8.632,4.541
					s-4.134-3.652-7.533-0.797c-3.4,2.855-4.112,5.015-4.842,7.087C42.443,220.178,41.358,220.812,41.358,220.812z"/>
				<path style="fill:#6DA077;" d="M57.618,168.79c-4.173-2.532-10.595-18.355,3.023-28.006c0,0-5.511,5.808-5.522,13.796
					c-0.008,5.523,1.13,9.349,1.833,11.185C57.317,166.716,57.545,167.739,57.618,168.79L57.618,168.79z"/>
				<path style="fill:#6DA077;" d="M38.535,166.759c4.016-4.878,11.243,3.416,12.023,11.747c0,0-2.717-6.237-5.559-8.781
					c-2.841-2.544-4.474-3.399-6.437-2.888L38.535,166.759z"/>
				<path style="fill:#6DA077;" d="M25.469,186.124c-4.293-10.197,4.546-23.383,13.721-19.648c0,0-7.132,2.722-10.142,7.461
					c-3.009,4.739-3.707,7.951-3.497,12.163L25.469,186.124z"/>
				<path style="fill:#6DA077;" d="M28.583,208.7c2.452-2.838,8.283-2.431,11.151,0.768c2.869,3.198,2.637,7.099,1.573,8.87
					c0,0-0.309-3.691-2.545-6.079c-2.776-2.966-4.72-2.908-6.201-3.257C31.082,208.654,28.583,208.7,28.583,208.7z"/>
				<path style="fill:#6DA077;" d="M6.94,171.096c-1.635-5.136,0.588-11.763,7.957-14.317c7.37-2.555,8.985,5.055,8.985,5.055
					s-4.041-3.997-8.401-1.035c-4.36,2.961-5.549,5.247-6.745,7.44C7.541,170.43,6.94,171.096,6.94,171.096z"/>
				<path style="fill:#6DA077;" d="M37.857,164.537c-4.498-11.313,6.05-25.416,16.343-20.994c0,0-8.213,2.717-11.813,7.792
					c-3.6,5.075-4.515,8.564-4.435,13.18L37.857,164.537z"/>
				<path style="fill:#6DA077;" d="M36.922,157.916c1.371-5.18-2.098-13.772-6.623-16.439c-4.525-2.667-8.07-0.288-9.173,2.241
					c0,0,3.634-1.454,7.063,0.679c4.258,2.648,5.232,5.613,6.343,7.668C35.643,154.119,36.922,157.916,36.922,157.916z"/>
				<path style="fill:#6DA077;" d="M22.756,158.678c0.982-5.36,5.083-9.082,10.927-5.716c5.844,3.366,3.861,10.712,3.861,10.712
					s-1.049-6.212-5.085-7.03c-4.036-0.818-5.728,0.154-7.386,1.046C23.416,158.583,22.756,158.678,22.756,158.678z"/>
				<path style="fill:#6DA077;" d="M36.736,155.882c4.052-3.964,8.672-21.178-6.795-25.559c0,0,6.497,3.612,7.509,11.329
					c1.012,7.718-0.931,12.876-0.931,12.876L36.736,155.882z"/>
				<path style="fill:#6DA077;" d="M6.912,145.094c7.931-5.807,18.776,4.753,16.181,16.427c0,0-2.456-8.845-6.346-12.43
					c-3.891-3.585-6.473-4.33-9.813-3.894L6.912,145.094z"/>
				<path style="fill:#6DA077;" d="M5,160.026c0.358-4.165,4.959-8.684,8.794-8.652c3.835,0.032,5.705,3.159,5.832,5.373
					c0,0-2.167-2.521-5.101-2.468c-3.643,0.066-5.075,1.718-6.373,2.681C6.856,157.923,5,160.026,5,160.026z"/>
				<path style="fill:#6DA077;" d="M14.814,177.147c-2.552-2.869-2.762-8.68,1.792-14.092c4.554-5.412,7.76-0.768,7.76-0.768
					s-3.956-0.884-6.258,3.352c-2.302,4.237-2.531,6.447-2.789,8.594C15.062,176.38,14.814,177.147,14.814,177.147z"/>
				<path style="fill:#6DA077;" d="M51.073,196.423c10.046-6.984,21.134,2.441,19.418,13.09c0,0-3.029-7.615-7.769-10.432
					c-4.739-2.816-7.454-3.553-11.626-2.562L51.073,196.423z"/>
				<path style="fill:#6DA077;" d="M48.609,201.585c-6.942-2.104-7.809-16.224-0.981-21.475c0,0-2.812,7.119-2.406,12.061
					c0.406,4.942,1.437,7.229,3.424,9.336L48.609,201.585z"/>
				<path style="fill:#6DA077;" d="M57.974,179.447c-3.303-0.569-7.904,3.949-8.806,8.633c-0.902,4.685,0.39,7.591,2.069,8.282
					c0,0-0.753-3.122-0.003-6.688c0.931-4.427,2.553-5.774,3.61-7.123C55.901,181.202,57.974,179.447,57.974,179.447z"/>
				<path style="fill:#6DA077;" d="M62.198,211.293c1.58-3.825,0.141-9.357-5.646-12.386c-5.786-3.029-8.022,2.388-8.022,2.388
					s3.996-2.233,7.344,0.702c3.348,2.935,4.184,4.902,5.03,6.795C61.75,210.686,62.198,211.293,62.198,211.293z"/>
				<path style="fill:#6DA077;" d="M51.237,196.362c0.157-5.799,8.315-19.561,18.61-7.7c0,0-5.313-4.05-10.137-0.912
					c-4.823,3.138-6.718,7.634-6.718,7.634L51.237,196.362z"/>
			</g>
			<g>
				<path style="fill:#6DA077;" d="M34.949,195.709c-4.889-6.768-13.256,0.607-13.97,9.921c0,0,3.066-6.345,6.374-8.424
					c3.307-2.079,5.223-2.579,7.566-1.415L34.949,195.709z"/>
				<path style="fill:#6DA077;" d="M33.843,194.837c-3.741-10.201-15.653-8.448-18.02,3.184c0,0,5.068-5.874,9.267-6.329
					c4.199-0.456,6.385,0.629,8.699,3.219L33.843,194.837z"/>
				<path style="fill:#6DA077;" d="M28.141,189.345c-0.774-4.038-5.242-7.569-8.542-6.762c-3.3,0.807-4.561,4.271-4.424,6.482
					c0,0,1.585-2.926,4.118-3.467c3.146-0.671,4.564,0.67,5.789,1.358C26.308,187.644,28.141,189.345,28.141,189.345z"/>
				<path style="fill:#6DA077;" d="M34.011,194.449c1.489-5.064,0.106-11.103-5.397-12.684c-5.502-1.581-7.093,5.831-7.093,5.831
					s3.271-4.259,6.458-1.947c3.187,2.312,3.987,4.346,4.795,6.291C33.584,193.887,34.011,194.449,34.011,194.449z"/>
			</g>
		</g>
		<g>
			<path style="fill:#AF917B;" d="M59.919,235.514c3.051,0,5.939-1.11,7.13-2.853c0.569-0.833,1.022-2.199-0.046-3.981
				c-0.513-0.856-1.337-1.417-2.45-1.667c-4.374-0.983-11.908,3.121-13.539,4.189l0.592,0.87c2.092-1.371,8.992-4.875,12.709-4.04
				c0.827,0.186,1.405,0.571,1.769,1.177c0.632,1.055,0.659,2.02,0.079,2.868c-1.16,1.698-4.659,2.722-7.798,2.282
				c-4.805-0.673-6.521-0.664-6.588-0.662l0.011,1.046c0.017-0.004,1.729-0.006,6.426,0.652
				C58.781,235.476,59.353,235.514,59.919,235.514z"/>
			<path style="fill:#AF917B;" d="M21.734,234.859c3.25,0,7.01-0.557,7.206-0.587l-0.161-1.034
				c-0.058,0.009-5.884,0.872-9.164,0.465c-2.146-0.266-4.008-1.333-4.634-2.653c-0.314-0.663-0.274-1.302,0.121-1.9
				c0.319-0.485,0.896-0.802,1.714-0.942c3.324-0.57,9.592,1.902,12.195,3.846l0.646-0.832c-2.721-2.033-9.305-4.682-13.025-4.044
				c-1.122,0.192-1.938,0.665-2.425,1.404c-0.589,0.894-0.657,1.927-0.192,2.909c0.787,1.659,2.933,2.934,5.467,3.249
				C20.16,234.825,20.932,234.859,21.734,234.859z"/>
			<path style="fill:#D9C3B0;" d="M16.406,261.471c0,4.748,2.835,10.98,7.387,15.914h33.073c1.965-2.129,3.61-4.502,4.845-6.892
				c1.626-3.147,2.542-6.324,2.542-9.022c0-9.228-10.712-21.964-23.924-21.964c-12.66,0-23.024,11.695-23.867,20.791
				C16.425,260.694,16.406,261.086,16.406,261.471z"/>
			<path style="fill:#D9C3B0;" d="M23.44,247.001l33.818,0.04c0,0-3.354-3.332-4.701-8.209c-1.405-5.087-0.531-8.169-0.531-8.169
				H28.632c0,0,0.784,3.406-0.531,8.169C26.982,242.885,23.44,247.001,23.44,247.001z"/>
			<g>
				<path style="fill:#AF917B;" d="M54.851,273.543c2.538-2.485,3.285-6.339,3.505-8.415c0.338-3.191-0.105-6.311-1.156-8.14
					l-0.309,0.171c1.016,1.77,1.442,4.81,1.112,7.933c-0.365,3.455-1.606,6.445-3.402,8.204L54.851,273.543z"/>
				<path style="fill:#AF917B;" d="M53.28,270.148c1.995-3.706,1.801-11.396-0.416-16.455l-0.326,0.137
					c2.18,4.978,2.38,12.527,0.428,16.155L53.28,270.148z"/>
				<path style="fill:#AF917B;" d="M49.53,272.584c1.274-2.626,2.165-8.18,1.449-12.93l-0.351,0.051
					c0.706,4.684-0.167,10.15-1.419,12.729L49.53,272.584z"/>
				<path style="fill:#AF917B;" d="M46.147,260.878c6.396,0,11.903-1.108,14.598-2.273l-0.144-0.319
					c-3.046,1.318-9.746,2.56-17.255,2.172l-0.019,0.348C44.282,260.855,45.224,260.878,46.147,260.878z"/>
				<path style="fill:#AF917B;" d="M44.271,265.176c4.771,0,9.579-0.519,12.295-1.441l-0.116-0.329
					c-4.022,1.366-12.701,1.836-18.952,1.027l-0.046,0.346C39.541,265.048,41.902,265.176,44.271,265.176z"/>
				<path style="fill:#AF917B;" d="M39.997,271.284l0.354-0.033c-0.008-0.082-0.79-8.284-0.001-14.155l-0.352-0.046
					C39.203,262.961,39.989,271.202,39.997,271.284z"/>
				<path style="fill:#AF917B;" d="M36.286,267.855l0.353-0.046c-0.295-2.189-0.383-9.12,0.505-14.017l-0.35-0.061
					C35.899,258.663,35.989,265.648,36.286,267.855z"/>
				<path style="fill:#AF917B;" d="M29.186,273.847l0.296-0.194c-0.346-0.509-2.789-7.46-2.375-13.963l-0.355-0.022
					C26.325,266.379,28.818,273.305,29.186,273.847z"/>
				<path style="fill:#AF917B;" d="M24.228,268.749l0.342-0.095c-0.819-2.833-1.499-9.563-0.587-14.322l-0.349-0.064
					C22.712,259.079,23.4,265.884,24.228,268.749z"/>
				<path style="fill:#AF917B;" d="M33.908,268.465c0.156,0,0.305-0.001,0.447-0.003l-0.004-0.349
					c-3.5,0.043-11.677-0.471-14.729-1.846l-0.148,0.317C22.492,267.944,30.089,268.465,33.908,268.465z"/>
				<path style="fill:#AF917B;" d="M33.291,271.865c1.386,0,2.747-0.067,3.995-0.218l-0.043-0.346
					c-5.175,0.624-12.714-0.244-15.257-1.392l-0.149,0.317C23.833,271.128,28.703,271.865,33.291,271.865z"/>
				<path style="fill:#AF917B;" d="M51.152,244.274l0.316-0.16c-1.057-2.016-2.178-7.395-1.922-10.345l-0.354-0.03
					C48.931,236.742,50.075,242.22,51.152,244.274z"/>
				<path style="fill:#AF917B;" d="M49.166,245.775l0.331-0.128c-0.325-0.811-1.71-4.817-2.053-8.177l-0.354,0.035
					C47.438,240.904,48.838,244.954,49.166,245.775z"/>
				<path style="fill:#AF917B;" d="M45.704,239.951c1.961,0,4.125-0.175,5.435-0.821l-0.159-0.311
					c-2.703,1.332-9.505,0.551-9.574,0.543l-0.042,0.346C41.515,239.725,43.478,239.951,45.704,239.951z"/>
				<path style="fill:#AF917B;" d="M46.232,243.509c2.697-0.142,4.753-0.565,6.111-1.259l-0.164-0.309
					c-1.294,0.661-3.357,1.083-5.966,1.22L46.232,243.509z"/>
				<path style="fill:#AF917B;" d="M40.526,243.863c0.005-0.04,0.439-4.085,0.381-8.419l-0.355,0.005
					c0.059,4.314-0.374,8.337-0.379,8.378L40.526,243.863z"/>
				<path style="fill:#AF917B;" d="M37.432,245.183c0.628-1.862,0.9-4.297,1.274-8.086l-0.354-0.034
					c-0.371,3.765-0.641,6.183-1.257,8.011L37.432,245.183z"/>
				<path style="fill:#AF917B;" d="M34.519,243.398c0.016-0.039,1.575-4.024,1.916-10.509l-0.355-0.018
					c-0.338,6.424-1.877,10.362-1.892,10.401L34.519,243.398z"/>
				<path style="fill:#AF917B;" d="M38.204,235.052c0.568,0,0.916-0.014,0.928-0.015l-0.016-0.348
					c-0.039,0.002-3.995,0.164-7.2-0.636l-0.088,0.338C34.136,234.967,36.821,235.052,38.204,235.052z"/>
				<path style="fill:#AF917B;" d="M38.825,237.829c1.715,0,3.024-0.115,3.36-0.169l-0.059-0.344
					c-0.784,0.128-7.671,0.608-11.668-1.154l-0.145,0.318C32.792,237.573,36.262,237.829,38.825,237.829z"/>
			</g>
			<path style="fill:#AF917B;" d="M16.406,261.471c0,4.748,2.835,10.98,7.387,15.914h33.073c1.965-2.129,3.61-4.502,4.845-6.892
				l-0.096-0.445c0,0-2.613,5.078-21.072,4.978c-18.46-0.1-24.08-14.727-24.08-14.727C16.425,260.694,16.406,261.086,16.406,261.471
				z"/>
		</g>
	</g>
</g>
</svg>
