<?xml version="1.0" encoding="utf-8"?>
<!-- Generator: Adobe Illustrator 27.5.0, SVG Export Plug-In . SVG Version: 6.00 Build 0)  -->
<svg version="1.1" xmlns="http://www.w3.org/2000/svg" xmlns:xlink="http://www.w3.org/1999/xlink" x="0px" y="0px"
	 viewBox="0 0 500 500" style="enable-background:new 0 0 500 500;" xml:space="preserve">
<g id="BACKGROUND">
	<rect style="fill:#E4DCF7;" width="500" height="500"/>
</g>
<g id="OBJECTS">
	<g>
		<g>
			<path style="fill:#B3A7DB;" d="M211.674,399.748c-20.398-2.817-66.081,6.669-44.054,18.779
				c22.027,12.11,49.481-8.839,83.638-4.885c34.158,3.954,75.485,19.79,94.565,2.091c19.081-17.699-35.508-19.27-56.577-14.479
				c-21.069,4.791-34.555,5.488-46.288,4.231C231.225,404.228,219.339,400.807,211.674,399.748z"/>
			<path style="fill:#867BBF;" d="M234.552,409.496c0,3.189-13.492,5.773-30.135,5.773c-16.643,0-30.135-2.585-30.135-5.773
				c0-3.188,13.492-5.773,30.135-5.773C221.06,403.723,234.552,406.308,234.552,409.496z"/>
			<path style="fill:#867BBF;" d="M339.26,411.432c0,3.189-13.492,5.773-30.135,5.773c-16.643,0-30.135-2.585-30.135-5.773
				c0-3.188,13.492-5.773,30.135-5.773C325.768,405.659,339.26,408.244,339.26,411.432z"/>
		</g>
		<g>
			<path style="fill:#BF476D;" d="M231.225,411.331c-8.137,0.323-17.397-5.105-20.192-6.462c-2.79-1.357-2.79,3.829-2.79,3.829
				l-5.347-0.56l-1.908-22.01l1.37-1.693c8.329,10.277,20.375,17.809,24.773,16.493c1.482,1.052,2.888,1.93,4.093,2.503
				C237.293,406.306,239.366,411.013,231.225,411.331z"/>
			<path style="fill:#FFC5CF;" d="M227.132,400.928c-3.171,0.949-10.313-2.7-17.174-8.656c-2.66-2.311-5.275-4.966-7.599-7.837
				l-1.37,1.693l-2.114-24.424l-0.049-0.573l9.019-2.579l8.061,6.014c-1.917,8.217-2.633,22.346-2.235,23.859
				C213.989,389.643,221.172,396.692,227.132,400.928z"/>
			<path style="fill:#F998AD;" d="M209.959,392.272c-2.66-2.311-5.275-4.966-7.599-7.837l-1.37,1.693l-2.114-24.424l10.962,3.18
				C207.621,371.762,207.872,383.862,209.959,392.272z"/>
			<path style="fill:#FFC5CF;" d="M201.244,419.315c-7.022-2.024-11.491-13.622-12.449-18.306c-0.278-1.366-0.287-2.902-0.157-4.483
				c0.305-3.82,1.402-7.864,1.33-10.201c-0.005-0.139-0.009-0.291-0.018-0.452c-0.005-0.031-0.009-0.063-0.009-0.094
				c-0.179-3.614-1.106-11.665-2.315-21.056l6.816-2.185l12.445-3.986c-1.944,5.262-2.53,18.705-2.7,24.845
				c-0.054,1.935-0.067,3.144-0.067,3.144s0.049,0.228,0.139,0.64v0.005c0.47,2.19,2.002,9.583,2.629,15.848
				C207.63,410.48,208.271,421.335,201.244,419.315z"/>
			<path style="fill:#F998AD;" d="M193.582,401.076c0.963,3.614-1.545,0.528-4.944-4.55c0.305-3.82,1.402-7.864,1.33-10.201
				c-0.005-0.139-0.009-0.291-0.018-0.452c-0.005-0.031-0.009-0.063-0.009-0.094c-0.179-3.614-1.106-11.665-2.315-21.056
				l6.816-2.185l5.419,3.676C192.203,369.089,191.137,391.887,193.582,401.076z"/>
			<path style="fill:#F998AD;" d="M216.303,221.119c2.554,9.369,34.734,28.723,36.601,32.693c1.867,3.97-13.935-1.993-15.212-3.401
				c-1.277-1.408-19.952-13.507-19.952-13.507l-3.064-7.693"/>
			<path style="fill:#312842;" d="M245.689,112.418c-1.89,3.457-3.148,5.857-2.355,9.722c0.296,1.46,0.891,3.135,1.858,5.159
				c3.591,7.501-8.62,7.102-13.407,12.158l-23.246,31.481c0,0-3.569,24.594-20.169,47.589c-16.6,22.991-45.009,9.247-48.363-9.619
				c-2.929-16.502,14.03-19.372,18.02-33.971v-0.005c0.569-2.1,0.873-4.438,0.815-7.093c-0.139-6.193,1.567-10.609,4.008-14.034
				V153.8c0.748-1.048,1.563-2.006,2.414-2.893c5.871-6.104,13.466-8.898,12.333-15.803c-1.836-11.182,2.078-27.84,17.796-39.412
				c15.723-11.571,28.893,5.11,36.393,4.469c7.501-0.636,16.761,7.026,14.061,11.97C245.792,112.23,245.739,112.324,245.689,112.418
				z"/>
			<path style="fill:#251F35;" d="M231.785,139.457l-23.246,31.481c0,0-3.569,24.594-20.169,47.589
				c-16.6,22.991-45.009,9.247-48.363-9.619c-2.929-16.502,14.03-19.372,18.02-33.971v-0.005
				c6.659-5.736,12.901-11.361,19.171-11.54c14.684-0.421,16.918-26.56,28.731-27.778c10.174-1.043,23.658-21.029,37.406-13.475
				c0.296,1.46,0.891,3.135,1.858,5.159C248.784,134.799,236.572,134.401,231.785,139.457z"/>
			<path style="fill:#F2EDFC;" d="M231.709,361.704c-2.472,1.37-5.383,2.606-8.558,3.645c-1.433,0.475-2.92,0.905-4.442,1.294
				c-2.696,0.685-5.513,1.236-8.356,1.612c-2.633,0.354-5.289,0.56-7.899,0.6c-1.926,0.027-3.824-0.036-5.674-0.206
				c-1.124-0.099-2.226-0.233-3.3-0.412c-1.746-0.287-3.435-0.596-5.065-0.927c-16.426-3.327-26.873-8.764-27.021-16.314
				c-0.157-8.298,10.371-84.999,21.213-111.89c2.521-6.26-2.423-27.549-6.332-40.263c-0.081-0.255-0.161-0.506-0.237-0.757
				c-3.95-12.61,0-26.604,0-26.604c4.505-2.136,8.549-3.972,12.373-4.886c3.032-0.726,5.92-0.869,8.79-0.116
				c4.886,1.281,10.277,5.154,14.178,10.031c1.285,1.603,2.409,3.314,3.296,5.078c3.596,7.129,8.172,10.501,7.537,19.722
				c-0.64,9.225-3.193,9.18-3.618,15.535c-0.426,6.35,3.936,37.741,7.447,52.586c3.511,14.845,13.246,72.626,13.887,82.522
				C240.15,355.426,236.881,358.856,231.709,361.704z"/>
			<path style="fill:#E3D7FF;" d="M195.575,189.322c4.5,17.49,6.948,21.853,14.503,22.81c7.555,0.958,6.491,5.597-4.257,4.714
				c-10.747-0.883-14.046-2.479-14.046-2.479"/>
			<path style="fill:#E3D7FF;" d="M188.41,247.235c-4.997,10.989-20.232,88.76,0.005,120.076c-7.228-1.46-13.296-3.336-17.841-5.62
				c-5.786-2.902-9.1-6.466-9.18-10.694c-0.143-7.559,8.58-71.864,18.329-103.592c0.954-3.108,1.917-5.902,2.884-8.298
				c1.061-2.638,0.802-7.94-0.152-14.146c-1.196-7.778-3.47-16.977-5.58-24.115c-0.201-0.69-0.403-1.357-0.6-2.002l8.267-14.733
				c0.354,7.057,1.805,14.554,3.802,21.62c3.412,12.042,8.419,22.838,12.324,28.109c1.088,1.473,1.603,2.423,1.684,3.063
				C202.713,239.923,193.439,236.174,188.41,247.235z"/>
			<path style="fill:#BFABFF;" d="M202.35,236.904c-6.068-1.214-13.085-4.93-19.896-11.943c-1.196-7.778-3.47-16.977-5.58-24.115
				l5.732-2.123c0,0,2.409,2.853,5.736,7.008c3.412,12.042,8.419,22.838,12.324,28.109
				C201.755,235.315,202.27,236.264,202.35,236.904z"/>
			<path style="fill:#E3D7FF;" d="M212.869,193.695c-1.675,5.19-6.362,0.028-11.012-10.053c-3.553-7.707-8.213-14.567-13.448-17.044
				c3.032-0.726,5.92-0.869,8.79-0.116c4.886,1.281,10.277,5.154,14.178,10.031C212.502,181.824,213.98,190.261,212.869,193.695z"/>
			<path style="fill:#FFC5CF;" d="M235.618,148.126c0.076,1.437-2.875,2.234-3.435,3.273c-0.555,1.034-5.029,13.887-9.176,14.124
				c-2.579,0.152-6.063-1.093-8.329-2.055c-1.379-0.587-2.311-1.07-2.311-1.07s-1.984,4.254-3.229,7.12
				c-0.233,0.533-0.439,1.017-0.6,1.42c-0.73,1.796,1.554,10.595,2.441,16.139c0.376,2.333,0.502,4.084,0.054,4.5
				c-1.514,1.402-3.99-3.708-5.745-7.698c-1.755-3.99-10.613-15.799-12.131-16.999c0.448-0.34,0.869-0.896,1.267-1.594
				c1.943-3.408,3.412-10.237,5.598-12.292c2.633-2.472,3.672-2.355,3.43-3.35c-0.237-0.999-1.075,0-3.471-2.275
				c-2.391-2.275-1.554-8.782,1.876-10.734c3.43-1.957,6.305,1.115,6.426,3.309c0.116,2.194,0.555,4.55,1.594,3.591
				c0.618-0.573,1.518-3.264,2.253-5.911c0.501-1.787,0.927-3.551,1.142-4.621c0.278-1.397,6.023,1.635,6.74-3.314
				c0.721-4.948,7.344-1.836,8.822-4.509c1.473-2.673,4.308-2.673,4.308-2.673c0.197,1.214,0.322,2.767,0.394,4.465
				c0.076,1.729,0.103,3.605,0.099,5.41c-0.009,4.241-0.175,8.101-0.175,8.795C233.46,142.462,235.538,146.689,235.618,148.126z"/>
			<path style="fill:#FCD4DD;" d="M235.618,148.126c0.076,1.437-2.875,2.234-3.435,3.273c-0.555,1.034-5.029,13.887-9.176,14.124
				c-2.579,0.152-6.063-1.093-8.329-2.055c4.353,1.527,7.452,2.378,10.403-1.773c2.956-4.151,3.909-10.855,5.907-12.051
				c1.563-0.94,0.972-11.648,2.647-17.263c-0.009,4.241-0.175,8.101-0.175,8.795C233.46,142.462,235.538,146.689,235.618,148.126z"
				/>
			<path style="fill:#F998AD;" d="M204.172,139.508c-1.305-0.522-2.594,3.232-1.357,5.188
				C204.053,146.65,206.766,140.545,204.172,139.508z"/>
			<path style="fill:#F998AD;" d="M212.368,162.398c0,0-1.984,4.254-3.229,7.12c-8.589-9.234-6.493-16.43-5.351-14.473
				C204.997,157.118,210.29,161.055,212.368,162.398z"/>
			<ellipse style="fill:#312842;" cx="228.593" cy="140.824" rx="1.33" ry="2.235"/>
			<path style="fill:none;stroke:#312842;stroke-width:0.8956;stroke-linecap:round;stroke-miterlimit:10;" d="M226.279,135.616
				c0,0,2.075-2.296,4.389,0"/>
			
				<path style="fill:none;stroke:#EF487C;stroke-width:0.8956;stroke-linecap:round;stroke-linejoin:round;stroke-miterlimit:10;" d="
				M222.209,153.804c1.676,3.352,4.07,1.088,4.07,1.088"/>
			<path style="fill:#F998AD;" d="M225.385,147.153c-0.094,0.906-1.474,1.505-3.081,1.337c-1.607-0.167-2.834-1.037-2.74-1.943
				c0.094-0.906,1.474-1.505,3.081-1.337C224.253,145.377,225.48,146.247,225.385,147.153z"/>
			<path style="fill:#967FBA;" d="M199.541,205.814c-2.133-8.138,2.199-41.864-20.395-37.058s-13.691,33.228,4.091,40.15"/>
			<path style="fill:#FFC5CF;" d="M251.471,260.441c-1.075-1.563-2.288-2.714-4.039-3.681c-1.706-0.936-3.923-1.702-7.026-2.49
				c-6.278-1.594-33.998-12.024-39.107-14.366c-0.613-0.282-1.308-0.788-2.073-1.491c-5.607-5.145-14.787-20.666-20.219-32.56
				c-3.878-8.49-3.511-14.881-1.442-19.592c2.53-5.75,10.17-7.129,14.384-2.472c0.425,0.47,0.837,0.976,1.231,1.518
				c5.947,8.155,8.499,23.949,14.451,40.554c8.728,5.965,33.093,23.089,33.093,23.089s2.982,1.155,5.934,2.611
				c1.876,0.927,3.739,1.97,4.814,2.924C254.238,256.931,253.598,263.527,251.471,260.441z"/>
			<path style="fill:#F998AD;" d="M251.471,260.441c-1.075-1.563-2.288-2.714-4.039-3.681c0.264-1.487-0.04-3.202-0.775-5.199
				c1.876,0.927,3.739,1.97,4.814,2.924C254.238,256.931,253.598,263.527,251.471,260.441z"/>
			<path style="fill:#F998AD;" d="M233.536,126.972c-4.885,0.497-10.519,3.927-12.019,7.058c-1.505,3.139-6.543,1.845-9.386,3.596
				c0.501-1.787,0.927-3.551,1.142-4.621c0.278-1.397,6.023,1.635,6.74-3.314c0.721-4.948,7.344-1.836,8.822-4.509
				c1.473-2.673,4.308-2.673,4.308-2.673C233.339,123.721,233.464,125.274,233.536,126.972z"/>
			<path style="fill:#BFABFF;" d="M170.574,361.691c-5.786-2.902-9.1-6.466-9.18-10.694c-0.143-7.559,8.58-71.864,18.329-103.592
				C174.658,278,168.393,335.57,170.574,361.691z"/>
			<path style="fill:#F998AD;" d="M199.225,238.414c-5.607-5.145-14.787-20.666-20.219-32.56c-3.878-8.49-3.511-14.881-1.442-19.592
				c2.53-5.75,10.17-7.129,14.384-2.472c0.425,0.47,0.837,0.976,1.231,1.518c-6.404-1.626-12.095,3.309-11.303,15.333
				C182.629,212.105,193.573,230.219,199.225,238.414z"/>
			<path style="fill:#F998AD;" d="M211.033,191.577c-1.514,1.402-3.99-3.708-5.745-7.698c-1.755-3.99-10.613-15.799-12.131-16.999
				c0.448-0.34,0.869-0.896,1.267-1.594c6.327,7.474,12.942,18.535,14.697,22.247c0.699,1.482,1.37,1.026,1.858-0.457
				C211.356,189.41,211.481,191.161,211.033,191.577z"/>
			<path style="fill:#D86181;" d="M201.244,419.315c-7.022-2.024-11.491-13.622-12.449-18.306
				c-0.958-4.68,1.276-11.383,1.173-14.684c-0.005-0.139-0.009-0.291-0.018-0.452c0.528,7.989,5.302,18.674,10.232,18.199
				c3.583-0.345,4.075-11.016,4.075-16.887c0.47,2.19,2.002,9.583,2.629,15.848C207.63,410.48,208.271,421.335,201.244,419.315z"/>
			<path style="fill:#E3D7FF;" d="M202.453,368.856c-1.926,0.027-3.824-0.036-5.674-0.206c1.048-23.631-1.057-80.064,1.16-87.247
				C200.147,274.247,197.81,343.752,202.453,368.856z"/>
			<path style="fill:#E3D7FF;" d="M218.709,366.644c-2.696,0.685-5.513,1.236-8.356,1.612c3.677-20.931,3.954-70.458,2.015-83.019
				c-2.611-16.918,3.565,2.552,2.924,8.938C214.773,299.374,215.874,346.327,218.709,366.644z"/>
			<path style="fill:#E3D7FF;" d="M223.151,365.35c1.164-22.046-0.47-72.165-2.221-85.223c-2.337-17.451,5.593,15.964,6.202,29.372
				c0.461,10.111,3.238,38.744,4.577,52.206C229.237,363.075,226.326,364.311,223.151,365.35z"/>
		</g>
		<g>
			<path style="fill:#633535;" d="M322.551,393.454c0,0-5.638,12.449-8.938,13.515c-0.94,0.305-3.686,0.851-7.089,1.352
				c-8.544,1.276-21.231,2.302-19.936-1.352c1.263-3.565,9.158-9.413,14.393-13.882c2.266-1.939,4.03-3.614,4.545-4.738h8.195
				l1.702,2.445L322.551,393.454z"/>
			<path style="fill:#562D2D;" d="M322.551,393.454c0,0-5.638,12.449-8.938,13.515c-0.94,0.305-3.686,0.851-7.089,1.352
				c0.094-0.367,0.184-0.748,0.278-1.137c2.391-9.937-1.657-12.001-5.822-14.097c2.266-1.939,4.03-3.614,4.545-4.738h8.195
				l1.702,2.445L322.551,393.454z"/>
			<path style="fill:#633535;" d="M314.786,393.535c-1.117,3.911-7.821,17.079-7.981,21.867c-0.16,4.788,12.53,8.22,17.159,3.99
				c4.629-4.23,8.3-13.009,8.38-15.882c0.08-2.873,0.479-13.647,0.479-13.647"/>
			<path style="fill:#1D182D;" d="M319.265,389.943c-0.815,0.546-2.575,0.873-4.635,1.021c-4.366,0.322-10.076-0.152-11.016-1.021
				c-1.384-1.276,0.318-2.978,1.379-5.745c1.066-2.768-0.636-9.789-0.045-23.411c0.587-13.618-4.42-57.673-6.444-88.747l1.397-7.931
				l1.285-7.317h5.544l0.515,1.142l6.234,13.833l5.786,12.83c0,0,5.311,35.758,6.278,39.161
				C326.51,327.16,321.808,388.242,319.265,389.943z"/>
			<path style="fill:#272138;" d="M341.386,258.816l-0.958,16.708l-3.963,69.222c0,0.004,0,0.004,0,0.009l-0.936,16.372
				l-1.59,27.751c0,0,0,0,0,0.582v2.826c0,3.403-16.811,4.254-19.005,2.767c-2.024-1.379-0.981-2.575-0.305-4.089
				c0.058-0.125,0.107-0.251,0.157-0.381c0.636-1.706-0.851-32.565-2.763-54.695c-1.505-17.411-2.884-50.356-5.083-67.368
				c-0.596-4.617-1.254-8.061-1.993-9.704l2.297-0.882l5.365-2.064l6.655-0.797L341.386,258.816z"/>
			<path style="opacity:0.25;" d="M341.386,258.816l-0.958,16.708c-8.356,2.369-18.28,0.031-26.949-3.757
				c-2.284-1.003-4.483-2.1-6.538-3.247c-2.606-1.442-4.989-2.956-7.04-4.411l1.285-7.317h5.544l0.515,1.142l5.365-2.064
				l6.655-0.797L341.386,258.816z"/>
			<path style="fill:#633535;" d="M299.675,258.269c6.172,2.386,25.006,3.131,28.092-6.02c3.086-9.151-30.516-2.979-30.516-2.979"/>
			<path style="fill:#F2EDFC;" d="M300.261,250.411c7.289,6.307,23.038-2.472,23.038-2.472l-1.277-63.014l-7.129-4.716l-5.853-0.745
				l-3.993,4.15l-6.543,23.096l2.681,12.764"/>
			<path style="fill:#272138;" d="M309.543,179.345c-3.125,8.212-4.214,44.382-4.572,51.594c-0.358,7.212,3.35,16.374,3.827,17.093
				c0.477,0.719,4.308-8.423,2.925-21.196c-1.383-12.773-1.912-44.139-1.2-47.489S309.543,179.345,309.543,179.345z"/>
			<path style="fill:#312842;" d="M303.614,193.722l-1.155,22.605l-0.354,6.869l-0.918,13.622l-14.066,11.916
				c0,0-20.214,3.771-20.541,0c-0.152-1.76,4.639-5.817,10.156-10.165c6.305-4.966,13.56-10.309,15.49-13.04
				c3.618-5.118,4.362-32.233,9.879-38.892L303.614,193.722z"/>
			<path style="fill:#272138;" d="M302.458,216.328l-0.354,6.869l-0.918,13.622l-14.066,11.916c0,0-20.214,3.771-20.541,0
				c-0.152-1.76,4.639-5.817,10.156-10.165c11.455-4.12,20.545-11.807,22.082-36.973
				C298.977,199.006,301.464,215.002,302.458,216.328z"/>
			<path style="fill:#312842;" d="M310.562,178.514c-6.311,3.452-9.344,6.963-11.1,17.178c-1.756,10.215-1.475,46.927-3.052,53.95
				s-3.013,20.59-4.45,23.783c-1.437,3.192,7.661,5.586,8.3,3.511c0.638-2.075,3.192-47.086,3.671-64.644
				C304.411,194.734,304.598,181.144,310.562,178.514z"/>
			<path style="fill:#695493;" d="M310.965,172.092c-3.085,2.243-3.054,4.817-3.627,9.893c-0.573,5.075,1.198-0.293,2.741-2.046
				c1.543-1.753,1.898-8.212,1.898-8.212L310.965,172.092z"/>
			<path style="fill:#FFC5CF;" d="M324.92,164.807c0,0-12.57,11.773-12.969,9.937c-0.143-0.658-0.864-2.154-1.733-3.806
				c-1.505-2.866-3.453-6.202-3.564-6.404c-0.009-0.005-0.009-0.009-0.009-0.009s-0.054,0.031-0.148,0.094
				c-0.027,0.022-0.054,0.036-0.081,0.049c-0.721,0.443-3.054,1.84-5.49,2.772c-1.845,0.707-3.748,1.146-5.056,0.716
				c-3.39-1.115-7.581-13.085-8.02-13.524c-0.439-0.439-2.794-1.24-2.673-2.436c0.121-1.196,2.114-5.987,2.194-7.662
				c0.045-0.891-0.273-4.801-0.51-8.876c-0.054-0.931-0.103-1.872-0.143-2.785c-0.116-2.611-0.161-5.02-0.004-6.417
				c3.171,3.869,11.67,3.994,11.67,3.994s-3.269,0.636-2.194,1.473c1.079,0.837,7.264,1.12,14.845-0.757
				c-0.604,0.663-1.021,1.509-1.29,2.463c-1.272,4.447,0.658,11.124,1.608,11.383c1.16,0.318,0.721-2.356,1.518-3.789
				c0.797-1.438,1.917-2.396,4.827-1.558c2.915,0.837,2.557,5.508,0.837,7.94c-1.715,2.436-2.911,0.202-3.35,1.397
				c-0.439,1.196,0.081,6.507,6.663,8.302C322.368,159.778,324.92,164.807,324.92,164.807z"/>
			<path style="fill:#312842;" d="M341.91,128.418c-0.309,1.912-1.03,3.735-2.172,5.186c-4.362,5.53-11.334,15.427-12.449,19.309
				c-1.12,3.887-1.249,5.271-5.441,4.393c-6.583-1.796-7.102-7.107-6.663-8.302c0.439-1.196,1.634,1.039,3.35-1.397
				c1.72-2.432,2.078-7.102-0.837-7.94c-2.911-0.837-4.03,0.121-4.827,1.558c-0.797,1.433-0.358,4.106-1.518,3.789
				c-1.155-0.318-3.748-10.094-0.318-13.846c-7.581,1.876-13.766,1.594-14.845,0.757c-1.075-0.837,2.194-1.473,2.194-1.473
				s-8.499-0.125-11.67-3.994c-5.875-5.678-7.259-10.837-7.581-12.785c-0.09-0.528-0.099-0.819-0.099-0.819s2.485-0.784,3.838,0
				c0,0-3.735-7.662-1.393-14.155c0,0,0.076,0.022,0.228,0.063c0.873,0.242,4.245,1.205,9.243,3.027
				c5.853,2.127,29.049-3.833,36.711,5.423c-2.714-3.614-3.193-7.393-3.193-7.393s0.515,0.318,1.321,0.914
				c3,2.212,10.017,8.271,9.426,16.112C340.437,116.999,342.792,123.04,341.91,128.418z"/>
			<path style="fill:#493D66;" d="M329.47,114.845c0,0-1.437-5.024-7.743-6.941s-13.564-3.354-23.461-3.193
				c-8.911,0.143-13.228-1.782-16.56-5.951c0.873,0.242,4.245,1.205,9.243,3.027c5.853,2.127,29.049-3.833,36.711,5.423
				c-2.714-3.614-3.193-7.393-3.193-7.393s0.515,0.318,1.321,0.914C330.075,105.956,329.47,114.845,329.47,114.845z"/>
			<path style="fill:#F998AD;" d="M310.219,170.938c-1.505-2.866-3.453-6.202-3.564-6.404c3.412-1.966,7.093-7.066,8.289-6.972
				C316.027,157.642,316.443,165.215,310.219,170.938z"/>
			<path style="fill:#F998AD;" d="M316.435,141.955c-1.322-0.316-2.048,3.512-1.091,3.937
				C316.302,146.318,318.217,142.381,316.435,141.955z"/>
			<path style="fill:#312842;" d="M294.142,143.551c0,1.311-0.643,2.373-1.437,2.373s-1.436-1.063-1.436-2.373
				c0-1.311,0.643-2.373,1.436-2.373S294.142,142.24,294.142,143.551z"/>
			<path style="fill:none;stroke:#312842;stroke-width:0.8956;stroke-linecap:round;stroke-miterlimit:10;" d="M290.497,138.589
				c0,0,1.915-1.703,4.416-0.213"/>
			
				<path style="fill:none;stroke:#EF487C;stroke-width:0.8956;stroke-linecap:round;stroke-linejoin:round;stroke-miterlimit:10;" d="
				M295.153,159.321c4.15,0.705,5.108-2.431,5.108-2.431"/>
			<path style="fill:#F998AD;" d="M311.034,131.168c-0.604,0.663-1.021,1.509-1.29,2.463c-7.16,4.227-16.681,3.399-23.026-0.757
				c-0.116-2.611-0.161-5.02-0.004-6.417c3.171,3.869,11.67,3.994,11.67,3.994s-3.269,0.636-2.194,1.473
				C297.268,132.762,303.452,133.044,311.034,131.168z"/>
			<path style="fill:#251F35;" d="M341.91,128.418c-0.309,1.912-1.03,3.735-2.172,5.186c-4.362,5.53-11.334,15.427-12.449,19.309
				c-1.12,3.887-1.249,5.271-5.441,4.393c-6.583-1.796-7.102-7.107-6.663-8.302c0.439-1.196,1.634,1.039,3.35-1.397
				c1.72-2.432,2.078-7.102-0.837-7.94c-2.911-0.837-4.03,0.121-4.827,1.558c-0.797,1.433-0.358,4.106-1.518,3.789
				c-1.155-0.318-3.748-10.094-0.318-13.846c-7.581,1.876-13.766,1.594-14.845,0.757c-1.075-0.837,2.194-1.473,2.194-1.473
				s-8.499-0.125-11.67-3.994c-5.875-5.678-7.259-10.837-7.581-12.785c4.693,5.772,15.369,9.543,26.927,9.821
				c13.304,0.318,18.091,2.024,21.392,10.855C329.457,139.716,337.911,135.722,341.91,128.418z"/>
			<path style="fill:#967FBA;" d="M324.322,163.584c-6.503,3.776-15.442,10.081-14.724,11.917c0.718,1.836,0.811,5.986,0.964,8.061
				c0.153,2.075,2.228-0.559,3.904-2.713c1.676-2.155,15.004-11.572,14.525-13.009C328.512,166.403,326.172,162.482,324.322,163.584
				z"/>
			<path style="fill:#312842;" d="M332.448,281.833c-7.232,3.829-14.469-0.43-13.166-10.855c1.303-10.43-1.303-25.754-4.375-36.178
				c-0.34-1.151-0.654-2.476-0.94-3.932c-1.348-6.811-2.163-16.511-2.678-25.037c-0.367-6.144-0.578-11.679-0.725-15.087
				c-0.394-9.153,2.096-14.258,18.427-22.905c24.849,7.953,15.803,26.067,15.588,40.357c-0.21,14.29,8.938,47.459,14.258,57.038
				C364.162,274.807,339.685,278,332.448,281.833z"/>
			<path style="fill:#272138;" d="M313.967,230.868c-1.348-6.811-2.163-16.511-2.678-25.037c6.386-6.032,11.652-18.821,15.306-18.28
				C330.052,188.066,318.638,218.719,313.967,230.868z"/>
			<path style="fill:#FFC5CF;" d="M271.371,256.787c-7.957,1.178-11.8,5.347-16.627,5.795c-0.596,0.063-1.205,0.063-1.84-0.009
				c-5.777-0.64-7.071-4.469-5.557-4.232c1.518,0.237,6.466-2.235,4.393-3.193c-2.078-0.958-2.714-3.112,0-2.472
				c2.141,0.501,5.96-1.128,9.91-1.567c1.057-0.117,2.127-0.148,3.175-0.031L271.371,256.787z"/>
			<path style="fill:#F998AD;" d="M262.791,257.983c0.797-1.648-0.793-4.415-1.142-6.874c1.057-0.117,2.127-0.148,3.175-0.031
				l6.547,5.71c-7.957,1.178-11.8,5.347-16.627,5.795C258.492,261.543,262.137,259.331,262.791,257.983z"/>
			<path style="fill:#FFFFFF;" d="M266.688,247.939c-2.022,1.064-3.299,1.596-3.033,2.713c0.266,1.117,1.717,6.862,3.299,8.885
				c0.745,0.953,7.289-3.033,7.289-3.033"/>
			<path style="fill:#312842;" d="M321.172,236.873c-2.875,3.672-47.087,23.304-49.644,21.867c-1.205-0.681-2.736-2.646-3.887-4.765
				c-1.299-2.36-2.127-4.913-1.536-6.09c0.551-1.115,11.097-6.762,21.549-12.163c10.577-5.459,21.065-10.662,21.065-10.662
				s10.376-18.195,13.407-29.206c0.394-1.438,0.815-2.87,1.258-4.277c2.964-9.368,7.147-17.469,14.227-16.641
				c1.836,0.546,3.318,1.335,4.496,2.329C356.692,189.589,323.828,233.474,321.172,236.873z"/>
			<path style="fill:#272138;" d="M321.172,236.873c-2.875,3.672-47.087,23.304-49.644,21.867c-1.205-0.681-2.736-2.646-3.887-4.765
				c17.993,0.116,46.845-12.561,51.641-19.337c4.406-6.229,22.404-39,22.825-57.373
				C356.692,189.589,323.828,233.474,321.172,236.873z"/>
			<path style="fill:#3F3656;" d="M323.384,191.577c-0.909,12.96-9.234,32.247-10.774,35.238c-1.751,3.408-3.676,2.342-11.021,4.053
				c-3.05,0.712-8.298,2.517-13.936,4.854c10.577-5.459,21.065-10.662,21.065-10.662s10.376-18.195,13.407-29.206
				C322.52,194.416,322.941,192.983,323.384,191.577z"/>
			
				<path style="fill:none;stroke:#272138;stroke-width:1.3434;stroke-linecap:round;stroke-linejoin:round;stroke-miterlimit:10;" d="
				M325.542,248.418c2.446,8.619,18.514,7.482,21.6,4.273"/>
			<path style="fill:#1D182D;" d="M335.529,361.127l-1.59,27.751c0,0,0,0,0,0.582c-5.754,1.872-10.828-0.927-6.865-5.262
				C330.581,380.365,333.93,372.022,335.529,361.127z"/>
		</g>
		<path style="fill:#FCD4DD;" d="M300.927,167.44c-1.845,0.707-3.748,1.146-5.056,0.716c-3.39-1.115-7.581-13.085-8.02-13.524
			c-0.439-0.439-2.794-1.24-2.673-2.436c0.121-1.196,2.114-5.987,2.194-7.662c0.045-0.891-0.273-4.801-0.51-8.876
			c0.354-0.636,0.976,1.308,1.509,4.724c0.717,4.63-2.158,9.977-1.76,11.253c0.403,1.276,2.718,0.398,2.956,2.633
			c0.242,2.235,5.589,13.331,10.694,13.17C300.506,167.431,300.725,167.431,300.927,167.44z"/>
		<path style="fill:#493D66;" d="M245.846,112.131c-0.054,0.098-0.107,0.192-0.157,0.286c-6.005-10.998-16.345-2.141-18.427-6.695
			c-2.288-5.002-14.845-14.155-26.018-9.897c-11.173,4.254-19.686,19.896-21.598,38.771c-1.661,16.359-8.84,11.683-14.384,16.309
			c5.871-6.104,13.466-8.898,12.333-15.803c-1.836-11.182,2.078-27.84,17.796-39.412c15.723-11.571,28.893,5.11,36.393,4.469
			C239.286,99.525,248.546,107.188,245.846,112.131z"/>
	</g>
	<g>
		<g>
			<g>
				<path style="fill:#D86181;" d="M161.623,282.429c0.788-3.168,1.377-6.38,1.757-9.623c0.187-1.591,0.322-3.187,0.405-4.787
					c0.064-1.233,0.235-2.615-0.231-3.796c-0.911-2.309-3.841-1.932-5.546-0.792c-1.883,1.258-3.031,3.52-2.752,5.787
					c0.337-0.193,0.674-0.387,1.011-0.58c-1.038-0.72-1.601-1.907-2.386-2.864c-0.749-0.914-1.727-1.563-2.906-1.752
					c-2.264-0.362-4.546,0.807-5.571,2.859c-1.12,2.244-0.799,4.946,0.598,6.992c1.418,2.077,3.58,3.307,5.912,4.11
					c2.786,0.959,5.931,1.405,8.129,3.536c0.621,0.602,1.572-0.347,0.95-0.95c-4.039-3.914-11.44-2.694-14.267-8.096
					c-1.341-2.562-0.592-6.405,2.581-7.089c3.329-0.718,4.07,2.88,6.283,4.414c0.391,0.271,1.072-0.084,1.011-0.58
					c-0.233-1.893,0.662-3.774,2.308-4.767c0.813-0.49,2.32-1.007,3.105-0.216c0.717,0.722,0.503,2.132,0.465,3.046
					c-0.21,4.992-0.943,9.943-2.149,14.791C160.119,282.911,161.414,283.269,161.623,282.429L161.623,282.429z"/>
			</g>
		</g>
		<g>
			<g>
				<path style="fill:#D86181;" d="M355.367,205.849c0.419-1.913-0.371-3.629-1.212-5.307c-0.974-1.943-1.657-3.919-1.728-6.113
					c-0.029-0.897-0.116-2.149,0.554-2.852c0.568-0.596,1.624-0.739,2.401-0.839c1.209-0.156,1.635,0.668,2.107,1.636
					c0.483,0.991,0.792,2.073,0.929,3.166c0.095,0.758,1.03,0.905,1.32,0.178c0.336-0.842,0.923-1.584,1.667-2.103
					c0.364-0.253,0.76-0.46,1.181-0.6c0.501-0.167,0.762-0.219,1.014,0.279c0.923,1.822,1.921,4.197,0.922,6.183
					c-0.851,1.691-2.584,3.033-4.181,3.979c-1.659,0.982-3.512,1.629-5.425,1.879c-0.845,0.11-0.856,1.455,0,1.343
					c2.496-0.326,4.884-1.181,6.964-2.613c2.006-1.381,4.146-3.336,4.376-5.907c0.122-1.363-0.276-2.712-0.788-3.96
					c-0.368-0.897-0.763-2.392-1.845-2.648c-1.036-0.246-2.358,0.493-3.152,1.093c-0.937,0.708-1.596,1.632-2.029,2.718
					c0.44,0.06,0.88,0.119,1.319,0.179c-0.151-1.208-0.443-2.361-0.94-3.475c-0.419-0.939-0.959-2.087-1.962-2.513
					c-0.909-0.385-2.053-0.126-2.973,0.111c-0.973,0.251-1.881,0.741-2.356,1.663c-0.497,0.964-0.485,2.189-0.44,3.244
					c0.052,1.242,0.262,2.486,0.631,3.673c0.378,1.215,0.964,2.33,1.52,3.469c0.577,1.18,1.123,2.443,0.831,3.779
					C353.887,206.335,355.182,206.695,355.367,205.849L355.367,205.849z"/>
			</g>
		</g>
		<g>
			<g>
				<path style="fill:#D86181;" d="M351.466,321.372c3.423-1.535,5.674-4.972,6.042-8.669c0.165-1.655,0.009-3.86-1.055-5.227
					c-1.045-1.343-2.719-1.086-3.317,0.52c-0.62,1.665,0.173,3.542,1.469,4.642c1.457,1.236,3.399,1.44,5.163,0.774
					c4.148-1.567,5.645-6.66,5.643-10.71c0-1.154-0.632-3.957-2.373-3.3c-1.453,0.548-1.629,2.918-1.32,4.163
					c1.026,4.137,6.181,4.451,9.1,2.159c3.418-2.686,4.634-7.832,3.83-11.954c-0.3-1.539-1.066-4.386-3.014-4.579
					c-1.662-0.164-2.341,1.852-2.157,3.184c0.262,1.892,1.868,3.264,3.791,3.108c2.312-0.187,3.853-2.143,4.51-4.207
					c1.49-4.679,1.041-10.712-1.819-14.774c-0.494-0.702-1.659-0.031-1.16,0.678c1.731,2.46,2.382,5.372,2.377,8.349
					c-0.004,2.573-0.126,6.513-2.543,8.082c-1.303,0.846-3.124,0.705-3.707-0.911c-0.159-0.44-0.322-1.482,0.11-1.831
					c0.422-0.341,1.096,0.078,1.31,0.4c0.259,0.388,0.423,0.842,0.579,1.28c1.034,2.899,0.745,6.263-0.573,9.026
					c-1.2,2.514-3.681,4.869-6.693,4.183c-1.361-0.31-2.424-1.317-2.685-2.708c-0.109-0.578-0.139-1.483,0.263-1.966
					c0.318-0.382,0.1-0.516,0.5-0.021c0.256,0.316,0.3,0.893,0.323,1.287c0.163,2.796-0.699,6.502-2.755,8.499
					c-1.993,1.936-6.054,2.435-6.943-0.927c-0.211-0.798,0.055-2.639,1.118-1.499c0.367,0.393,0.475,1.171,0.578,1.686
					c0.278,1.388,0.176,2.837-0.214,4.193c-0.753,2.621-2.567,4.793-5.058,5.911C350.001,320.565,350.683,321.723,351.466,321.372
					L351.466,321.372z"/>
			</g>
		</g>
		<g>
			<g>
				<path style="fill:#D86181;" d="M145.152,139.415c-0.782-4.486-1.232-9.554,1.646-13.434c2.255-3.041,6.98-4.424,9.869-1.364
					c0.611,0.647,1.047,1.466,1.019,2.374c-0.026,0.869-0.505,2.172-1.608,1.893c-0.906-0.229-1.45-1.489-1.808-2.249
					c-0.489-1.039-0.846-2.142-1.086-3.264c-0.87-4.07-0.175-9.431,2.874-12.515c1.566-1.583,3.876-1.914,5.166,0.16
					c0.472,0.759,0.713,1.683,0.775,2.568c0.053,0.751-0.03,2.847-0.94,1.436c-1.189-1.844-1.341-4.151-1.32-6.283
					c0.021-2.14,0.118-4.351,0.744-6.411c0.606-1.995,1.815-3.756,3.796-4.566c2.199-0.899,4.233-0.105,5.385,1.954
					c0.588,1.051,1.858,4.22,0.094,4.904c-2.092,0.812-2.803-3.711-2.997-4.932c-0.749-4.726,0.09-9.898,2.998-13.786
					c2.772-3.705,7.256-6.034,11.911-5.73c0.863,0.056,0.86-1.287,0-1.343c-5.51-0.36-10.783,2.717-13.704,7.317
					c-1.594,2.51-2.457,5.438-2.719,8.385c-0.254,2.854-0.06,6.211,1.076,8.878c0.737,1.729,2.752,3.646,4.617,2.065
					c1.634-1.385,0.995-4.069,0.236-5.728c-1.062-2.324-3.055-4-5.72-3.671c-2.573,0.318-4.656,2.121-5.716,4.43
					c-1.218,2.651-1.357,5.757-1.346,8.632c0.009,2.342,0.25,6.066,2.361,7.599c0.683,0.496,1.491,0.349,2.005-0.304
					c0.702-0.892,0.667-2.275,0.536-3.335c-0.258-2.084-1.418-4.319-3.613-4.843c-2.635-0.629-4.859,1.564-6.059,3.652
					c-1.46,2.539-2.16,5.529-2.117,8.448c0.041,2.802,0.729,5.911,2.321,8.263c1.143,1.689,3.455,2.404,4.67,0.359
					c1.244-2.095,0.192-4.565-1.587-5.939c-2.055-1.587-4.977-1.904-7.359-0.919c-6.919,2.859-6.76,11.529-5.693,17.656
					C144.005,140.622,145.3,140.262,145.152,139.415L145.152,139.415z"/>
			</g>
		</g>
		<g>
			<g>
				<path style="fill:#FFFFFF;" d="M165.101,241.424c-1.599-0.958-3.482-0.12-4.537,1.229c-1.018,1.301-1.804,3.325-0.562,4.748
					c0.521,0.597,1.305,0.897,2.052,1.092c0.74,0.193,1.523,0.369,2.291,0.358c0.825-0.012,1.667-0.284,2.207-0.938
					c0.525-0.636,0.704-1.432,0.754-2.238c0.057-0.923,0.064-1.996-0.282-2.863c-0.351-0.879-1.189-1.645-2.192-1.553
					c-0.361,0.033-0.672,0.285-0.672,0.672c0,0.338,0.308,0.705,0.672,0.672c1.246-0.114,1.155,1.903,1.144,2.699
					c-0.014,0.964-0.216,2.041-1.344,2.189c-0.589,0.077-1.198-0.056-1.769-0.185c-0.54-0.122-1.106-0.248-1.576-0.556
					c-1.012-0.663-0.497-2.001,0.013-2.82c0.625-1.005,1.903-2.078,3.123-1.347C165.166,243.029,165.843,241.868,165.101,241.424
					L165.101,241.424z"/>
			</g>
		</g>
		<g>
			<g>
				<path style="fill:#FFFFFF;" d="M361.952,239.929c-1.323,0.303-2.373,1.342-2.799,2.615c-0.463,1.384-0.154,3.022,0.738,4.166
					c0.848,1.088,2.274,1.728,3.601,1.126c1.122-0.509,1.755-1.803,1.755-2.995c0-1.593-1.063-2.964-2.181-3.992
					c-0.636-0.584-1.588,0.363-0.95,0.95c0.745,0.685,1.464,1.482,1.715,2.489c0.188,0.754-0.01,1.667-0.64,2.17
					c-0.655,0.524-1.489,0.214-2.026-0.325c-0.703-0.705-1.013-1.811-0.833-2.785c0.193-1.039,0.939-1.887,1.978-2.125
					C363.151,241.032,362.795,239.736,361.952,239.929L361.952,239.929z"/>
			</g>
		</g>
		<g>
			<g>
				<path style="fill:#FFFFFF;" d="M167.639,375.859c-1.073,0.991-2.146,2.111-2.216,3.655c-0.032,0.709,0.19,1.41,0.653,1.949
					c0.48,0.559,1.222,0.819,1.92,0.974c0.785,0.175,1.617,0.317,2.411,0.114c0.621-0.159,1.195-0.541,1.603-1.033
					c0.853-1.027,1.101-2.414,0.553-3.645c-0.614-1.38-2.146-2.261-3.638-2.214c-0.862,0.027-0.866,1.371,0,1.343
					c0.865-0.027,1.767,0.386,2.25,1.125c0.484,0.741,0.45,1.564-0.019,2.297c-0.211,0.33-0.509,0.614-0.91,0.774
					c-0.397,0.159-1.016,0.115-1.502,0.024c-0.5-0.095-1.078-0.182-1.496-0.495c-0.336-0.252-0.47-0.619-0.483-1.006
					c-0.04-1.205,0.967-2.12,1.824-2.911C169.225,376.221,168.274,375.273,167.639,375.859L167.639,375.859z"/>
			</g>
		</g>
		<g>
			<g>
				<path style="fill:#FFFFFF;" d="M292.013,180.835c-0.899-0.267-1.747,0.268-2.472,0.743c-0.715,0.468-1.329,1.047-1.601,1.878
					c-0.489,1.49,0.141,3.298,1.346,4.261c1.216,0.973,3.019,1.115,4.336,0.239c0.723-0.482,1.176-1.191,1.49-1.987
					c0.325-0.823,0.551-1.729,0.391-2.613c-0.306-1.684-2.017-2.886-3.682-2.846c-0.863,0.021-0.866,1.364,0,1.343
					c0.933-0.022,1.926,0.534,2.275,1.436c0.209,0.541,0.111,1.106-0.05,1.654c-0.165,0.559-0.377,1.148-0.786,1.578
					c-0.668,0.704-1.826,0.881-2.689,0.443c-0.92-0.466-1.465-1.492-1.442-2.509c0.015-0.648,0.304-1.143,0.817-1.53
					c0.263-0.198,0.552-0.367,0.835-0.532c0.262-0.153,0.563-0.355,0.874-0.262C292.487,182.378,292.842,181.081,292.013,180.835
					L292.013,180.835z"/>
			</g>
		</g>
		<g>
			<g>
				<path style="fill:#FFFFFF;" d="M351.273,166.555c-2.629-2.506-5.859-5.627-6.308-9.444c-0.202-1.712,0.822-3.899,2.875-3.251
					c1.883,0.594,2.546,2.693,3.086,4.379c0.224,0.699,1.34,0.606,1.319-0.178c-0.047-1.755,0.57-3.813,2.484-4.286
					c1.759-0.435,2.804,1.122,2.764,2.708c-0.046,1.82-1.406,3.3-2.533,4.597c-1.379,1.587-2.67,3.242-3.855,4.978
					c-0.489,0.716,0.675,1.389,1.16,0.678c0.791-1.159,1.625-2.286,2.514-3.372c0.797-0.974,1.664-1.891,2.426-2.893
					c1.25-1.646,2.11-3.723,1.34-5.776c-0.72-1.922-2.733-2.804-4.645-2.061c-2.2,0.855-3.057,3.224-2.998,5.428
					c0.44-0.06,0.88-0.119,1.319-0.179c-0.678-2.118-1.56-4.431-3.834-5.253c-2.076-0.749-4.104,0.555-4.644,2.629
					c-0.599,2.3,0.553,4.842,1.768,6.75c1.315,2.064,3.048,3.817,4.811,5.497C350.949,168.102,351.9,167.153,351.273,166.555
					L351.273,166.555z"/>
			</g>
		</g>
		<g>
			<g>
				<path style="fill:#FFFFFF;" d="M145.455,175.436c-1.221-1.446-2.972-2.141-4.667-2.866c-1.555-0.666-3.458-1.567-4.111-3.26
					c-0.661-1.715,0.604-3.511,2.307-3.916c1.893-0.45,3.7,0.879,4.536,2.487c0.379,0.728,1.335,0.181,1.228-0.518
					c-0.247-1.606,0.73-3.475,2.06-4.375c0.717-0.485,1.569-0.321,2.116,0.347c0.533,0.65,0.628,1.576,0.552,2.381
					c-0.17,1.794-1.212,3.425-2.041,4.98c-0.909,1.704-1.817,3.408-2.726,5.112c-0.407,0.763,0.753,1.442,1.16,0.678
					c1.201-2.251,2.432-4.49,3.599-6.758c0.99-1.924,1.919-4.255,0.999-6.388c-0.844-1.955-3.085-2.578-4.736-1.208
					c-1.631,1.354-2.604,3.474-2.279,5.588c0.409-0.173,0.819-0.345,1.228-0.518c-0.995-1.912-3.057-3.382-5.279-3.223
					c-2.085,0.149-4.014,1.824-4.238,3.942c-0.237,2.246,1.51,3.998,3.311,5.026c2.016,1.151,4.472,1.595,6.03,3.439
					C145.063,177.048,146.01,176.093,145.455,175.436L145.455,175.436z"/>
			</g>
		</g>
		<g>
			<g>
				<path style="fill:#FFFFFF;" d="M82.089,194.764c8.405-1.33,17.122-2.845,24.322-7.684c3.018-2.028,5.697-4.585,7.631-7.679
					c2.319-3.709,3.463-7.993,4.571-12.181c0.221-0.837-1.074-1.193-1.296-0.357c-1.08,4.08-2.177,8.246-4.436,11.86
					c-1.951,3.12-4.717,5.662-7.809,7.628c-6.986,4.444-15.304,5.845-23.342,7.117C80.881,193.603,81.242,194.898,82.089,194.764
					L82.089,194.764z"/>
			</g>
		</g>
		<g>
			<g>
				<path style="fill:#FFFFFF;" d="M86.118,194.68c5.161,2.36,9.533,6.1,12.625,10.864c0.427,0.658,1.363,0.226,1.228-0.518
					c-0.757-4.159-0.934-8.471-0.358-12.667c0.07-0.512,0.052-1.309,0.839-1.314c0.372-0.003,1.012,0.447,1.378,0.622
					c0.928,0.442,1.841,0.915,2.739,1.415c1.668,0.931,3.273,1.964,4.824,3.078c0.54,0.387,1.056-0.252,0.987-0.759
					c-0.273-1.994-0.422-4.004-0.437-6.017c-0.007-0.956,0.015-1.913,0.066-2.868c0.059-1.097-0.045-2.394,1.148-2.914
					c1.499-0.653,3.967-0.269,5.511,0.023c1.804,0.34,3.511,0.983,5.114,1.873c0.683,0.379,1.314-0.488,0.814-1.055
					c-2.746-3.11-4.778-6.73-6.015-10.69c-0.257-0.823-1.554-0.471-1.295,0.357c1.307,4.185,3.46,7.996,6.361,11.283
					c0.271-0.352,0.543-0.703,0.814-1.055c-1.986-1.103-4.127-1.851-6.381-2.161c-1.8-0.247-4.491-0.567-6.098,0.518
					c-1.572,1.062-1.333,3.619-1.37,5.255c-0.06,2.615,0.12,5.218,0.474,7.809c0.329-0.253,0.658-0.506,0.987-0.759
					c-2.029-1.457-4.154-2.771-6.378-3.908c-1.319-0.675-3.78-2.422-4.924-0.636c-0.51,0.795-0.516,1.952-0.609,2.853
					c-0.139,1.347-0.211,2.701-0.218,4.055c-0.013,2.693,0.252,5.372,0.733,8.02c0.409-0.173,0.818-0.345,1.228-0.518
					c-3.211-4.948-7.74-8.891-13.107-11.346C86.016,193.163,85.332,194.321,86.118,194.68L86.118,194.68z"/>
			</g>
		</g>
		<g>
			<g>
				<path style="fill:#FFFFFF;" d="M367.542,216.608c8.846,11.024,24.066,16.142,37.784,12.8c0.84-0.205,0.484-1.5-0.357-1.296
					c-13.288,3.237-27.927-1.8-36.477-12.454C367.951,214.984,367.006,215.939,367.542,216.608L367.542,216.608z"/>
			</g>
		</g>
		<g>
			<g>
				<path style="fill:#FFFFFF;" d="M368.551,218.735c1.573,4.935,1.367,10.176-0.562,14.98c-0.286,0.712,0.866,1.173,1.228,0.518
					c0.963-1.747,2.181-3.314,3.67-4.645c0.814-0.728,1.698-1.372,2.637-1.928c0.834-0.494,2.277-1.62,2.837-0.35
					c0.908,2.061,1.144,4.747,1.274,6.956c0.142,2.408-0.013,4.816-0.441,7.189c-0.13,0.723,0.814,1.203,1.228,0.518
					c2.293-3.794,5.581-6.898,9.531-8.923c0.809-0.415,2.451-1.534,3.197-0.779c0.793,0.802,1.147,2.533,1.496,3.592
					c0.824,2.505,1.313,5.092,1.492,7.721c0.052,0.76,1.067,0.907,1.319,0.178c1.573-4.545,3.796-8.804,6.602-12.709
					c0.505-0.703-0.659-1.375-1.16-0.678c-2.873,3.999-5.127,8.377-6.737,13.03c0.44,0.059,0.88,0.119,1.32,0.179
					c-0.214-3.131-0.829-6.219-1.919-9.166c-0.405-1.096-0.81-2.645-1.743-3.416c-0.875-0.722-1.844-0.318-2.78,0.072
					c-4.909,2.048-9.031,5.678-11.777,10.222c0.409,0.173,0.818,0.345,1.228,0.518c0.532-2.949,0.689-5.945,0.375-8.929
					c-0.151-1.44-0.394-2.871-0.741-4.276c-0.253-1.022-0.479-2.415-1.437-3.046c-1.658-1.093-4.567,1.321-5.802,2.288
					c-1.987,1.554-3.612,3.5-4.828,5.707c0.409,0.173,0.819,0.345,1.228,0.518c2.01-5.005,2.2-10.558,0.563-15.695
					C369.585,217.557,368.288,217.908,368.551,218.735L368.551,218.735z"/>
			</g>
		</g>
		<g>
			<g>
				<path style="fill:#FFFFFF;" d="M237.844,301.147c1.735,3.574,2.874,7.407,3.408,11.343c0.116,0.853,1.41,0.49,1.295-0.357
					c-0.55-4.056-1.756-7.983-3.543-11.663C238.626,299.691,237.467,300.371,237.844,301.147L237.844,301.147z"/>
			</g>
		</g>
		<g>
			<g>
				<path style="fill:#FFFFFF;" d="M243.559,306.085c0.104,0.32,0.207,0.64,0.311,0.96c0.054,0.165,0.156,0.312,0.309,0.401
					c0.077,0.049,0.16,0.076,0.25,0.08c0.089,0.02,0.179,0.016,0.268-0.012c0.163-0.053,0.319-0.153,0.401-0.309
					c0.082-0.156,0.124-0.345,0.068-0.518c-0.104-0.32-0.207-0.64-0.311-0.96c-0.054-0.165-0.156-0.312-0.309-0.401
					c-0.077-0.049-0.16-0.076-0.25-0.08c-0.089-0.02-0.179-0.016-0.268,0.012c-0.162,0.053-0.319,0.153-0.401,0.309
					C243.544,305.723,243.503,305.912,243.559,306.085L243.559,306.085z"/>
			</g>
		</g>
		<g>
			<g>
				<path style="fill:#FFFFFF;" d="M155.755,323.762c-2.806,4.43-4.446,9.497-4.805,14.726c-0.059,0.863,1.285,0.859,1.343,0
					c0.342-4.994,1.944-9.822,4.621-14.048C157.379,323.707,156.217,323.033,155.755,323.762L155.755,323.762z"/>
			</g>
		</g>
		<g>
			<g>
				<path style="fill:#FFFFFF;" d="M144.981,329.073c-0.35,1.696-0.701,3.392-1.051,5.088c-0.073,0.355,0.103,0.726,0.469,0.826
					c0.333,0.091,0.753-0.112,0.826-0.469c0.35-1.696,0.701-3.392,1.051-5.088c0.073-0.355-0.103-0.726-0.469-0.826
					C145.474,328.513,145.054,328.716,144.981,329.073L144.981,329.073z"/>
			</g>
		</g>
		<g>
			<g>
				<path style="fill:#FFFFFF;" d="M354.751,104.774c1.619-3.438,3.918-6.493,6.776-8.998c0.651-0.571-0.302-1.518-0.95-0.95
					c-2.933,2.57-5.324,5.741-6.986,9.27C353.225,104.874,354.383,105.556,354.751,104.774L354.751,104.774z"/>
			</g>
		</g>
		<g>
			<g>
				<path style="fill:#FFFFFF;" d="M356.622,111.567c2.889-2.013,6.177-3.333,9.655-3.881c0.361-0.057,0.554-0.504,0.469-0.826
					c-0.101-0.383-0.47-0.525-0.826-0.469c-3.577,0.564-7.005,1.946-9.976,4.016C355.239,110.898,355.91,112.063,356.622,111.567
					L356.622,111.567z"/>
			</g>
		</g>
		<g>
			<g>
				<path style="fill:#FFFFFF;" d="M363.54,122.353c0.958-0.103,1.916-0.207,2.874-0.31c0.183-0.02,0.34-0.062,0.475-0.197
					c0.117-0.117,0.204-0.308,0.197-0.475c-0.015-0.332-0.298-0.712-0.672-0.672c-0.958,0.103-1.916,0.207-2.874,0.31
					c-0.183,0.02-0.34,0.062-0.475,0.197c-0.117,0.117-0.204,0.308-0.197,0.475C362.883,122.013,363.166,122.393,363.54,122.353
					L363.54,122.353z"/>
			</g>
		</g>
		<g>
			<g>
				<path style="fill:#FFFFFF;" d="M216.329,73.717c0.991,2.862,1.982,5.723,2.973,8.585c0.281,0.812,1.579,0.463,1.295-0.357
					c-0.991-2.861-1.982-5.723-2.973-8.585C217.343,72.548,216.045,72.897,216.329,73.717L216.329,73.717z"/>
			</g>
		</g>
		<g>
			<g>
				<path style="fill:#FFFFFF;" d="M222.973,77.777c0.287,0.251,0.552,0.524,0.788,0.823c-0.055-0.07,0.018,0.025,0.037,0.051
					c0.027,0.036,0.053,0.072,0.078,0.109c0.051,0.073,0.101,0.148,0.149,0.223c0.109,0.17,0.209,0.345,0.301,0.524
					c0.041,0.08,0.08,0.16,0.117,0.242c0.019,0.041,0.037,0.081,0.055,0.123c0.027,0.062-0.018-0.05,0.022,0.057
					c0.066,0.179,0.13,0.357,0.183,0.54c0.053,0.183,0.097,0.368,0.133,0.554c0.017,0.088,0.032,0.176,0.045,0.265
					c-0.017-0.115,0.003,0.033,0.005,0.055c0.006,0.056,0.011,0.111,0.015,0.167c0.029,0.349,0.288,0.689,0.672,0.672
					c0.339-0.015,0.703-0.297,0.672-0.672c-0.149-1.79-0.964-3.495-2.324-4.682c-0.265-0.231-0.693-0.28-0.95,0
					C222.741,77.08,222.69,77.531,222.973,77.777L222.973,77.777z"/>
			</g>
		</g>
		<g>
			<g>
				<path style="fill:#FFFFFF;" d="M234.927,79.416c-0.247,1.804-0.494,3.609-0.742,5.413c-0.049,0.359,0.087,0.721,0.469,0.826
					c0.314,0.086,0.777-0.107,0.826-0.469c0.247-1.804,0.494-3.608,0.742-5.413c0.049-0.359-0.087-0.721-0.469-0.826
					C235.44,78.861,234.976,79.054,234.927,79.416L234.927,79.416z"/>
			</g>
		</g>
	</g>
</g>
</svg>
