<svg width="352" height="353" viewBox="0 0 352 353" fill="none" xmlns="http://www.w3.org/2000/svg">
<g clip-path="url(#clip0_3_224)">
<path d="M189.953 3.47334C176.079 6.18213 168.104 15.8303 161.809 25.4853C153.219 39.0033 145.898 53.3562 140.255 67.7161C115.955 134.276 120.111 196.252 148.331 253.071C155.563 267.484 165.21 280.8 174.829 296.053C156.45 300.68 139.032 293.969 119.944 297.763C123.045 304.691 129.35 305.547 134.536 306.398C155.84 309.805 177.468 312.937 199.183 315.515C209.643 316.665 214.325 313.642 215.906 303.691C219.48 282.96 216.309 264.139 206.306 247.778C205.834 247.223 204.155 247.216 201.68 246.929C190.352 261.819 206.567 274.333 199.306 290.069C177.844 275.321 166.156 253.698 156.883 230.978C147.226 207.151 140.219 182.505 139.722 155.673C139.137 129.393 144.385 103.414 151.96 76.8921C158.976 50.3675 172.033 26.3572 189.953 3.47334Z" fill="white"/>
</g>
<defs>
<clipPath id="clip0_3_224">
<rect width="244.518" height="254.566" fill="white" transform="matrix(-0.761906 0.647688 0.647688 0.761906 187 0)"/>
</clipPath>
</defs>
</svg>
