<svg width="404" height="136" viewBox="0 0 404 136" fill="none" xmlns="http://www.w3.org/2000/svg">
<g clip-path="url(#clip0_3_228)">
<path d="M-5.02926e-06 136C17.8824 84.9757 113.352 17.0773 181.42 5.02436C254.969 -8.23391 297.367 3.01553 383.895 59.6645C382.742 51.6292 381.3 45.2009 380.723 39.1744C379.857 32.3444 378.992 25.1126 379.281 18.2826C379.281 16.2738 381.876 12.6579 383.607 12.2561C385.338 11.8544 388.222 14.6667 388.799 16.6756C393.99 35.9603 398.605 55.2451 403.508 74.9316C404.95 81.3598 403.22 86.181 398.317 88.1899C379.569 94.6181 360.821 101.448 341.785 107.475C337.459 108.68 332.267 107.073 326.499 107.073C331.113 89.7969 341.497 91.8057 348.996 87.3863C356.783 82.5651 365.148 79.7528 375.243 74.9316C351.303 52.4327 327.075 38.3709 301.405 29.5321C207.379 -3.41272 120.851 23.9073 40.9566 97.0287C30.5732 106.671 21.0552 117.921 10.9602 127.965C7.78756 129.973 4.90324 131.982 -5.02926e-06 136Z" fill="white"/>
</g>
<defs>
<clipPath id="clip0_3_228">
<rect width="404" height="136" fill="white"/>
</clipPath>
</defs>
</svg>
