<?xml version="1.0" encoding="utf-8"?>
<!-- Generator: Adobe Illustrator 27.5.0, SVG Export Plug-In . SVG Version: 6.00 Build 0)  -->
<svg version="1.1" xmlns="http://www.w3.org/2000/svg" xmlns:xlink="http://www.w3.org/1999/xlink" x="0px" y="0px"
	 viewBox="0 0 500 500" style="enable-background:new 0 0 500 500;" xml:space="preserve">
<g id="BACKGROUND">
</g>
<g id="OBJECTS">
	<g>
		<g>
			<ellipse style="fill:#BCBEC0;" cx="121.889" cy="392.642" rx="85" ry="3.333"/>
			<path style="fill:#C93D43;" d="M94.306,180.809c0,0-14.25,27.625-17.125,28l-13.25,8c0.5,2.125,6.375,12.125,12.5,11.125
				s18.25-17.75,18.25-17.75L94.306,180.809z"/>
			<g>
				<path style="fill:#7D262A;" d="M88.014,218.498c3.72-4.246,6.667-8.315,6.667-8.315l-0.375-29.375
					c0,0-5.653,10.958-10.557,19.165C86.938,205.552,88.438,212.087,88.014,218.498z"/>
			</g>
			<path style="fill:#CF9E76;" d="M206.404,243.221c-0.553-1.244-10.367-6.359-12.717-6.359s-3.041,1.106-3.87,0.829
				c-0.829-0.276-7.879-7.05-7.879-7.05l-4.7,5.253c0,0,7.05,6.359,7.188,7.05c0.138,0.691,0,6.359,0.415,7.879
				c0.415,1.521,4.562,3.594,5.253,2.765c0.691-0.829,2.35-6.082,3.456-6.082c1.106,0,4.7,2.488,4.976,4.285
				c0.277,1.797-0.929,7.768-0.138,8.017c0.794,0.25,1.842-0.117,2.488-1.106c1.126-1.724,2.685-4.318,1.797-6.082
				c0,0,1.659-0.415,1.935-1.244c0.276-0.829,0.138-1.797,0.138-1.797s1.521-0.691,1.521-1.659c0-0.968-0.553-1.935-0.553-1.935
				S206.957,244.465,206.404,243.221z"/>
			<path style="fill:#5C4D31;" d="M182.056,363.642l-7.833,5c0,0,2.667,3.667,3,4.5c0.333,0.833,3.667,8.167,3.667,8.167
				l6.667-1.667l2-9.833C189.556,369.809,183.723,368.142,182.056,363.642z"/>
			<polygon style="fill:#5C4D31;" points="75.056,367.142 72.556,371.142 67.889,375.642 74.556,380.809 79.556,379.475 
				85.556,368.975 			"/>
			<path style="fill:#1C1110;" d="M144.223,254.642l-20.333,27l47.333,90c0,0,12-3,14-11L144.223,254.642z"/>
			<path style="fill:#1C1110;" d="M142.556,233.975l-36.667,15l7.333,14.667L71.556,366.975l13.667,6.333
				c0,0,53.667-82.333,60.333-106C152.223,243.642,142.556,233.975,142.556,233.975z"/>
			<path style="fill:#A3C2D1;" d="M184.556,229.975l-7.5,9c0,0,3.167,5,4.333,4.5c1.167-0.5,7.738-2.691,9-9
				C190.723,232.809,184.556,229.975,184.556,229.975z"/>
			<g>
				<path style="fill:#C93D43;" d="M119.056,164.642c-8.25,1.417-12.167,3.5-12.167,3.5l-13.5,9.833c0,0-3.833,8-2.667,21.333
					c1.167,13.333,4.833,17.667,7.5,28.833c2.667,11.167,1.5,21.667,9.667,22.833c8.167,1.167,37-10.833,38.167-16
					c1.167-5.167-7-16.333-7.667-20.167c-0.667-3.833-2.667-9.333-2.667-9.333l41.5,34.5c0,0,5.667-0.667,9.5-9.833
					C186.723,230.142,127.306,163.225,119.056,164.642z"/>
			</g>
			<path style="fill:#A3C2D1;" d="M92.556,178.475c0,0-1.167,9.333,0.833,9.833s8.333-12.667,8.333-12.667L92.556,178.475z"/>
			<path style="fill:#A3C2D1;" d="M100.392,162.058c-1.472,0.287-12.155,12.558-12.027,13.212c0.128,0.654,4.803,7.214,5.493,6.401
				c0.69-0.814,10.727-14.657,10.34-15.77C103.81,164.787,100.392,162.058,100.392,162.058z"/>
			<g>
				<path style="fill:#1C1110;" d="M117.92,118.153c0,0,0.766,0,0.766-3.066s-2.395-3.641-6.131-3.928s-11.975-1.629-18.298-3.449
					c-6.987-2.011-19.16-3.545-23.471,4.982s1.437,17.244,1.724,17.149l16.478,27.208l10.347,4.215c0,0,9.58,0.383,9.963-0.575
					c0.383-0.958-2.299-2.491-2.299-2.491s6.036-1.629,6.323-2.203s-2.299-1.341-3.353-2.874c-1.054-1.533,2.395-7.952,7.377-18.49
					S117.92,118.153,117.92,118.153z"/>
				<g>
					<defs>
						<path id="SVGID_1_" d="M117.92,118.153c0,0,0.766,0,0.766-3.066s-2.395-3.641-6.131-3.928s-11.975-1.629-18.298-3.449
							c-6.987-2.011-19.16-3.545-23.471,4.982s1.437,17.244,1.724,17.149l16.478,27.208l10.347,4.215c0,0,9.58,0.383,9.963-0.575
							c0.383-0.958-2.299-2.491-2.299-2.491s6.036-1.629,6.323-2.203s-2.299-1.341-3.353-2.874
							c-1.054-1.533,2.395-7.952,7.377-18.49S117.92,118.153,117.92,118.153z"/>
					</defs>
					<clipPath id="SVGID_00000031928842181379444170000017888419520664690595_">
						<use xlink:href="#SVGID_1_"  style="overflow:visible;"/>
					</clipPath>
					<path style="clip-path:url(#SVGID_00000031928842181379444170000017888419520664690595_);fill:#61756D;" d="M73.731,121.696
						c-0.807-6.479,1.429-13.046,6.043-17.671c0.227-0.228-0.128-0.58-0.355-0.352c-4.696,4.707-7.01,11.418-6.187,18.019
						C73.27,122.007,73.77,122.014,73.731,121.696L73.731,121.696z"/>
					<path style="clip-path:url(#SVGID_00000031928842181379444170000017888419520664690595_);fill:#61756D;" d="M81.488,104.198
						c-1.344,3.014-1.567,6.426-0.55,9.577c1.137,3.523,3.821,5.846,6.338,8.402c2.86,2.905,5.206,6.3,6.162,10.311
						c0.897,3.768,0.788,7.718,1.902,11.441c1.203,4.022,4.057,6.995,6.995,9.852c0.231,0.224,0.583-0.13,0.352-0.355
						c-2.701-2.626-5.428-5.37-6.669-9.018c-1.16-3.409-1.171-7.058-1.796-10.576c-0.614-3.459-2.041-6.542-4.204-9.308
						c-2.199-2.812-5.23-4.947-7.192-7.938c-2.352-3.585-2.642-8.245-0.905-12.138C82.051,104.157,81.619,103.904,81.488,104.198
						L81.488,104.198z"/>
					<path style="clip-path:url(#SVGID_00000031928842181379444170000017888419520664690595_);fill:#61756D;" d="M86.554,105.286
						c3.768,2.688,2.535,8.025,4.049,11.833c0.691,1.738,1.975,3.054,3.238,4.39c1.515,1.603,2.609,3.209,3.139,5.373
						c0.837,3.415,1.011,6.715,4.099,8.926c1.806,1.293,3.723,2.214,4.985,4.131c1.167,1.773,1.631,3.82,2.484,5.735
						c1.866,4.189,7.103,5.846,11.298,6.484c0.315,0.048,0.45-0.434,0.132-0.482c-2.397-0.364-4.727-1.066-6.886-2.18
						c-2.292-1.182-3.653-2.755-4.54-5.163c-0.658-1.787-1.246-3.583-2.395-5.132c-1.028-1.387-2.42-2.262-3.854-3.176
						c-1.962-1.25-3.273-2.673-3.911-4.946c-0.498-1.775-0.655-3.63-1.228-5.385c-1.236-3.792-5.198-5.703-6.36-9.515
						c-1.166-3.826-0.315-8.695-4.001-11.325C86.542,104.666,86.294,105.1,86.554,105.286L86.554,105.286z"/>
					<path style="clip-path:url(#SVGID_00000031928842181379444170000017888419520664690595_);fill:#61756D;" d="M92.852,104.891
						c4.111,0.972,4.793,5.628,5.362,9.127c0.526,3.235,1.453,5.959,4.134,8.007c1.406,1.074,2.989,1.941,4.223,3.226
						c1.283,1.337,1.996,3.064,2.755,4.724c1.365,2.987,3.264,5.573,5.881,7.585c2.693,2.07,5.862,3.37,9.227,3.807
						c0.319,0.041,0.319-0.459,0.004-0.5c-3.473-0.451-6.768-1.891-9.463-4.129c-2.75-2.284-4.311-5.111-5.799-8.294
						c-0.653-1.397-1.404-2.739-2.523-3.818c-1.127-1.087-2.493-1.879-3.747-2.804c-1.683-1.242-2.882-2.746-3.517-4.762
						c-0.521-1.653-0.7-3.383-1.002-5.083c-0.565-3.176-1.908-6.742-5.402-7.568C92.671,104.334,92.538,104.816,92.852,104.891
						L92.852,104.891z"/>
					<path style="clip-path:url(#SVGID_00000031928842181379444170000017888419520664690595_);fill:#61756D;" d="M98.903,106.935
						c2.208,3.218,4.417,6.436,6.625,9.655c1.871,2.727,3.651,5.568,5.81,8.082c1.901,2.214,4.173,4.03,6.974,4.943
						c1.579,0.515,3.23,0.764,4.873,0.976c1.322,0.171,2.677,0.427,3.869-0.308c0.273-0.168,0.022-0.601-0.253-0.431
						c-1.376,0.849-3.385,0.294-4.879,0.063c-1.604-0.248-3.199-0.595-4.691-1.247c-2.803-1.225-4.945-3.477-6.766-5.876
						c-3.937-5.186-7.446-10.742-11.13-16.11C99.153,106.419,98.72,106.669,98.903,106.935L98.903,106.935z"/>
					<path style="clip-path:url(#SVGID_00000031928842181379444170000017888419520664690595_);fill:#61756D;" d="M106.089,106.864
						c0.557,4.297,2.91,8.132,6.496,10.567c3.995,2.713,9.345,4.018,11.624,8.684c0.141,0.289,0.572,0.035,0.431-0.253
						c-1.977-4.048-6.293-5.689-9.994-7.76c-4.375-2.447-7.42-6.316-8.074-11.367C106.531,106.417,106.049,106.549,106.089,106.864
						L106.089,106.864z"/>
				</g>
				<path style="fill:#61756D;" d="M71.168,114.991c4.311-8.526,16.484-6.993,23.471-4.982c6.323,1.82,14.562,3.161,18.298,3.449
					c2.854,0.22,4.921,0.611,5.74,2.147c0.005-0.163,0.008-0.334,0.008-0.519c0-3.066-2.395-3.641-6.131-3.928
					s-11.975-1.629-18.298-3.449c-6.987-2.011-19.16-3.545-23.471,4.982c-1.933,3.823-1.842,7.682-1.129,10.77
					C69.395,120.857,69.691,117.913,71.168,114.991z"/>
			</g>
			<g>
				<path style="fill:#CF9E76;" d="M102.806,156.184c0,0,8.625-3,4.75-10.5s-8.75,3-10.5,4.375s-4,1.75-4.25,1.25
					s1.625-3.5,1.625-3.5s-1.375,2.125-2,1.375s3.125-9.125-0.125-14.125s-17.75-7-18.75-15.5c0,0-2.125,2.75-2.5,8.25
					c-0.375,5.5,0.375,10.75-0.5,11.75c-0.04,0.046-0.099,0.095-0.157,0.145c0.39,5.008-1.436,6.828-2.781,7.48
					c0.032,0.085,0.055,0.169,0.063,0.25c0.125,1.25,1.5,14.5,2.625,16.375s17.625-1.25,18.375-0.75s7,10.125,7,10.125
					s-2.5,11.875-2,12.375s8.125-17.875,17.125-19.5L102.806,156.184z"/>
				<path style="fill:#C93D43;" d="M70.399,139.703c-1.2,1.017-5.968,2.657-5.968,3.73c0,1.051,2.728,2.539,3.187,3.75
					C68.963,146.532,70.789,144.711,70.399,139.703z"/>
			</g>
			<g>
				<defs>
					<path id="SVGID_00000083079322280278548400000005393178896254295943_" d="M102.806,156.184c0,0,8.625-3,4.75-10.5
						s-8.75,3-10.5,4.375s-4,1.75-4.25,1.25s1.625-3.5,1.625-3.5s-1.375,2.125-2,1.375s3.125-9.125-0.125-14.125
						s-17.75-7-18.75-15.5c0,0-2.125,2.75-2.5,8.25c-0.375,5.5,0.375,10.75-0.5,11.75c-0.04,0.046-0.099,0.095-0.157,0.145
						c0.39,5.008-1.436,6.828-2.781,7.48c0.032,0.085,0.055,0.169,0.063,0.25c0.125,1.25,1.5,14.5,2.625,16.375
						s17.625-1.25,18.375-0.75s7,10.125,7,10.125s-2.5,11.875-2,12.375s8.125-17.875,17.125-19.5L102.806,156.184z"/>
				</defs>
				<clipPath id="SVGID_00000160167976210859258770000008001720312655291776_">
					<use xlink:href="#SVGID_00000083079322280278548400000005393178896254295943_"  style="overflow:visible;"/>
				</clipPath>
				<path style="clip-path:url(#SVGID_00000160167976210859258770000008001720312655291776_);fill:#1C1110;" d="M73.325,138.082
					c-0.462,1.625-0.323,4.116,2.013,3.779c1.989-0.287,3.686-2.085,4.516-3.808c0.278-0.577-0.586-1.081-0.866-0.5
					c-0.53,1.1-1.289,2.033-2.328,2.689c-0.432,0.273-1.117,0.704-1.642,0.659c-1.348-0.116-0.969-1.709-0.728-2.555
					C74.466,137.725,73.5,137.463,73.325,138.082L73.325,138.082z"/>
				<path style="clip-path:url(#SVGID_00000160167976210859258770000008001720312655291776_);fill:#1C1110;" d="M72.587,130.559
					c0.064,1.445,0.891,2.434,2.402,1.814c0.978-0.402,1.851-1.074,2.817-1.517c0.745-0.342,3.374-1.733,4.149-0.95
					c0.452,0.458,1.157-0.252,0.703-0.711c-1.019-1.031-2.67-0.272-3.809,0.151c-0.869,0.323-1.72,0.701-2.537,1.137
					c-0.745,0.397-2.641,1.964-2.725,0.083C73.559,129.924,72.558,129.915,72.587,130.559L72.587,130.559z"/>
				<path style="clip-path:url(#SVGID_00000160167976210859258770000008001720312655291776_);fill:#1C1110;" d="M67.202,157.142
					c2.611-1.75,5.4-3.159,8.365-4.204c0.603-0.213,0.349-1.18-0.259-0.966c-3.048,1.075-5.927,2.508-8.613,4.308
					C66.164,156.635,66.666,157.501,67.202,157.142L67.202,157.142z"/>
				<path style="clip-path:url(#SVGID_00000160167976210859258770000008001720312655291776_);fill:#1C1110;" d="M98.675,154.401
					c1.997-3.691,6.181-7.727,10.76-6.524c0.623,0.164,0.887-0.801,0.264-0.965c-5.03-1.322-9.668,2.88-11.89,6.989
					C97.503,154.467,98.368,154.968,98.675,154.401L98.675,154.401z"/>
				<path style="clip-path:url(#SVGID_00000160167976210859258770000008001720312655291776_);fill:#1C1110;" d="M101.06,150.984
					c0.675,0.379,1.254,0.852,1.765,1.434c0.425,0.483,1.127-0.229,0.703-0.711c-0.563-0.64-1.225-1.172-1.969-1.589
					C100.998,149.803,100.498,150.669,101.06,150.984L101.06,150.984z"/>
				
					<circle style="clip-path:url(#SVGID_00000160167976210859258770000008001720312655291776_);fill:#DFB28B;" cx="83.681" cy="148.309" r="3.75"/>
			</g>
			<path style="fill:#A3C2D1;" d="M110.309,161.277c-1.499,0.065-13.887,10.612-13.858,11.278c0.029,0.666,3.677,7.848,4.481,7.146
				c0.804-0.702,12.786-12.9,12.569-14.058C113.284,164.485,110.309,161.277,110.309,161.277z"/>
			<path style="fill:#BCBEC0;" d="M118.223,189.809c0,0,11.124,28.98,24.456,34.133c-1.917-3.751-3.969-7.29-4.289-9.133
				c-0.667-3.833-2.667-9.333-2.667-9.333S122.556,191.809,118.223,189.809z"/>
			<path style="fill:#A3C2D1;" d="M131.939,296.934c6.523-10.895,11.977-22.578,15.191-34.892c0.081-0.312-0.401-0.444-0.482-0.132
				c-3.204,12.276-8.639,23.913-15.142,34.774C131.341,296.96,131.774,297.21,131.939,296.934L131.939,296.934z"/>
			<path style="fill:#B0935E;" d="M58.556,370.475c-6.097,0.938-13,1.667-14.5,6c-1.5,4.333,21.667,7,24.333,8
				c2.667,1,10.833,4.667,12.333,3.333c1.5-1.333,5.167-11.333,4.667-12.333s-1.833-3.833-3.167-2.667
				c-1.333,1.167-5.167,7.333-8.667,5.333s1.167-6.833,0.833-7.667c-0.333-0.833-1.333-3-2.167-2.667
				c-0.833,0.333-1.833,2.833-2.833,3.167C68.389,371.309,60.723,370.142,58.556,370.475z"/>
			<path style="fill:#B0935E;" d="M177.723,382.975c0,0,0.5-4,1.667-4.833c1.167-0.833,3.333-0.5,3.667,0.333
				c0.333,0.833,2.167,1,3-0.5c0.833-1.5,1.833-4.5,0.333-5s-0.667-5.667,0.833-5.833s10.667,6,10.5,6.833
				c-0.167,0.833-6.5,15.667-7.667,16.333c-1.167,0.667-20.833,2-21.5,1.167C167.889,390.642,169.723,383.142,177.723,382.975z"/>
			<g>
				<defs>
					<path id="SVGID_00000121265655470643140130000007025233544848403857_" d="M65.056,199.184
						c-2.678,3.515-5.375,13.625-3.75,17.375s7.625,4.5,9.125,4s6.875-5.25,6.75-11.75c0.125-0.125,3.875-2.625,1.875-6.25
						S67.056,196.559,65.056,199.184z"/>
				</defs>
				<clipPath id="SVGID_00000145023848601224007630000012247222920302650558_">
					<use xlink:href="#SVGID_00000121265655470643140130000007025233544848403857_"  style="overflow:visible;"/>
				</clipPath>
				<path style="clip-path:url(#SVGID_00000145023848601224007630000012247222920302650558_);fill:#CF9E76;" d="M65.056,199.184
					c-2.678,3.515-5.375,13.625-3.75,17.375s7.625,4.5,9.125,4s6.875-5.25,6.75-11.75c0.125-0.125,3.875-2.625,1.875-6.25
					S67.056,196.559,65.056,199.184z"/>
				<path style="clip-path:url(#SVGID_00000145023848601224007630000012247222920302650558_);fill:#1C1110;" d="M67.527,221.082
					c1.825,0.477,4.378-1.718,3.722-3.648c-0.811-2.384-4.191-3.418-6.305-4.124c-0.612-0.204-0.872,0.761-0.264,0.965
					c1.44,0.481,2.909,0.976,4.149,1.877c0.726,0.527,1.576,1.204,1.41,2.155c-0.164,0.941-1.44,2.074-2.447,1.811
					C67.167,219.954,66.904,220.919,67.527,221.082L67.527,221.082z"/>
				<path style="clip-path:url(#SVGID_00000145023848601224007630000012247222920302650558_);fill:#1C1110;" d="M71.413,217.287
					c1.561-1.474,2.644-4.006,1.834-6.135c-0.827-2.174-3.92-3.382-5.938-4.061c-0.612-0.206-0.872,0.76-0.264,0.965
					c1.649,0.555,3.964,1.479,4.992,2.972c1.202,1.746,0.016,4.28-1.335,5.556C70.234,217.025,70.944,217.729,71.413,217.287
					L71.413,217.287z"/>
				<path style="clip-path:url(#SVGID_00000145023848601224007630000012247222920302650558_);fill:#1C1110;" d="M73.414,212.33
					c2.592-1.357,4.1-3.773,3.021-6.697c-1.041-2.822-3.872-4.215-6.626-4.875c-0.626-0.15-0.891,0.815-0.264,0.965
					c2.206,0.529,4.574,1.51,5.68,3.634c1.349,2.589,0.09,4.852-2.317,6.111C72.338,211.765,72.844,212.628,73.414,212.33
					L73.414,212.33z"/>
			</g>
			<path style="fill:#CF9E76;" d="M77.181,208.809"/>
			<path style="fill:#B38866;" d="M79.556,206.684c0.858-0.172,2.875,1.5,3,2.625s-2.5,6.875-4.375,7.25s-4.125-0.625-4-2.625
				S78.306,206.934,79.556,206.684z"/>
		</g>
		<g>
			<g>
				<path style="fill:#A3C2D1;" d="M405.278,180.809c0,0,14.25,27.625,17.125,28l13.25,8c-0.5,2.125-6.375,12.125-12.5,11.125
					s-18.25-17.75-18.25-17.75L405.278,180.809z"/>
				<g>
					<path style="fill:#BCBEC0;" d="M411.569,218.498c-3.72-4.246-6.667-8.315-6.667-8.315l0.375-29.375
						c0,0,5.653,10.958,10.557,19.165C412.646,205.552,411.145,212.087,411.569,218.498z"/>
				</g>
				<g>
					<defs>
						<path id="SVGID_00000170267998990601018440000008892373092574614444_" d="M434.528,199.184
							c2.678,3.515,5.375,13.625,3.75,17.375s-7.625,4.5-9.125,4s-6.875-5.25-6.75-11.75c-0.125-0.125-3.875-2.625-1.875-6.25
							S432.528,196.559,434.528,199.184z"/>
					</defs>
					<clipPath id="SVGID_00000181069845924590107640000013118272784456686472_">
						<use xlink:href="#SVGID_00000170267998990601018440000008892373092574614444_"  style="overflow:visible;"/>
					</clipPath>
					<path style="clip-path:url(#SVGID_00000181069845924590107640000013118272784456686472_);fill:#A46C35;" d="M434.528,199.184
						c2.678,3.515,5.375,13.625,3.75,17.375s-7.625,4.5-9.125,4s-6.875-5.25-6.75-11.75c-0.125-0.125-3.875-2.625-1.875-6.25
						S432.528,196.559,434.528,199.184z"/>
					<path style="clip-path:url(#SVGID_00000181069845924590107640000013118272784456686472_);fill:#1C1110;" d="M431.795,220.117
						c-0.915,0.239-1.928-0.612-2.343-1.365c-0.628-1.142,0.569-2.094,1.41-2.681c1.217-0.849,2.644-1.329,4.039-1.795
						c0.608-0.203,0.353-1.17-0.259-0.966c-2.116,0.707-5.494,1.736-6.307,4.122c-0.657,1.926,1.896,4.128,3.718,3.651
						C432.677,220.92,432.419,219.954,431.795,220.117L431.795,220.117z"/>
					<path style="clip-path:url(#SVGID_00000181069845924590107640000013118272784456686472_);fill:#1C1110;" d="M428.878,216.579
						c-1.357-1.281-2.533-3.811-1.329-5.555c1.028-1.49,3.345-2.416,4.987-2.968c0.607-0.204,0.352-1.172-0.259-0.966
						c-2.03,0.683-5.098,1.887-5.941,4.062c-0.823,2.123,0.286,4.673,1.838,6.139C428.642,217.731,429.348,217.023,428.878,216.579
						L428.878,216.579z"/>
					<path style="clip-path:url(#SVGID_00000181069845924590107640000013118272784456686472_);fill:#1C1110;" d="M426.672,211.465
						c-2.408-1.26-3.668-3.515-2.312-6.113c1.106-2.12,3.471-3.102,5.675-3.63c0.626-0.15,0.367-1.116-0.259-0.966
						c-2.754,0.66-5.586,2.051-6.628,4.873c-1.079,2.922,0.429,5.344,3.024,6.702C426.742,212.629,427.244,211.764,426.672,211.465
						L426.672,211.465z"/>
				</g>
				<path style="fill:#CF9E76;" d="M422.403,208.809"/>
				<path style="fill:#754D26;" d="M420.028,206.684c-0.858-0.172-2.875,1.5-3,2.625s2.5,6.875,4.375,7.25s4.125-0.625,4-2.625
					S421.278,206.934,420.028,206.684z"/>
			</g>
			<polygon style="fill:#A3C2D1;" points="423.889,365.642 416.723,369.809 419.889,378.142 427.723,377.975 430.389,373.475 			"/>
			<polygon style="fill:#A3C2D1;" points="314.056,363.975 309.223,368.475 309.389,378.642 316.723,381.142 323.389,368.642 			"/>
			<path style="fill:#1C1110;" d="M353.223,264.975c0,0-12.667,45.667-14,49.667c-1.333,4-5.333,7-7,9.667
				c-1.667,2.667-22.333,36-22.333,38.333s12.667,12,15,9.667c23-18.667,51.667-82,51.667-82L353.223,264.975z"/>
			<path style="fill:#1C1110;" d="M388.889,256.642l4.333-11l-37-13.333c0,0-7,6.667-8,23c-1,16.333,33.333,53.333,35,56.333
				c1.667,3,5,16,7,22.333c2,6.333,23,39.333,24.667,39.333c1.667,0,13.333-6,13.667-8.667S388.889,256.642,388.889,256.642z"/>
			<g>
				<path style="fill:#C93D43;" d="M385.889,116.475c-3.556,5.482-7.667,24.667-12.333,30.5c-4.667,5.833-25,29.333-16,42.667
					c9,13.333,40.5,4.667,43.5,0c3-4.667,14.667-34.667,14.667-34.667s12.833-12.167,14.167-18c1.333-5.833,6.333-6.5,3.667-15.667
					c-2.667-9.167-8.833-15.167-20-13.667C402.389,109.142,389.889,110.309,385.889,116.475z"/>
				<g>
					<defs>
						<path id="SVGID_00000157310266230098132150000007375979615558653117_" d="M385.889,116.475
							c-3.556,5.482-7.667,24.667-12.333,30.5c-4.667,5.833-25,29.333-16,42.667c9,13.333,40.5,4.667,43.5,0
							c3-4.667,14.667-34.667,14.667-34.667s12.833-12.167,14.167-18c1.333-5.833,6.333-6.5,3.667-15.667
							c-2.667-9.167-8.833-15.167-20-13.667C402.389,109.142,389.889,110.309,385.889,116.475z"/>
					</defs>
					<clipPath id="SVGID_00000043433022438761484040000010970204765892415155_">
						<use xlink:href="#SVGID_00000157310266230098132150000007375979615558653117_"  style="overflow:visible;"/>
					</clipPath>
					<g style="clip-path:url(#SVGID_00000043433022438761484040000010970204765892415155_);">
						<path style="fill:#F24A51;" d="M395.761,117.647c-2.335,4.996-3.122,10.674-4.009,16.07
							c-0.944,5.742-1.677,11.516-2.439,17.285c-1.491,11.292-3.114,22.638-6.61,33.515c-1.896,5.9-4.354,11.607-7.547,16.924
							c-0.166,0.276,0.267,0.526,0.433,0.25c11.72-19.518,12.811-42.76,16.148-64.699c0.491-3.227,1.034-6.448,1.672-9.65
							c0.644-3.231,1.383-6.448,2.784-9.447C396.329,117.607,395.897,117.355,395.761,117.647L395.761,117.647z"/>
						<g>
							<path style="fill:#F24A51;" d="M350.819,177.793c10.014-5.381,18.128-13.681,23.409-23.735
								c5.726-10.902,8.474-23.067,14.047-34.038c2.99-5.886,6.792-11.378,11.911-15.609c0.248-0.205-0.109-0.555-0.355-0.352
								c-8.884,7.343-13.592,18.171-17.493,28.729c-4.267,11.548-8.188,23.325-16.569,32.651c-4.336,4.825-9.49,8.854-15.202,11.923
								C350.282,177.514,350.535,177.946,350.819,177.793L350.819,177.793z"/>
							<path style="fill:#F24A51;" d="M407.863,105.234c-11.283,8.145-17.979,20.777-22.771,33.531
								c-5.252,13.979-8.605,28.842-16.217,41.829c-3.894,6.644-8.922,12.646-15.447,16.832c-0.27,0.173-0.019,0.606,0.253,0.431
								c11.132-7.142,17.685-19.188,22.311-31.221c5.518-14.356,8.91-29.618,16.616-43.061c3.96-6.907,9.019-13.226,15.508-17.91
								C408.375,105.479,408.125,105.045,407.863,105.234L407.863,105.234z"/>
							<path style="fill:#F24A51;" d="M416.918,104.811c-10.352,7.892-12.876,21.274-15.504,33.239
								c-3.072,13.983-7.35,27.66-12.064,41.167c-2.638,7.559-5.411,15.07-8.184,22.58c-0.112,0.302,0.372,0.432,0.482,0.132
								c4.823-13.063,9.648-26.136,13.762-39.445c2.054-6.645,3.93-13.347,5.532-20.116c1.572-6.641,2.699-13.419,4.887-19.899
								c2.225-6.591,5.725-12.945,11.342-17.228C417.423,105.05,417.174,104.616,416.918,104.811L416.918,104.811z"/>
							<path style="fill:#F24A51;" d="M405.082,156.798c-0.21-4.17-0.417-8.36-0.042-12.527c0.395-4.397,1.592-8.541,3.556-12.492
								c1.803-3.627,4.023-7.032,6.125-10.488c2.278-3.746,4.518-7.515,6.713-11.311c2.212-3.826,4.702-7.695,5.513-12.107
								c0.058-0.315-0.424-0.449-0.482-0.132c-0.775,4.217-3.108,7.907-5.22,11.568c-2.191,3.798-4.428,7.569-6.703,11.316
								c-4.193,6.906-8.702,13.622-9.796,21.81c-0.636,4.762-0.403,9.579-0.162,14.36
								C404.598,157.115,405.098,157.12,405.082,156.798L405.082,156.798z"/>
							<path style="fill:#F24A51;" d="M407.285,157.251c-2.241-7.8,0.134-15.913,3.536-23.001
								c3.484-7.259,8.095-13.631,12.984-19.982c2.28-2.962,4.364-6.136,4.96-9.896c0.05-0.315-0.432-0.45-0.482-0.132
								c-0.616,3.885-2.842,7.123-5.211,10.162c-2.376,3.048-4.745,6.071-6.859,9.312c-4.237,6.496-8.17,13.693-9.717,21.364
								c-0.824,4.086-0.851,8.278,0.305,12.302C406.891,157.69,407.374,157.561,407.285,157.251L407.285,157.251z"/>
							<path style="fill:#F24A51;" d="M431.566,136.81c0.115-5.773-0.03-11.549-0.461-17.308c-0.184-2.459-0.343-4.949-0.74-7.385
								c-0.333-2.044-0.978-4.006-2.473-5.494c-0.228-0.227-0.58,0.128-0.352,0.355c1.703,1.695,2.209,4.038,2.492,6.343
								c0.312,2.542,0.507,5.103,0.677,7.658c0.35,5.268,0.462,10.549,0.356,15.827C431.06,137.129,431.56,137.132,431.566,136.81
								L431.566,136.81z"/>
						</g>
					</g>
				</g>
				<path style="fill:#F24A51;" d="M372.723,150.309c4.667-5.833,8.778-25.018,12.333-30.5c4-6.167,16.5-7.333,27.667-8.833
					c11.167-1.5,17.333,4.5,20,13.667c0.63,2.165,0.822,3.844,0.745,5.241c0.913-1.949,1.314-4.361,0.088-8.574
					c-2.667-9.167-8.833-15.167-20-13.667s-23.667,2.667-27.667,8.833c-3.556,5.482-7.667,24.667-12.333,30.5
					c-3.466,4.333-15.568,18.412-17.88,30.833C359.234,166.302,369.564,154.258,372.723,150.309z"/>
				<path style="fill:#A3C2D1;" d="M405.556,180.309l-10.5-11.667c-3.25-2.583-6.75-6.333-13.25-2.833s-69,63.25-69.5,65.25
					s6,9.5,7.25,9.5s28.25-18.25,32.75-22.75s16.75-15.75,16.75-15.75s0.75,7.75-0.5,11s-13.5,16-13.5,19.25s20.75,23.5,39,15
					c6.25-2.25,8-30,8-30s7,0.5,9-5.25S407.306,182.559,405.556,180.309z"/>
				<polygon style="fill:#EEE5C4;" points="400.096,167.065 396.002,172.575 407.4,187.553 412.342,178.087 				"/>
				<g>
					<defs>
						<path id="SVGID_00000042700229195502855180000013083578676444100788_" d="M425.556,117.142c0,0,2.333,2.333,3.333,7.833
							s-0.167,12.167,0.833,13.833c1,1.667,5.5,2,5.833,3.333c0.333,1.333-2.5,4.667-2.5,4.667s-0.333,15-3.333,18.5
							c-2.167,1.833-13.833-3-16.333-1.5s-8.167,14.833-8.167,14.833s4,11.5,2.5,12s-12.667-21.167-12.667-22
							c0-0.833,5.333-9.333,5.333-9.333s-13.333-1-9.5-10.5c3.833-9.5,7.833-2.5,10,0.667c2.167,3.167,6.833,8.833,11.5,7.333
							c1.333-0.833-2.833,2-3.5-4.5c-0.667-6.5,0.333-9.167,4.167-14.833c3.833-5.667,13.167-14.667,13.167-20.667"/>
					</defs>
					<clipPath id="SVGID_00000048476084594427522000000017505860003980954753_">
						<use xlink:href="#SVGID_00000042700229195502855180000013083578676444100788_"  style="overflow:visible;"/>
					</clipPath>
					<path style="clip-path:url(#SVGID_00000048476084594427522000000017505860003980954753_);fill:#A46C35;" d="M425.556,117.142
						c0,0,2.333,2.333,3.333,7.833s-0.167,12.167,0.833,13.833c1,1.667,5.5,2,5.833,3.333c0.333,1.333-2.5,4.667-2.5,4.667
						s-0.333,15-3.333,18.5c-2.167,1.833-13.833-3-16.333-1.5s-8.167,14.833-8.167,14.833s4,11.5,2.5,12s-12.667-21.167-12.667-22
						c0-0.833,5.333-9.333,5.333-9.333s-13.333-1-9.5-10.5c3.833-9.5,7.833-2.5,10,0.667c2.167,3.167,6.833,8.833,11.5,7.333
						c1.333-0.833-2.833,2-3.5-4.5c-0.667-6.5,0.333-9.167,4.167-14.833c3.833-5.667,13.167-14.667,13.167-20.667"/>
					<path style="clip-path:url(#SVGID_00000048476084594427522000000017505860003980954753_);fill:#1C1110;" d="M420.227,140.149
						c1.518,0.636,3.626,1.599,5.249,0.731c1.424-0.762,1.412-2.543,0.59-3.739c-0.362-0.527-1.229-0.026-0.863,0.506
						c0.883,1.284,0.218,2.588-1.354,2.543c-1.083-0.031-2.142-0.497-3.122-0.907C420.141,139.038,419.634,139.901,420.227,140.149
						L420.227,140.149z"/>
					<path style="clip-path:url(#SVGID_00000048476084594427522000000017505860003980954753_);fill:#1C1110;" d="M415.751,132.105
						c1.183-0.672,2.472-1.442,3.876-1.456c1.246-0.012,2.335,0.606,3.435,1.114c1.515,0.699,3.064,1.14,4.649,0.401
						c0.582-0.271,0.074-1.133-0.506-0.863c-2.262,1.054-4.415-1.155-6.574-1.564c-1.951-0.369-3.742,0.571-5.386,1.504
						C414.685,131.56,415.19,132.423,415.751,132.105L415.751,132.105z"/>
					<path style="clip-path:url(#SVGID_00000048476084594427522000000017505860003980954753_);fill:#1C1110;" d="M426.69,156.896
						c2.38-0.584,4.785-1.141,7.24-0.701c0.63,0.113,0.898-0.851,0.264-0.965c-2.643-0.473-5.194,0.07-7.763,0.7
						C425.806,156.084,426.064,157.05,426.69,156.896L426.69,156.896z"/>
					
						<circle style="clip-path:url(#SVGID_00000048476084594427522000000017505860003980954753_);fill:#DB9C94;" cx="417.306" cy="149.392" r="3.917"/>
					<path style="clip-path:url(#SVGID_00000048476084594427522000000017505860003980954753_);fill:#1C1110;" d="M389.886,149.641
						c2.137-1.095,4.29-1.361,6.355,0.034c1.704,1.152,3.357,2.635,4.384,4.43c0.319,0.558,1.183,0.054,0.863-0.506
						c-1.206-2.109-3.282-4.032-5.411-5.205c-2.194-1.21-4.566-0.707-6.697,0.385C388.808,149.072,389.314,149.934,389.886,149.641
						L389.886,149.641z"/>
					<path style="clip-path:url(#SVGID_00000048476084594427522000000017505860003980954753_);fill:#1C1110;" d="M397.843,150.378
						c-1.761,0.275-3.158,2.24-3.819,3.758c-0.254,0.584,0.609,1.09,0.866,0.5c0.56-1.286,1.705-3.056,3.211-3.292
						C398.737,151.244,398.474,150.279,397.843,150.378L397.843,150.378z"/>
				</g>
				<path style="fill:#E0ADA6;" d="M435.556,142.142c-0.309-1.237-4.198-1.615-5.559-2.993c-1.407,3.03,3.059,7.659,3.059,7.659
					S435.889,143.475,435.556,142.142z"/>
			</g>
			<polygon style="fill:#EEE5C4;" points="397.556,164.059 391.806,167.809 397.306,185.809 405.223,178.642 			"/>
			<path style="fill:#BCBEC0;" d="M379.306,194.059l-10.25,8c0,0,0.75,7.75-0.5,11c-0.675,1.754-4.552,6.275-7.98,10.576
				C386.257,212.092,379.306,194.059,379.306,194.059z"/>
			<path style="fill:#A3C2D1;" d="M352.007,269.102c5.673,11.055,13.256,21.024,21.281,30.463c0.208,0.245,0.559-0.111,0.352-0.356
				c-7.997-9.407-15.548-19.343-21.201-30.361C352.291,268.563,351.86,268.816,352.007,269.102L352.007,269.102z"/>
			<ellipse style="fill:#BCBEC0;" cx="378.111" cy="392.642" rx="85" ry="3.333"/>
			<path style="fill:#C93D43;" d="M302.223,370.309c-0.972,0.972,7.5,19.833,8.167,20.333c0.667,0.5,21.5,0.833,22.333-0.5
				s0.333-8.5-2.667-9s-7.833,0.167-7.833,0.167s1.333-5.167-0.167-5.667s-6.667,1.5-8.5,0.5c-1.833-1-2.167-3.167-2.167-4.167
				s1.5-2.5,1-3.333s-2.667-2-3.667-2.333C307.723,365.975,302.889,369.642,302.223,370.309z"/>
			<path style="fill:#C93D43;" d="M415.223,377.309c0-1.178,3.5-2.833,3.5-2.833s1.833,4.333,6.333,2c4.5-2.333,3.5-8,4.667-8.833
				s7,0,7,0s17.833-4,19.833,0.167c2,4.167-23,16.5-25.5,16.667c-2.5,0.167-6.5-2.833-6.833-1.833s3.167,4.5,2,5.667
				c-1.167,1.167-4.5,1.667-4.5,1.667S415.223,378.642,415.223,377.309z"/>
		</g>
		<g>
			<ellipse style="fill:#BCBEC0;" cx="245.806" cy="395.559" rx="43.75" ry="3.75"/>
			<polygon style="fill:#ECC19C;" points="256.868,268.496 241.556,271.684 240.243,277.309 245.181,281.434 253.118,281.371 
				256.681,278.121 258.368,272.621 			"/>
			<path style="fill:#1C1110;" d="M273.681,238.184c-1.5-9.5-10-13-13.75-14.625c-10.625-5.5-22.375,1.75-22.75,3.375
				c-0.117,0.509,0.598,0.515,1.637,0.284c-4.14,1.947-9.289,5.435-11.762,11.341c-4.5,10.75,4.375,19.25,4.375,19.25l19,6.125
				c0,0,17.125-5,19.5-6.5S275.181,247.684,273.681,238.184z"/>
			<path style="fill:#61756D;" d="M227.056,241.059c2.472-5.906,7.622-9.394,11.762-11.341c-1.038,0.231-1.754,0.225-1.637-0.284
				c0.375-1.625,12.125-8.875,22.75-3.375c3.75,1.625,12.25,5.125,13.75,14.625c0.222,1.409,0.339,2.784,0.385,4.12
				c0.082-2.081-0.02-4.313-0.385-6.62c-1.5-9.5-10-13-13.75-14.625c-10.625-5.5-22.375,1.75-22.75,3.375
				c-0.117,0.509,0.598,0.515,1.637,0.284c-4.14,1.947-9.289,5.435-11.762,11.341c-1.11,2.652-1.404,5.165-1.22,7.449
				C225.963,244.432,226.338,242.774,227.056,241.059z"/>
			<path style="fill:#B0935E;" d="M264.556,318.309l-33,0.75c0,0-15.5,66.5-14,67.5s9.25,0.75,10.25,2.75s2.5,5,2.5,5
				s2.25,1.25,2.5,0.5s13-63,14.25-63s2.5-0.5,3,0.5s9.5,62.25,9.5,62.25l3.75,0.5c0,0,3.5-4.75,4.5-5.75s7.5-1.25,7.5-2.75
				S265.306,319.309,264.556,318.309z"/>
			<path style="fill:#A3C2D1;" d="M264.904,290.642c0,0-8.848-14.5-12.167-11.667c-3.319,2.833-6.681,1.5-8.015,0l-9.667,5.167
				l-2.5,6.5c0,0-3.667,29.5-2.5,29.667c1.167,0.167,36,1.5,36.833,0C267.723,318.809,264.904,290.642,264.904,290.642z"/>
			<g>
				<path style="fill:#A46C35;" d="M291.056,243.221c0.553-1.244,10.367-6.359,12.717-6.359c2.35,0,3.041,1.106,3.87,0.829
					s7.879-7.05,7.879-7.05l4.7,5.253c0,0-7.05,6.359-7.188,7.05c-0.138,0.691,0,6.359-0.415,7.879
					c-0.415,1.521-4.562,3.594-5.253,2.765c-0.691-0.829-2.35-6.082-3.456-6.082c-1.106,0-4.7,2.488-4.976,4.285
					c-0.276,1.797,0.929,7.768,0.138,8.017c-0.794,0.25-1.842-0.117-2.488-1.106c-1.126-1.724-2.685-4.318-1.797-6.082
					c0,0-1.659-0.415-1.935-1.244c-0.276-0.829-0.138-1.797-0.138-1.797s-1.521-0.691-1.521-1.659c0-0.968,0.553-1.935,0.553-1.935
					S290.503,244.465,291.056,243.221z"/>
				<path style="fill:#ECC19C;" d="M306.237,258.809c1.621-2.801,3.5-6.333,1.5-9.667c-2-3.333-3.667-4-5.333-3.333
					c-1.667,0.667-4,4-4.167,5.5c-0.167,1.5,1.672,8.333,0.836,8.5c-0.836,0.167-1.777-0.111-2.169-0.75
					c-0.598-0.974-2.277-3.982-2.167-3.917c-0.987,0.37-16.483,10.05-24.833,12.833c-8,2.667-12.333,1.833-14.167,4.5
					c-1.833,2.667-1.5,4.833-3,6.5l12.167,11.667c0,0,11.667-2.833,12.333-3.833c0.667-1-0.5-7.333-0.5-7.333
					s18.833-16.167,20.333-16.667S304.404,261.975,306.237,258.809z"/>
				<path style="fill:#C93D43;" d="M277.237,286.809c-0.667,1-12.333,3.833-12.333,3.833l-12.167-11.667
					c1.5-1.667,1.167-3.833,3-6.5c1.787-2.6,5.961-1.882,13.582-4.315l3.918,14.315l3.5-3
					C276.737,279.475,277.904,285.809,277.237,286.809z"/>
				<path style="fill:#912C30;" d="M273.237,282.475l3.5-3c0,0,1.167,6.333,0.5,7.333
					C275.737,287.725,273.987,284.392,273.237,282.475z"/>
				<g>
					<defs>
						<path id="SVGID_00000087372387336087987380000015399065315835704760_" d="M306.237,258.809c1.621-2.801,3.5-6.333,1.5-9.667
							c-2-3.333-3.667-4-5.333-3.333c-1.667,0.667-4,4-4.167,5.5c-0.167,1.5,1.672,8.333,0.836,8.5
							c-0.836,0.167-2.307-0.378-2.488-1.106c-0.181-0.727-0.181-4.227-1.515-3.727c-0.987,0.37-16.817,10.217-25.167,13
							c-8,2.667-12.333,1.833-14.167,4.5c-1.833,2.667-1.5,4.833-3,6.5l12.167,11.667c0,0,11.667-2.833,12.333-3.833
							c0.667-1-0.5-7.333-0.5-7.333s18.833-16.167,20.333-16.667S304.404,261.975,306.237,258.809z"/>
					</defs>
					<clipPath id="SVGID_00000152235043056298321210000014776346994478539674_">
						<use xlink:href="#SVGID_00000087372387336087987380000015399065315835704760_"  style="overflow:visible;"/>
					</clipPath>
					<path style="clip-path:url(#SVGID_00000152235043056298321210000014776346994478539674_);fill:#1C1110;" d="M304.72,257.123
						c0.733-4.855-0.461-9.777-3.376-13.734c-0.189-0.256-0.623-0.006-0.431,0.253c2.831,3.843,4.038,8.624,3.325,13.349
						C304.19,257.306,304.672,257.441,304.72,257.123L304.72,257.123z"/>
					<path style="clip-path:url(#SVGID_00000152235043056298321210000014776346994478539674_);fill:#1C1110;" d="M306.81,255.791
						c0.897-4.468-0.048-9.082-2.657-12.823c-0.183-0.262-0.616-0.012-0.431,0.253c2.532,3.631,3.478,8.094,2.606,12.438
						C306.264,255.973,306.746,256.107,306.81,255.791L306.81,255.791z"/>
					<path style="clip-path:url(#SVGID_00000152235043056298321210000014776346994478539674_);fill:#1C1110;" d="M302.036,256.983
						c0.396-3.965-0.525-7.888-2.636-11.267c-0.17-0.272-0.602-0.021-0.431,0.253c2.068,3.309,2.955,7.129,2.567,11.01
						C301.504,257.299,302.005,257.3,302.036,256.983L302.036,256.983z"/>
				</g>
			</g>
			<g>
				<path style="fill:#ECC19C;" d="M191.223,258.809c-1.621-2.801-3.5-6.333-1.5-9.667c2-3.333,3.667-4,5.333-3.333
					c1.667,0.667,4,4,4.167,5.5s-1.672,8.333-0.836,8.5c0.836,0.167,1.777-0.111,2.169-0.75c0.598-0.974,2.277-3.982,2.167-3.917
					c0.987,0.37,16.483,10.05,24.833,12.833c8,2.667,12.333,1.833,14.167,4.5c1.833,2.667,1.5,4.833,3,6.5l-12.167,11.667
					c0,0-11.667-2.833-12.333-3.833s0.5-7.333,0.5-7.333s-18.833-16.167-20.333-16.667S193.056,261.975,191.223,258.809z"/>
				<path style="fill:#C93D43;" d="M220.223,286.809c0.667,1,12.333,3.833,12.333,3.833l12.167-11.667c-1.5-1.667-1.167-3.833-3-6.5
					c-1.787-2.6-5.961-1.882-13.582-4.315l-3.918,14.315l-3.5-3C220.723,279.475,219.556,285.809,220.223,286.809z"/>
				<path style="fill:#912C30;" d="M224.223,282.475l-3.5-3c0,0-1.167,6.333-0.5,7.333
					C221.723,287.725,223.473,284.392,224.223,282.475z"/>
				<g>
					<defs>
						<path id="SVGID_00000103222654684723053410000004560242318882919330_" d="M191.223,258.809c-1.621-2.801-3.5-6.333-1.5-9.667
							c2-3.333,3.667-4,5.333-3.333c1.667,0.667,4,4,4.167,5.5s-1.672,8.333-0.836,8.5c0.836,0.167,2.307-0.378,2.488-1.106
							c0.181-0.727,0.181-4.227,1.515-3.727c0.987,0.37,16.817,10.217,25.167,13c8,2.667,12.333,1.833,14.167,4.5
							c1.833,2.667,1.5,4.833,3,6.5l-12.167,11.667c0,0-11.667-2.833-12.333-3.833s0.5-7.333,0.5-7.333
							s-18.833-16.167-20.333-16.667S193.056,261.975,191.223,258.809z"/>
					</defs>
					<clipPath id="SVGID_00000112626375427325047390000004881531376586901688_">
						<use xlink:href="#SVGID_00000103222654684723053410000004560242318882919330_"  style="overflow:visible;"/>
					</clipPath>
					<path style="clip-path:url(#SVGID_00000112626375427325047390000004881531376586901688_);fill:#1C1110;" d="M193.223,256.992
						c-0.713-4.726,0.494-9.508,3.326-13.352c0.191-0.259-0.244-0.507-0.433-0.25c-2.915,3.956-4.108,8.877-3.376,13.732
						C192.788,257.44,193.27,257.308,193.223,256.992L193.223,256.992z"/>
					<path style="clip-path:url(#SVGID_00000112626375427325047390000004881531376586901688_);fill:#1C1110;" d="M191.133,255.66
						c-0.872-4.344,0.073-8.809,2.606-12.441c0.184-0.264-0.25-0.512-0.433-0.25c-2.608,3.74-3.553,8.353-2.656,12.82
						C190.713,256.105,191.196,255.975,191.133,255.66L191.133,255.66z"/>
					<path style="clip-path:url(#SVGID_00000112626375427325047390000004881531376586901688_);fill:#1C1110;" d="M195.924,256.983
						c-0.388-3.884,0.499-7.704,2.568-11.015c0.171-0.273-0.263-0.523-0.433-0.25c-2.11,3.377-3.031,7.299-2.635,11.262
						C195.455,257.296,195.956,257.302,195.924,256.983L195.924,256.983z"/>
				</g>
				<path style="fill:#BCBEC0;" d="M258.336,270.754c-0.042,0.013-0.087,0.025-0.128,0.039c-0.155,0.052-0.3,0.109-0.444,0.167
					l-0.896-2.464l-15.313,3.188l-0.106,0.455c-0.033-0.038-0.062-0.082-0.096-0.118c-0.045-0.048-0.098-0.087-0.145-0.132
					c-0.092-0.087-0.182-0.176-0.283-0.254c-0.058-0.045-0.125-0.083-0.186-0.125c-0.099-0.069-0.197-0.139-0.304-0.201
					c-0.062-0.036-0.132-0.066-0.197-0.1c-0.117-0.061-0.233-0.122-0.359-0.177c-0.058-0.025-0.123-0.047-0.183-0.071
					c-0.144-0.058-0.289-0.115-0.444-0.167c-0.041-0.014-0.086-0.026-0.128-0.039c-1.009-0.323-2.263-0.551-3.757-0.833
					c0.755,3.854,2.88,7.403,5.789,10.053c1.219,1.11,2.59,2.085,4.14,2.648c3.707,1.349,7.997,0.116,11.071-2.355
					c3.074-2.471,5.102-6.014,6.655-9.64c0.137-0.319,0.262-0.643,0.392-0.964C261.314,270.082,259.629,270.34,258.336,270.754z"/>
			</g>
			<g>
				<path style="fill:#A3C2D1;" d="M219.429,391.624c0.343,0.58,0.627,1.231,1.174,1.626c0.462,0.334,1.048,0.435,1.614,0.504
					c3.074,0.374,6.169,0.058,9.24-0.431c-1.156-1.656-3.164-4.078-4.151-5.64c-1.5-2.375-8-3.125-9.25-2.125
					c-1.22,0.976-2.089,0.412-5.497,2.473C215.259,387.927,218.044,389.279,219.429,391.624z"/>
				<path style="fill:#EEE5C4;" d="M222.217,393.754c-0.566-0.069-1.152-0.17-1.614-0.504c-0.546-0.395-0.831-1.046-1.174-1.626
					c-1.385-2.345-4.17-3.696-6.87-3.592c-0.085,0.052-0.164,0.097-0.253,0.152c-3.625,2.25-4.287,6.673-3.5,7.25
					c1.875,1.375,23.125,0.25,23.5-0.375c0.128-0.214-0.247-0.873-0.849-1.735C228.386,393.812,225.291,394.128,222.217,393.754z"/>
			</g>
			<g>
				<path style="fill:#A3C2D1;" d="M272.806,391.499c-0.343,0.58-0.627,1.231-1.174,1.626c-0.462,0.334-1.048,0.435-1.614,0.504
					c-3.074,0.374-6.169,0.058-9.24-0.431c1.156-1.656,3.164-4.078,4.151-5.64c1.5-2.375,8-3.125,9.25-2.125
					c1.22,0.976,2.089,0.412,5.497,2.473C276.976,387.802,274.191,389.154,272.806,391.499z"/>
				<path style="fill:#EEE5C4;" d="M270.018,393.629c0.566-0.069,1.152-0.17,1.614-0.504c0.546-0.395,0.831-1.046,1.174-1.626
					c1.385-2.345,4.17-3.696,6.87-3.592c0.085,0.052,0.164,0.097,0.253,0.152c3.625,2.25,4.287,6.673,3.5,7.25
					c-1.875,1.375-23.125,0.25-23.5-0.375c-0.128-0.214,0.247-0.873,0.849-1.735C263.849,393.687,266.944,394.003,270.018,393.629z"
					/>
			</g>
			<g>
				<g>
					<defs>
						<path id="SVGID_00000027595586899290694720000016063604976820946854_" d="M266.138,256.485
							c0.695-1.091,1.96-1.797,3.254-1.815c0.571-0.008,1.178,0.129,1.574,0.539c0.427,0.443,0.523,1.105,0.54,1.72
							c0.066,2.412-0.803,4.865-2.484,6.596c-1.681,1.731-4.178,2.678-6.569,2.353c-1.055-0.143-2.222-0.679-2.455-1.718
							L266.138,256.485z"/>
					</defs>
					<clipPath id="SVGID_00000183244365089143400820000005303379424879538318_">
						<use xlink:href="#SVGID_00000027595586899290694720000016063604976820946854_"  style="overflow:visible;"/>
					</clipPath>
					<g style="clip-path:url(#SVGID_00000183244365089143400820000005303379424879538318_);">
						<path style="fill:#ECC19C;" d="M266.138,256.485c0.695-1.091,1.96-1.797,3.254-1.815c0.571-0.008,1.178,0.129,1.574,0.539
							c0.427,0.443,0.523,1.105,0.54,1.72c0.066,2.412-0.803,4.865-2.484,6.596c-1.681,1.731-4.178,2.678-6.569,2.353
							c-1.055-0.143-2.222-0.679-2.455-1.718L266.138,256.485z"/>
					</g>
					<path style="clip-path:url(#SVGID_00000183244365089143400820000005303379424879538318_);fill:#1C1110;" d="M271.356,261.467
						c0.63-1.459,0.508-3.66-1.601-3.527c-1.14,0.072-2.137,0.95-2.976,1.639c-1.421,1.168-2.671,2.522-3.904,3.883
						c-0.172,0.19,0.11,0.474,0.283,0.283c0.891-0.984,1.789-1.963,2.759-2.871c0.516-0.483,1.047-0.94,1.609-1.369
						c0.296-0.243,0.605-0.466,0.929-0.671c1.467-1.053,2.319-0.243,2.556,2.431C270.91,261.499,271.254,261.703,271.356,261.467
						L271.356,261.467z"/>
					<path style="clip-path:url(#SVGID_00000183244365089143400820000005303379424879538318_);fill:#1C1110;" d="M266.312,260.6
						c0.931,0.493,0.576,2.227,0.216,2.937c-0.116,0.229,0.229,0.432,0.345,0.202c0.475-0.937,0.794-2.873-0.36-3.484
						C266.286,260.135,266.084,260.48,266.312,260.6L266.312,260.6z"/>
				</g>
				<g>
					<defs>
						<path id="SVGID_00000008139925171773062000000007685090724981843587_" d="M233.746,256.485
							c-0.696-1.091-1.96-1.797-3.254-1.815c-0.571-0.008-1.178,0.129-1.574,0.539c-0.427,0.443-0.523,1.105-0.54,1.72
							c-0.066,2.412,0.803,4.865,2.484,6.596c1.681,1.731,4.178,2.678,6.569,2.353c1.055-0.143,2.222-0.679,2.455-1.718
							L233.746,256.485z"/>
					</defs>
					<clipPath id="SVGID_00000159455725166768898340000000782078694937002422_">
						<use xlink:href="#SVGID_00000008139925171773062000000007685090724981843587_"  style="overflow:visible;"/>
					</clipPath>
					<g style="clip-path:url(#SVGID_00000159455725166768898340000000782078694937002422_);">
						<path style="fill:#ECC19C;" d="M233.746,256.485c-0.696-1.091-1.96-1.797-3.254-1.815c-0.571-0.008-1.178,0.129-1.574,0.539
							c-0.427,0.443-0.523,1.105-0.54,1.72c-0.066,2.412,0.803,4.865,2.484,6.596c1.681,1.731,4.178,2.678,6.569,2.353
							c1.055-0.143,2.222-0.679,2.455-1.718L233.746,256.485z"/>
					</g>
					<path style="clip-path:url(#SVGID_00000159455725166768898340000000782078694937002422_);fill:#1C1110;" d="M228.873,261.265
						c0.237-2.674,1.089-3.484,2.556-2.431c0.155,0.105,0.31,0.209,0.464,0.314c0.741,0.493,1.424,1.117,2.073,1.726
						c0.97,0.908,1.867,1.887,2.759,2.871c0.173,0.191,0.455-0.092,0.283-0.283c-1.164-1.286-2.343-2.564-3.67-3.686
						c-0.89-0.752-1.982-1.759-3.209-1.837c-2.114-0.134-2.231,2.067-1.601,3.527C228.629,261.702,228.974,261.499,228.873,261.265
						L228.873,261.265z"/>
					<path style="clip-path:url(#SVGID_00000159455725166768898340000000782078694937002422_);fill:#1C1110;" d="M233.37,260.255
						c-1.154,0.611-0.835,2.547-0.36,3.484c0.116,0.23,0.462,0.027,0.345-0.202c-0.363-0.716-0.714-2.444,0.216-2.937
						C233.799,260.48,233.598,260.134,233.37,260.255L233.37,260.255z"/>
				</g>
				<path style="fill:#ECC19C;" d="M257.056,245.475l6.167,10.333c0,0-9.167-3.5-10.333-17.667c0,0-10.75,13.014-19.984,15.533
					c0.834,4.377,2.962,15.084,4.151,16.801c1.5,2.167,9.333,4.667,11,5c1.667,0.333,12.167-2.833,13.333-4.5
					c1.167-1.667,4.833-17,4.833-17S259.556,249.642,257.056,245.475z"/>
			</g>
			<path style="fill:#1C1110;" d="M248.237,251.864c0.209,1.138,0.416,2.359,0.347,3.525c-0.077,1.307-1.034,1.736-1.454,2.81
				c-0.541,1.385,0.038,2.789,0.878,3.908c0.191,0.254,0.625,0.005,0.431-0.253c-0.739-0.984-1.317-2.183-0.837-3.423
				c0.277-0.716,0.949-1.089,1.269-1.763c0.641-1.349,0.107-3.525-0.151-4.933C248.662,251.418,248.18,251.549,248.237,251.864
				L248.237,251.864z"/>
			<path style="fill:#1C1110;" d="M238.666,252.48c1.548-1.599,3.706-2.269,5.887-1.809c0.314,0.066,0.447-0.416,0.132-0.482
				c-2.349-0.496-4.702,0.212-6.375,1.939C238.087,252.359,238.442,252.712,238.666,252.48L238.666,252.48z"/>
			<path style="fill:#1C1110;" d="M260.447,251.412c-1.755-1.848-4.336-2.542-6.782-1.826c-0.308,0.09-0.18,0.574,0.129,0.483
				c2.285-0.669,4.661-0.028,6.301,1.698C260.317,252.001,260.669,251.646,260.447,251.412L260.447,251.412z"/>
			<g>
				<path style="fill:#FFFFFF;" d="M250.316,265.676c0.221-0.049,0.443-0.1,0.658-0.167c-0.619-0.558-1.326-0.958-1.981-0.909
					c-0.626,0.047-1.27,0.533-1.799,1.158c0.356,0.111,0.726,0.169,1.089,0.179C248.979,265.956,249.653,265.822,250.316,265.676z"
					/>
				<g>
					<path style="fill:#FA895D;" d="M246.038,268.314c0.018,0.25,0.118,0.432,0.325,0.498c1.127,0.363,5.883,0.253,6.256-0.435
						c0.059-0.108,0.053-0.28-0.004-0.49c-0.743-0.267-1.512-0.439-2.279-0.496C248.811,267.278,247.308,267.611,246.038,268.314z"
						/>
					<path style="fill:#290300;" d="M250.316,265.676c-0.663,0.147-1.337,0.28-2.033,0.261c-0.363-0.01-0.733-0.068-1.089-0.179
						c-0.708,0.836-1.202,1.922-1.156,2.557c1.27-0.703,2.772-1.036,4.297-0.923c0.768,0.057,1.536,0.229,2.279,0.496
						c-0.174-0.64-0.83-1.647-1.641-2.379C250.759,265.575,250.537,265.627,250.316,265.676z"/>
				</g>
			</g>
			<g>
				<circle style="fill:#1C1110;" cx="241.501" cy="256.415" r="4.338"/>
				<g>
					<defs>
						<circle id="SVGID_00000132058561099451190770000013378346693001398941_" cx="241.718" cy="257.001" r="4.338"/>
					</defs>
					<clipPath id="SVGID_00000087403457161045830210000001542936521475779251_">
						<use xlink:href="#SVGID_00000132058561099451190770000013378346693001398941_"  style="overflow:visible;"/>
					</clipPath>
					
						<circle style="clip-path:url(#SVGID_00000087403457161045830210000001542936521475779251_);fill:#EFEFEF;" cx="241.718" cy="257.001" r="4.338"/>
					
						<circle style="clip-path:url(#SVGID_00000087403457161045830210000001542936521475779251_);fill:#1C1110;" cx="241.899" cy="257.018" r="3.843"/>
				</g>
			</g>
			<g>
				<circle style="fill:#1C1110;" cx="257.156" cy="256.415" r="4.338"/>
				<g>
					<defs>
						<circle id="SVGID_00000049931176694331773170000008079284853585737878_" cx="256.938" cy="257.001" r="4.338"/>
					</defs>
					<clipPath id="SVGID_00000103263181485069908600000015693662762153285530_">
						<use xlink:href="#SVGID_00000049931176694331773170000008079284853585737878_"  style="overflow:visible;"/>
					</clipPath>
					
						<circle style="clip-path:url(#SVGID_00000103263181485069908600000015693662762153285530_);fill:#EFEFEF;" cx="256.938" cy="257.001" r="4.338"/>
					
						<circle style="clip-path:url(#SVGID_00000103263181485069908600000015693662762153285530_);fill:#1C1110;" cx="256.757" cy="257.018" r="3.843"/>
				</g>
			</g>
			<g>
				<circle style="fill:#C93D43;" cx="251.314" cy="212.57" r="2.933"/>
				<path style="fill:#C93D43;" d="M251.204,207.023c0,0-6.462-23.31-0.162-24.036C257.342,182.26,251.204,207.023,251.204,207.023z
					"/>
			</g>
		</g>
	</g>
</g>
</svg>
